<?xml version="1.0" encoding="utf-8"?>
<!-- Generator: Adobe Illustrator 25.0.0, SVG Export Plug-In . SVG Version: 6.00 Build 0)  -->
<svg version="1.0" id="Layer_1" xmlns="http://www.w3.org/2000/svg" xmlns:xlink="http://www.w3.org/1999/xlink" x="0px" y="0px"
	 viewBox="0 0 794.8 288.9" enable-background="new 0 0 794.8 288.9" xml:space="preserve">
<g>
	<path fill="#17479E" d="M24.5,4.2h10.4l18.7,46.7H42.9l-3-7.6h-21l-3,7.6h-10L24.5,4.2z M36.7,34.8l-7.3-18.5l-7.3,18.5H36.7z"/>
	<path fill="#17479E" d="M58.3,16l7.6-0.6l0.8,3.1c1.9-2.3,5.4-3.9,13-3.9c12.2,0,15.2,8.3,15.2,18.5s-3.2,18.4-15.7,18.4
		c-6.4,0-9.4-1.3-11-3.3v13.1h-9.8V16z M85,33.5c0-5.7-1.3-9.9-7.7-9.9c-6.8,0-9.1,3.1-9.1,9.9c0,6.8,1.9,9.6,9.1,9.6
		C83.6,43.1,85,39.1,85,33.5z"/>
	<path fill="#17479E" d="M101,16l7.6-0.6l1,3.9c1.5-2.3,5.8-4.1,11.3-4.3v9.4c-8.3,0.1-10.1,3.3-10.1,8.9v17.5H101V16z"/>
	<path fill="#17479E" d="M123.9,33.1c0-11.9,5.2-18.5,18.5-18.5c13.3,0,18.5,6.6,18.5,18.5s-5.1,18.5-18.5,18.5
		C129.1,51.6,123.9,45,123.9,33.1z M151.1,33.3c0-6-1.9-9.8-8.6-9.8c-6.8,0-8.6,3.8-8.6,9.8c0,6,1.8,9.8,8.6,9.8
		C149.2,43.2,151.1,39.4,151.1,33.3z"/>
	<path fill="#17479E" d="M175.5,47.8l-1.9,3.4l-6.6-0.7V2.3h9.8V18c1.9-2.3,5.7-3.4,11.6-3.4c12.2,0,15.2,8.3,15.2,18.5
		s-3.3,18.4-15.8,18.4C181,51.4,177.4,50.1,175.5,47.8z M193.6,33.5c0-5.7-1.3-9.9-7.7-9.9c-6.8,0-9.1,3.1-9.1,9.9s1.9,9.7,9.1,9.7
		C192.2,43.2,193.6,39.1,193.6,33.5z"/>
	<path fill="#17479E" d="M207.3,40.5c0-10,7-12.4,22.7-12.4h1.4c-0.1-3.2-0.9-4.8-7-4.8c-4.3,0-8.1,1.6-10.3,2.9l-4.9-7.2
		c2.5-1.7,8.8-4.3,16.2-4.3c12.8,0,15.4,4.1,15.4,14.1v10.8c0,2.8,0.2,3.3,3.1,3.3v8c-0.7,0.2-1.9,0.2-4.1,0.2
		c-3.8,0-5.4-0.8-6.8-3.5c-1.8,2.4-5.8,3.9-12.5,3.9C209.6,51.4,207.3,46.7,207.3,40.5z M231.4,36.2v-1.3h-0.8c-12.5,0-14,1-14,4.8
		c0,2.6,1.4,3.9,6,3.9C228.7,43.5,231.4,41.4,231.4,36.2z"/>
	<path fill="#17479E" d="M247.9,33c0-10.1,3.3-18.4,15.7-18.4c6.5,0,9.5,1.4,11,3.3V2.3h9.8v48.2l-7.5,0.7l-1-3.6
		c-2.1,2.5-5.8,3.9-12.7,3.9C251.1,51.6,247.9,43.2,247.9,33z M274.7,33c0-6.7-1.9-9.5-9-9.5c-6.5,0-7.8,3.9-7.8,9.5
		c0,5.7,1.3,10.1,7.8,10.1C272.4,43.1,274.7,39.8,274.7,33z"/>
	<path fill="#17479E" d="M290.6,33.1c0-11.9,5.2-18.5,18.5-18.5s18.5,6.6,18.5,18.5s-5.1,18.5-18.5,18.5S290.6,45,290.6,33.1z
		 M317.8,33.3c0-6-1.9-9.8-8.6-9.8c-6.8,0-8.6,3.8-8.6,9.8c0,6,1.8,9.8,8.6,9.8C315.9,43.2,317.8,39.4,317.8,33.3z"/>
	<path fill="#17479E" d="M347.1,16l7.6-0.6l0.8,3.1c1.9-2.3,5.4-3.9,13-3.9c12.2,0,15.2,8.3,15.2,18.5s-3.2,18.4-15.7,18.4
		c-6.4,0-9.4-1.3-11-3.3v13.1h-9.8V16z M373.8,33.5c0-5.7-1.3-9.9-7.7-9.9c-6.8,0-9.1,3.1-9.1,9.9c0,6.8,1.9,9.6,9.1,9.6
		C372.4,43.1,373.8,39.1,373.8,33.5z"/>
	<path fill="#17479E" d="M388.1,33.1c0-11.9,5.2-18.5,18.5-18.5s18.5,6.6,18.5,18.5s-5.1,18.5-18.5,18.5S388.1,45,388.1,33.1z
		 M415.3,33.3c0-6-1.9-9.8-8.6-9.8c-6.8,0-8.6,3.8-8.6,9.8c0,6,1.8,9.8,8.6,9.8C413.4,43.2,415.3,39.4,415.3,33.3z"/>
	<path fill="#17479E" d="M431.2,16l7.6-0.6l1,3.9c1.5-2.3,5.8-4.1,11.3-4.3v9.4c-8.3,0.1-10.1,3.3-10.1,8.9v17.5h-9.8V16z"/>
	<path fill="#A91E22" d="M470.7,4.5h34.9v9.3H481v9h24v9h-24V42h24.9v8.9h-35.1V4.5z"/>
	<path fill="#A91E22" d="M513.8,4.5h13.4l12.6,31.7l12.6-31.7h13.3v46.4h-10v-31l-12.5,31h-7.8L523,20.1v30.8h-9.3V4.5z"/>
	<path fill="#A91E22" d="M589.9,4.2h10.4L619,50.9h-10.6l-3-7.6h-21l-3,7.6h-10L589.9,4.2z M602.1,34.8l-7.3-18.5l-7.3,18.5H602.1z"
		/>
	<path fill="#17479E" d="M623.6,55.9c4.3-2.1,5.1-2.6,5.1-5h-5.4V39.6h11.4v8c0,7.5-1.1,9.8-8.7,13L623.6,55.9z"/>
	<path fill="#A91E22" d="M655.7,4.5h33.8v9.3H666v10h22.9v9.1H666v18h-10.3V4.5z"/>
	<path fill="#A91E22" d="M696.6,4.5h16.7c18.3,0,25.9,4.8,25.9,23.2c0,18.1-7.8,23.2-26.1,23.2h-16.4V4.5z M713.5,41.9
		c12.7,0,15.2-3.8,15.2-14.3c0-10.5-2.1-14-15.4-14h-6.5v28.3H713.5z"/>
	<path fill="#A91E22" d="M758.9,4.2h10.4L788,50.9h-10.6l-3-7.6h-21l-3,7.6h-10L758.9,4.2z M771.1,34.8l-7.3-18.5l-7.3,18.5H771.1z"
		/>
	<path fill="#17479E" d="M60.4,136.6v-7.4H63c3.9,0,4.9-0.6,5.5-2.6l0.4-1.3L55.5,90.6h10.6l8.2,22.5l8-22.5h10l-14.2,37
		c-2.4,6.6-5.4,9.1-14,9.1C63.2,136.7,61.5,136.6,60.4,136.6z"/>
	<path fill="#A91E22" d="M125.1,79.3h10.4l18.7,46.7h-10.6l-3-7.6h-21l-3,7.6h-10L125.1,79.3z M137.3,110L130,91.5l-7.3,18.5H137.3z
		"/>
	<path fill="#A91E22" d="M159.7,79.6h11.1l21.4,29.3V79.6h9.8v46.4h-9.4l-23-31.3v31.3h-9.8V79.6z"/>
	<path fill="#A91E22" d="M211.3,79.6h13.4l12.6,31.7l12.6-31.7h13.3v46.4h-10V95l-12.5,31h-7.8l-12.4-30.8v30.8h-9.3V79.6z"/>
	<path fill="#A91E22" d="M287.4,79.3h10.4l18.7,46.7h-10.6l-3-7.6h-21l-3,7.6h-10L287.4,79.3z M299.6,110l-7.3-18.5l-7.3,18.5H299.6
		z"/>
	<path fill="#A91E22" d="M328,88.9h-16.1v-9.3h42.5v9.3h-16v37.1H328V88.9z"/>
	<path fill="#17479E" d="M372.6,91.2l7.6-0.6l0.8,3.1c1.9-2.3,5.4-3.9,13-3.9c12.2,0,15.2,8.3,15.2,18.5s-3.2,18.4-15.7,18.4
		c-6.4,0-9.4-1.3-11-3.3v13.1h-9.8V91.2z M399.2,108.6c0-5.7-1.3-9.9-7.7-9.9c-6.8,0-9.1,3.1-9.1,9.9c0,6.8,1.9,9.6,9.1,9.6
		C397.8,118.3,399.2,114.3,399.2,108.6z"/>
	<path fill="#17479E" d="M412.9,115.7c0-10,7-12.4,22.7-12.4h1.4c-0.1-3.2-0.9-4.8-7-4.8c-4.3,0-8.1,1.6-10.3,2.9l-4.9-7.2
		c2.5-1.7,8.8-4.3,16.2-4.3c12.8,0,15.4,4.1,15.4,14.1v10.8c0,2.8,0.2,3.3,3.1,3.3v8c-0.7,0.2-1.9,0.2-4.1,0.2
		c-3.8,0-5.4-0.8-6.8-3.5c-1.8,2.4-5.8,3.9-12.5,3.9C415.2,126.6,412.9,121.9,412.9,115.7z M437,111.3V110h-0.8c-12.5,0-14,1-14,4.8
		c0,2.6,1.4,3.9,6,3.9C434.3,118.7,437,116.5,437,111.3z"/>
	<path fill="#17479E" d="M455.6,91.2l7.6-0.6l1,3.9c1.5-2.3,5.8-4.1,11.3-4.3v9.4c-8.3,0.1-10.1,3.3-10.1,8.9v17.5h-9.8V91.2z"/>
	<path fill="#17479E" d="M477.2,115.7c0-10,7-12.4,22.7-12.4h1.4c-0.1-3.2-0.9-4.8-7-4.8c-4.3,0-8.1,1.6-10.3,2.9l-4.9-7.2
		c2.5-1.7,8.8-4.3,16.2-4.3c12.8,0,15.4,4.1,15.4,14.1v10.8c0,2.8,0.2,3.3,3.1,3.3v8c-0.7,0.2-1.9,0.2-4.1,0.2
		c-3.8,0-5.4-0.8-6.8-3.5c-1.8,2.4-5.8,3.9-12.5,3.9C479.6,126.6,477.2,121.9,477.2,115.7z M501.4,111.3V110h-0.8
		c-12.5,0-14,1-14,4.8c0,2.6,1.4,3.9,6,3.9C498.7,118.7,501.4,116.5,501.4,111.3z"/>
	<path fill="#17479E" d="M530.2,122.2l5-7.2c3.7,2.4,8.5,3.7,12.5,3.7c4.9,0,6.4-0.5,6.4-2.9c0-2.1-1.4-2.5-6.3-3.1
		c-8.8-1.2-15.5-2.4-15.5-11.7c0-7.2,4.3-11.1,15.5-11.1c5.7,0,11.2,1.1,15,3.3l-4.7,7.6c-2.5-1.3-6.4-2.3-10-2.3c-5,0-6,0.9-6,2.6
		c0,2,1.3,2.4,5.8,3.1c9,1.3,15.7,2.3,15.7,11.1c0,8.1-4.4,11.5-16.6,11.5C541,126.6,534.9,125.4,530.2,122.2z"/>
	<path fill="#17479E" d="M569.1,109.5V90.6h9.8v19.1c0,4.9,0.1,8.4,7.1,8.4c7,0,7.1-3.5,7.1-8.5v-19h9.6v18.9
		c0,12.2-3.3,17.2-16.8,17.2C572.5,126.6,569.1,121.7,569.1,109.5z"/>
	<path fill="#17479E" d="M623.7,109.5V90.6h9.8v19.1c0,4.9,0.1,8.4,7.1,8.4c7,0,7.1-3.5,7.1-8.5v-19h9.6v18.9
		c0,12.2-3.3,17.2-16.8,17.2C627.1,126.6,623.7,121.7,623.7,109.5z"/>
	<path fill="#17479E" d="M661.7,122.2l5-7.2c3.7,2.4,8.5,3.7,12.5,3.7c4.9,0,6.4-0.5,6.4-2.9c0-2.1-1.4-2.5-6.3-3.1
		c-8.8-1.2-15.5-2.4-15.5-11.7c0-7.2,4.3-11.1,15.5-11.1c5.7,0,11.2,1.1,15,3.3l-4.7,7.6c-2.5-1.3-6.4-2.3-10-2.3c-5,0-6,0.9-6,2.6
		c0,2,1.3,2.4,5.8,3.1c9,1.3,15.7,2.3,15.7,11.1c0,8.1-4.4,11.5-16.6,11.5C672.6,126.6,666.5,125.4,661.7,122.2z"/>
	<path fill="#17479E" d="M699.1,108.3c0-11.9,5.2-18.5,18.5-18.5c13.3,0,18.5,6.6,18.5,18.5s-5.1,18.5-18.5,18.5
		C704.3,126.7,699.1,120.2,699.1,108.3z M726.3,108.5c0-6-1.9-9.8-8.6-9.8c-6.8,0-8.6,3.8-8.6,9.8c0,6,1.8,9.8,8.6,9.8
		C724.4,118.3,726.3,114.5,726.3,108.5z"/>
	<path fill="#17479E" d="M141.9,183.4c0-9.9,3.3-18.5,18.4-18.5c15.6,0,16.1,10.4,15.8,22.2h-24.7c0.6,4.3,2.6,6.8,9,6.8
		c5.5,0,8.5-1.3,11.1-3.3l4.9,6.4c-4.6,3.4-9.1,4.8-16.1,4.8C145,201.9,141.9,193.5,141.9,183.4z M151.4,180.2h15.7
		c-0.3-4.1-1.1-7-7.1-7C153.9,173.2,151.9,175.9,151.4,180.2z"/>
	<path fill="#17479E" d="M182.4,166.3l7.6-0.6l0.8,3.1c1.9-2.1,5.3-3.9,12.8-3.9c10.7,0,12.7,6,12.7,14.8v21.5h-9.8v-19.5
		c0-4.3-0.5-7.5-6.5-7.5c-6.8,0-8,3.2-8,7.9v19.1h-9.8V166.3z"/>
	<path fill="#17479E" d="M237.4,166.3l7.6-0.6l0.8,3.1c1.6-2.1,5.3-3.9,12.5-3.9c7.8,0,9.2,1.8,10.3,4c1.8-2.3,5.7-4,13.2-4
		c10.7,0,12.4,6,12.4,14.8v21.5h-9.9v-19.5c0-4.3-0.1-7.5-6-7.5c-6.8,0-7.6,3.2-7.6,7.9v19.1h-9.8v-19.5c0-4.3-0.1-7.5-6.1-7.5
		c-6.8,0-7.6,3.2-7.6,7.9v19.1h-9.8V166.3z"/>
	<path fill="#17479E" d="M300.1,183.4c0-11.9,5.2-18.5,18.5-18.5s18.5,6.6,18.5,18.5s-5.1,18.5-18.5,18.5S300.1,195.3,300.1,183.4z
		 M327.2,183.7c0-6-1.9-9.8-8.6-9.8c-6.8,0-8.6,3.8-8.6,9.8c0,6,1.8,9.8,8.6,9.8C325.4,193.5,327.2,189.7,327.2,183.7z"/>
	<path fill="#17479E" d="M343.2,166.3l7.6-0.6l0.8,3.1c1.9-2.1,5.3-3.9,12.8-3.9c10.7,0,12.7,6,12.7,14.8v21.5h-9.8v-19.5
		c0-4.3-0.5-7.5-6.5-7.5c-6.8,0-8,3.2-8,7.9v19.1h-9.8V166.3z"/>
	<path fill="#17479E" d="M383.1,183.4c0-11.9,5.2-18.5,18.5-18.5c13.3,0,18.5,6.6,18.5,18.5s-5.1,18.5-18.5,18.5
		C388.3,201.9,383.1,195.3,383.1,183.4z M410.2,183.7c0-6-1.9-9.8-8.6-9.8c-6.8,0-8.6,3.8-8.6,9.8c0,6,1.8,9.8,8.6,9.8
		C408.4,193.5,410.2,189.7,410.2,183.7z"/>
	<path fill="#17479E" d="M423.8,165.8h6.3l1.7-8.6l7.6-1.6v10.2h8.4v8.4h-8.4v14.6c0,2.8,0.4,4.3,4.6,4.3h3.8v8.2
		c-1.4,0.1-4.1,0.1-5.8,0.1c-9.6,0-12.3-3.3-12.3-11.1v-16h-5.8V165.8z"/>
	<path fill="#17479E" d="M451.8,183.4c0-9.9,3.3-18.5,18.4-18.5c15.6,0,16.1,10.4,15.8,22.2h-24.7c0.6,4.3,2.6,6.8,9,6.8
		c5.5,0,8.5-1.3,11.1-3.3l4.9,6.4c-4.6,3.4-9.1,4.8-16.1,4.8C454.9,201.9,451.8,193.5,451.8,183.4z M461.3,180.2H477
		c-0.3-4.1-1.1-7-7.1-7C463.8,173.2,461.8,175.9,461.3,180.2z"/>
	<path fill="#17479E" d="M492.3,166.3l7.6-0.6l1,3.9c1.5-2.3,5.8-4.1,11.3-4.3v9.4c-8.3,0.1-10.1,3.3-10.1,8.9v17.5h-9.8V166.3z"/>
	<path fill="#17479E" d="M513.9,190.8c0-10,7-12.4,22.7-12.4h1.4c-0.1-3.2-0.9-4.8-7-4.8c-4.3,0-8.1,1.6-10.3,2.9l-4.9-7.2
		c2.5-1.7,8.8-4.3,16.2-4.3c12.8,0,15.4,4.1,15.4,14.1v10.8c0,2.8,0.2,3.3,3.1,3.3v8c-0.7,0.2-1.9,0.2-4.1,0.2
		c-3.8,0-5.4-0.8-6.8-3.5c-1.8,2.4-5.8,3.9-12.5,3.9C516.3,201.8,513.9,197,513.9,190.8z M538.1,186.5v-1.3h-0.8
		c-12.5,0-14,1-14,4.8c0,2.6,1.4,3.9,6,3.9C535.4,193.9,538.1,191.7,538.1,186.5z"/>
	<path fill="#17479E" d="M556.6,166.3l7.6-0.6l0.8,3.1c1.9-2.3,5.4-3.9,13-3.9c12.2,0,15.2,8.3,15.2,18.5s-3.2,18.4-15.7,18.4
		c-6.4,0-9.4-1.3-11-3.3v13.1h-9.8V166.3z M583.3,183.8c0-5.7-1.3-9.9-7.7-9.9c-6.8,0-9.1,3.1-9.1,9.9c0,6.8,1.9,9.6,9.1,9.6
		C581.9,193.5,583.3,189.4,583.3,183.8z"/>
	<path fill="#17479E" d="M599.6,153.6h9.9v9h-9.9V153.6z M599.7,165.8h9.8v35.5h-9.8V165.8z"/>
	<path fill="#17479E" d="M615.3,190.8c0-10,7-12.4,22.7-12.4h1.4c-0.1-3.2-0.9-4.8-7-4.8c-4.3,0-8.1,1.6-10.3,2.9l-4.9-7.2
		c2.5-1.7,8.8-4.3,16.2-4.3c12.8,0,15.4,4.1,15.4,14.1v10.8c0,2.8,0.2,3.3,3.1,3.3v8c-0.7,0.2-1.9,0.2-4.1,0.2
		c-3.8,0-5.4-0.8-6.8-3.5c-1.8,2.4-5.8,3.9-12.5,3.9C617.7,201.8,615.3,197,615.3,190.8z M639.5,186.5v-1.3h-0.8
		c-12.5,0-14,1-14,4.8c0,2.6,1.4,3.9,6,3.9C636.8,193.9,639.5,191.7,639.5,186.5z"/>
	<path fill="#17479E" d="M119.1,286.9v-7.4h2.6c3.9,0,4.9-0.6,5.5-2.6l0.4-1.3l-13.5-34.6h10.6l8.2,22.5l8-22.5h10l-14.2,37
		c-2.4,6.6-5.4,9.1-14,9.1C121.9,287,120.2,287,119.1,286.9z"/>
	<path fill="#17479E" d="M165.8,240.9h6.3l1.7-8.6l7.6-1.6v10.2h8.4v8.4h-8.4v14.6c0,2.8,0.4,4.3,4.6,4.3h3.8v8.2
		c-1.4,0.1-4.1,0.1-5.8,0.1c-9.6,0-12.3-3.3-12.3-11.1v-16h-5.8V240.9z"/>
	<path fill="#17479E" d="M193.8,258.6c0-9.9,3.3-18.5,18.4-18.5c15.6,0,16.1,10.4,15.8,22.2h-24.7c0.6,4.3,2.6,6.8,9,6.8
		c5.5,0,8.5-1.3,11.1-3.3l4.9,6.4c-4.6,3.4-9.1,4.8-16.1,4.8C196.9,277.1,193.8,268.7,193.8,258.6z M203.3,255.4H219
		c-0.3-4.1-1.1-7-7.1-7C205.8,248.3,203.8,251,203.3,255.4z"/>
	<path fill="#17479E" d="M234.3,241.5l7.6-0.6l1,3.9c1.5-2.3,5.8-4.1,11.3-4.3v9.4c-8.3,0.1-10.1,3.3-10.1,8.9v17.5h-9.8V241.5z"/>
	<path fill="#17479E" d="M255.9,266c0-10,7-12.4,22.7-12.4h1.4c-0.1-3.2-0.9-4.8-7-4.8c-4.3,0-8.1,1.6-10.3,2.9l-4.9-7.2
		c2.5-1.7,8.8-4.3,16.2-4.3c12.8,0,15.4,4.1,15.4,14.1V265c0,2.8,0.2,3.3,3.1,3.3v8c-0.7,0.2-1.9,0.2-4.1,0.2
		c-3.8,0-5.4-0.8-6.8-3.5c-1.8,2.4-5.8,3.9-12.5,3.9C258.3,277,255.9,272.2,255.9,266z M280.1,261.7v-1.3h-0.8c-12.5,0-14,1-14,4.8
		c0,2.6,1.4,3.9,6,3.9C277.4,269.1,280.1,266.9,280.1,261.7z"/>
	<path fill="#17479E" d="M298.7,241.5l7.6-0.6l0.8,3.1c1.9-2.3,5.4-3.9,13-3.9c12.2,0,15.2,8.3,15.2,18.5c0,10.2-3.2,18.4-15.7,18.4
		c-6.4,0-9.4-1.3-11-3.3v13.1h-9.8V241.5z M325.3,259c0-5.7-1.3-9.9-7.7-9.9c-6.8,0-9.1,3.1-9.1,9.9c0,6.8,1.9,9.6,9.1,9.6
		C323.9,268.6,325.3,264.6,325.3,259z"/>
	<path fill="#17479E" d="M341.6,228.7h9.9v9h-9.9V228.7z M341.7,240.9h9.8v35.5h-9.8V240.9z"/>
	<path fill="#17479E" d="M357.3,266c0-10,7-12.4,22.7-12.4h1.4c-0.1-3.2-0.9-4.8-7-4.8c-4.3,0-8.1,1.6-10.3,2.9l-4.9-7.2
		c2.5-1.7,8.8-4.3,16.2-4.3c12.8,0,15.4,4.1,15.4,14.1V265c0,2.8,0.2,3.3,3.1,3.3v8c-0.7,0.2-1.9,0.2-4.1,0.2
		c-3.8,0-5.4-0.8-6.8-3.5c-1.8,2.4-5.8,3.9-12.5,3.9C359.7,277,357.3,272.2,357.3,266z M381.5,261.7v-1.3h-0.8c-12.5,0-14,1-14,4.8
		c0,2.6,1.4,3.9,6,3.9C378.8,269.1,381.5,266.9,381.5,261.7z"/>
	<path fill="#17479E" d="M411.2,266c0-10,7-12.4,22.7-12.4h1.4c-0.1-3.2-0.9-4.8-7-4.8c-4.3,0-8.1,1.6-10.3,2.9l-4.9-7.2
		c2.5-1.7,8.8-4.3,16.2-4.3c12.8,0,15.4,4.1,15.4,14.1V265c0,2.8,0.2,3.3,3.1,3.3v8c-0.7,0.2-1.9,0.2-4.1,0.2
		c-3.8,0-5.4-0.8-6.8-3.5c-1.8,2.4-5.8,3.9-12.5,3.9C413.6,277,411.2,272.2,411.2,266z M435.4,261.7v-1.3h-0.8c-12.5,0-14,1-14,4.8
		c0,2.6,1.4,3.9,6,3.9C432.7,269.1,435.4,266.9,435.4,261.7z"/>
	<path fill="#17479E" d="M451.9,258.5c0-10.1,3.3-18.4,15.7-18.4c6.5,0,9.5,1.4,11,3.3v-15.7h9.8V276l-7.5,0.7l-1-3.6
		c-2.1,2.5-5.8,3.9-12.7,3.9C455.1,277.1,451.9,268.7,451.9,258.5z M478.6,258.5c0-6.7-1.9-9.5-9-9.5c-6.5,0-7.8,3.9-7.8,9.5
		c0,5.7,1.3,10.1,7.8,10.1C476.4,268.6,478.6,265.3,478.6,258.5z"/>
	<path fill="#17479E" d="M492.5,279.5h0.8c3,0,3.3-0.9,3.3-4.6v-34h9.8v34c0,9.6-2.4,12.1-12,12.1h-1.8V279.5z M496.5,228.7h9.9v9
		h-9.9V228.7z"/>
	<path fill="#17479E" d="M514.4,259.9v-18.9h9.8V260c0,4.9,0.1,8.4,7.1,8.4c7,0,7.1-3.5,7.1-8.5v-19h9.6v18.9
		c0,12.2-3.3,17.2-16.8,17.2C517.8,277,514.4,272,514.4,259.9z"/>
	<path fill="#17479E" d="M555.7,241.5l7.6-0.6l0.8,3.1c1.9-2.1,5.3-3.9,12.8-3.9c10.7,0,12.7,6,12.7,14.8v21.5h-9.8v-19.5
		c0-4.3-0.5-7.5-6.5-7.5c-6.8,0-8,3.2-8,7.9v19.1h-9.8V241.5z"/>
	<path fill="#17479E" d="M595,240.9h6.3l1.7-8.6l7.6-1.6v10.2h8.4v8.4h-8.4v14.6c0,2.8,0.4,4.3,4.6,4.3h3.8v8.2
		c-1.4,0.1-4.1,0.1-5.8,0.1c-9.6,0-12.3-3.3-12.3-11.1v-16H595V240.9z"/>
	<path fill="#17479E" d="M623.1,266c0-10,7-12.4,22.7-12.4h1.4c-0.1-3.2-0.9-4.8-7-4.8c-4.3,0-8.1,1.6-10.3,2.9l-4.9-7.2
		c2.5-1.7,8.8-4.3,16.2-4.3c12.8,0,15.4,4.1,15.4,14.1V265c0,2.8,0.2,3.3,3.1,3.3v8c-0.7,0.2-1.9,0.2-4.1,0.2
		c-3.8,0-5.4-0.8-6.8-3.5c-1.8,2.4-5.8,3.9-12.5,3.9C625.5,277,623.1,272.2,623.1,266z M647.3,261.7v-1.3h-0.8c-12.5,0-14,1-14,4.8
		c0,2.6,1.4,3.9,6,3.9C644.6,269.1,647.3,266.9,647.3,261.7z"/>
	<path fill="#17479E" d="M665.4,265.1h11.4v11.3h-11.4V265.1z"/>
</g>
</svg>
