<?xml version="1.0" encoding="utf-8"?>
<!-- Generator: Adobe Illustrator 25.0.0, SVG Export Plug-In . SVG Version: 6.00 Build 0)  -->
<svg version="1.1" id="Layer_1" xmlns="http://www.w3.org/2000/svg" xmlns:xlink="http://www.w3.org/1999/xlink" x="0px" y="0px"
	 viewBox="0 0 1032.6 650.3" style="enable-background:new 0 0 1032.6 650.3;" xml:space="preserve">
<style type="text/css">
	.st0{fill:url(#SVGID_1_);}
	.st1{fill:#812990;}
	.st2{fill:#FFFFFF;}
	.st3{font-family:'Antenna-Bold';}
	.st4{font-size:51.9716px;}
	.st5{opacity:0.6;fill:#0D6EA2;}
	.st6{fill:#202326;}
	.st7{fill:none;stroke:#000000;stroke-width:1.549;stroke-miterlimit:10;}
	.st8{fill:url(#SVGID_2_);}
	.st9{fill:url(#SVGID_3_);}
	.st10{fill:url(#SVGID_4_);}
	.st11{fill:#44C8F5;}
	.st12{font-size:34.5171px;}
	.st13{fill:url(#SVGID_5_);}
	.st14{fill:#F0F0F1;}
	.st15{fill:#0D4BA0;}
</style>
<g>
	<g>
		<g>
			<linearGradient id="SVGID_1_" gradientUnits="userSpaceOnUse" x1="220.2752" y1="114.3109" x2="338.0567" y2="114.3109">
				<stop  offset="0" style="stop-color:#ECECED"/>
				<stop  offset="1" style="stop-color:#FFFFFF"/>
			</linearGradient>
			<path class="st0" d="M334.1,114.3c3.2-4,4.6-9.1,3.6-14.2c-1-5.3-4.2-9.8-8.9-12.4c1.5-5.3,0.5-11-2.8-15.5
				c-3.3-4.4-8.6-7.1-14.2-7.1c-0.8,0-1.6,0-2.4,0.1c-2.7-6.4-9.1-10.8-16.3-10.8c-5.7,0-10.8,2.7-14,6.9c-3.2-4.2-8.3-6.9-14.1-6.9
				c-7.2,0-13.6,4.4-16.3,10.8c-0.8-0.1-1.6-0.1-2.4-0.1c-5.6,0-10.8,2.6-14.2,7.1c-3.4,4.5-4.3,10.3-2.8,15.5
				c-4.6,2.5-7.9,7-8.9,12.3c-0.9,5.1,0.4,10.3,3.6,14.3c-3.2,4-4.6,9.1-3.6,14.2c1,5.3,4.2,9.8,8.9,12.4c-1.5,5.3-0.5,11,2.8,15.5
				c3.3,4.4,8.6,7.1,14.2,7.1c0.8,0,1.6-0.1,2.4-0.1c2.7,6.4,9.1,10.8,16.3,10.8c5.7,0,10.8-2.7,14.1-6.9c3.2,4.2,8.3,6.9,14,6.9
				c7.2,0,13.6-4.4,16.3-10.8c0.8,0.1,1.6,0.2,2.4,0.2c5.6,0,10.8-2.6,14.2-7.1c3.4-4.5,4.4-10.3,2.8-15.5c4.6-2.5,7.9-7,8.9-12.4
				C338.7,123.5,337.3,118.3,334.1,114.3"/>
			<path class="st1" d="M334.1,114.3c3.2-4,4.6-9.1,3.6-14.3c-1-5.3-4.2-9.8-8.9-12.4c1.5-5.3,0.5-11-2.8-15.5
				c-3.3-4.4-8.6-7.1-14.2-7.1c-0.8,0-1.6,0-2.3,0.1c-2.7-6.4-9.1-10.8-16.3-10.8c-5.7,0-10.8,2.7-14,6.9c-3.2-4.2-8.3-6.9-14.1-6.9
				c-7.2,0-13.6,4.4-16.3,10.8c-0.8-0.1-1.6-0.1-2.4-0.1c-5.6,0-10.8,2.6-14.2,7.1c-3.4,4.5-4.4,10.3-2.9,15.5
				c-4.6,2.5-7.9,7-8.9,12.4c-0.9,5.1,0.4,10.3,3.6,14.3c-3.2,4-4.6,9.1-3.6,14.2c1,5.3,4.2,9.8,8.9,12.4c-1.5,5.3-0.5,11,2.8,15.5
				c3.3,4.4,8.6,7.1,14.2,7.1c0.8,0,1.6-0.1,2.4-0.2c2.7,6.4,9.1,10.8,16.3,10.8c5.7,0,10.8-2.7,14.1-6.9c3.2,4.2,8.3,6.9,14,6.9
				c7.2,0,13.6-4.4,16.3-10.8c0.8,0.1,1.6,0.2,2.4,0.2c5.6,0,10.8-2.6,14.2-7.1c3.4-4.5,4.3-10.3,2.8-15.5c4.6-2.5,7.9-7,8.9-12.3
				C338.7,123.5,337.3,118.3,334.1,114.3 M275.5,156.5c0,5.7-4.7,10.4-10.4,10.4c-5,0-9.3-3.5-10.2-8.4l0-0.2
				c-0.1-0.6-0.1-1.2-0.1-1.7c0-1.7,0.4-3.3,1.2-4.8c2.8,1.7,5.9,2.6,9.2,2.6V147c-2.8,0-5.4-1.1-7.3-3c-2-2-3-4.6-3-7.3h-7.3
				c0,3.6,1.1,7,3.1,9.9c-1.9,2.8-3,6.2-3.1,9.7c-0.3,0-0.6,0-0.9,0c-3.3,0-6.3-1.5-8.3-4.2c-2.4-3.2-2.8-7.6-0.8-11.2l0.9-1.6
				l-1.5-3.4l-1.6-0.5c-3.8-1.1-6.6-4.2-7.3-8.1c-0.6-3.4,0.5-6.9,3-9.3h17c0.7,3.3,2.3,6.4,4.8,8.9c3.2,3.2,7.7,5.2,12.5,5.2h10.4
				V156.5z M275.5,124.7h-10.4c-5.5,0-10.1-4.3-10.4-9.8v0c0-0.2,0-0.4,0-0.5c0-2.8,1.1-5.4,3.1-7.3l-5.2-5.2
				c-2.5,2.5-4.1,5.5-4.8,8.9h-17c-2.4-2.4-3.6-5.9-3-9.3c0.7-3.9,3.5-7,7.3-8.1l1.6-0.5l1.5-3.4l-0.9-1.6c-2-3.6-1.7-8,0.8-11.2
				c2-2.6,5-4.2,8.3-4.2c0.3,0,0.6,0,1,0c0.1,3.5,1.1,6.8,3.1,9.7c-2,2.9-3.1,6.3-3.1,9.9l7.3,0c0-2.8,1.1-5.4,3-7.3
				c2-2,4.6-3,7.3-3v-7.3c-3.3,0-6.5,0.9-9.2,2.6c-0.8-1.5-1.2-3.1-1.2-4.8c0-0.6,0.1-1.2,0.1-1.7l0-0.3c0.9-4.9,5.2-8.4,10.2-8.4
				c5.7,0,10.4,4.7,10.4,10.4V124.7z M282.8,72.2c0-5.7,4.7-10.4,10.4-10.4c5,0,9.3,3.5,10.2,8.4l0,0.3c0.1,0.6,0.1,1.2,0.1,1.7
				c0,1.7-0.4,3.3-1.2,4.8c-2.8-1.7-5.9-2.6-9.2-2.6v7.3c2.8,0,5.4,1.1,7.3,3c2,1.9,3,4.6,3,7.3l7.3,0c0-3.6-1.1-7-3-9.9
				c1.9-2.9,3-6.2,3.1-9.7c0.3,0,0.6,0,0.9,0c3.3,0,6.3,1.5,8.3,4.2c2.4,3.2,2.7,7.7,0.8,11.2l-0.9,1.6l0.7,1.7l0.7,1.7l1.7,0.5
				c3.8,1.1,6.6,4.2,7.3,8.1c0.6,3.4-0.5,6.9-3,9.3h-17c-0.7-3.3-2.3-6.4-4.8-8.9c-3.2-3.2-7.7-5.2-12.5-5.2h-10.4V72.2z
				 M330.6,127.2c-0.7,3.9-3.5,7-7.3,8.1l-1.6,0.5l-1.5,3.4l0.9,1.6c2,3.6,1.6,8-0.8,11.2c-2,2.6-5,4.2-8.3,4.2c-0.3,0-0.6,0-1,0
				c-0.1-3.5-1.1-6.8-3.1-9.6c2-2.9,3-6.4,3-9.9h-7.3c0,2.8-1.1,5.4-3,7.3c-2,2-4.6,3-7.3,3v7.3c3.3,0,6.5-0.9,9.2-2.6
				c0.8,1.4,1.2,3.1,1.2,4.8c0,0.6,0,1.2-0.1,1.7l0,0.2c-0.9,4.9-5.2,8.4-10.2,8.4c-5.7,0-10.4-4.7-10.4-10.4v-52.5h10.4
				c5.5,0,10.1,4.3,10.4,9.8c0,0,0,0,0,0.1c0,0.2,0,0.4,0,0.5c0,2.8-1.1,5.4-3,7.3l5.2,5.2c2.5-2.5,4.1-5.5,4.8-8.9h17
				C330,120.4,331.2,123.9,330.6,127.2"/>
		</g>
		<ellipse class="st2" cx="278.5" cy="112.3" rx="33.5" ry="32.3"/>
	</g>
	<g>
		<text transform="matrix(1 0 0 1 266.6102 130.7939)" class="st1 st3 st4">3</text>
	</g>
</g>
<path class="st5" d="M516,191.3c0,0-94-1.5-134.1,61.5c-40.2,63-15.6,98.2-31.2,125.2c-15.6,27-40.7,56.5-36.4,66
	c4.2,9.4,35.5-2,34.2,9.2c-1.2,11.2-7.9,21.2-1.2,24.4c6.7,3.2,12.5,2.2,10.8,3.1c-1.7,0.9-7.2,6.2-4.5,12c2.7,5.8,18.7,5,18.5,10.9
	c-0.2,6-7.9,27.5-1.2,42.5c6.7,15,35.8,17.1,66.5,5c30.7-12.1,43.7-11.2,43.9,13.9c0.2,25.1-3.5,108.2,80.9,31.6
	c84.4-76.6,78.8-61,78.1-91.1c-0.7-30.1-5.2-65.8,16.7-103.4c21.9-37.6,23.8-108.6-14.5-155.5C604,199.8,550.7,193.1,516,191.3z"/>
<g>
	<path class="st2" d="M647.3,354.3c1.3-5.5,1.1-11.3,0.8-16.9c-0.1-2.9-0.2-6.4-1.1-9.5c-1.1,1.8-2.4,3.6-3.6,5.3
		c-3,4.2-10,0.1-7-4.1c3.8-5.2,7.5-10.7,9.3-17c1.8-6.3,2-12.9,1.4-19.4c-1.1-12.8-4.3-27-11.4-37.8c-6.6-10.2-17.2-19.5-28.4-24.3
		c-5.6-2.4-11.4-3.1-17.4-2.4c-4.3,0.6-10.2,1.4-13.3,4.6c-0.6,0.6-1.2,0.9-1.8,1.1c-1.7,0.9-3.8,0.6-4.8-1.7
		c-2.7-6.2-7.8-11.1-13.2-15c-5-3.5-10.5-7.7-16.5-9.3c-11.4-3.1-24.4-1.7-36-0.2c-11.7,1.5-24.5,4.6-33.9,12.2
		c-1.4,1.2-3.1,2.5-4.8,4c-0.4,0.7-1,1.3-1.8,1.6c-5.8,5.5-11.4,12.5-10,19.7c1,5.1-6.8,7.2-7.8,2.1c-1.5-7.5,1.4-14.4,5.8-20.4
		c-15.5,2.5-31.3,8.7-42.9,18.7c-13.1,11.4-21.6,28.5-13.4,45.3c2.3,4.7-4.7,8.8-7,4.1c-2.2-4.6-3.5-9.3-4-14
		c-7,6-11.4,14.6-12.3,23.9c-1.2,12-0.4,24.3,5.5,35.1c4.4,8.2,10.8,15.4,19.4,19.3c7.6,3.4,19.4,5.5,27.4,1.7
		c-9.1-9.3-11.9-23-10.8-35.9c1.4-15.9,8.5-30.2,21.9-39.1c2.6-7.3,7.8-25.2-2.2-26.9c-5.1-0.9-2.9-8.7,2.1-7.8
		c13.1,2.3,12.7,17.5,10,29.2c11.2-5.1,25.3-8.5,35.4-1.6c4.3,2.9,0.2,9.9-4.1,7c-5.5-3.8-12.8-2.8-18.9-1.1c-6,1.7-12,4-17.2,7.5
		c-11.4,7.6-18.1,19.2-19,32.8c-0.8,10.9,0.7,24,9.7,31.5c9.1,7.5,24.6,7.3,32.5-2c3.4-4,9,1.8,5.7,5.7c-8,9.6-23.2,12.1-34.9,7.5
		c0.9,2.2,1.9,4.3,3.7,5.9c3.1,2.9,6.8,4.8,10.6,6.6c7.9,4,17.9,5.5,26.5,2.7c13.7-4.4,22.3-15.4,23.1-29.6c-5.2-1.3-9.9-4-12.3-9.3
		c-2.1-4.7,4.9-8.8,7-4.1c2.5,5.7,8.8,6.3,14.4,6.6c7.2,0.3,13.6-1.5,19.6-5.3c0.4-0.4,0.9-0.8,1.4-1.1c15-11.7,36.5-14.1,54.7-10.4
		c17.2,3.4,36,14.3,38.3,33.4c0.3,2.8,0.3,5.7-0.1,8.5c5,0.3,10.3-0.2,14.6-2.7C641.5,366.1,645.8,360.5,647.3,354.3z M545.6,275.8
		c10.9-7.2,15.9-17.1,19.3-29.3c1.4-5,9.2-2.9,7.8,2.1c-4,14.1-10.3,26.1-23,34.1c-12.7,7.9-27.4,10.7-42.2,10.8c-5.2,0-5.2-8,0-8.1
		C520.7,285.4,534.4,283.2,545.6,275.8z M481,240.6c-1.1-5.1,6.7-7.2,7.8-2.1c1.9,9.1,7.2,15.1,16.6,16.5c8.5,1.3,20.4,0,21.5-10.6
		c0.5-5.1,8.6-5.2,8.1,0c-1.5,14.7-15.1,20.5-28.6,18.8C493.1,261.5,483.8,253.9,481,240.6z M578.1,319.9c-4-1.8-7.9-4.2-12.2-5.4
		c-4-1.2-8.2-1.6-12.4-1.8c-7.8-0.4-15.8-0.4-23.5,1.2c-6.3,1.4-12.2,3.6-18.2,6c-3.8,1.6-9.9,3.6-11.7,7.7c-2,4.8-9,0.7-7-4.1
		c2.4-5.6,9.5-8.5,14.7-10.7c6.5-2.7,13.1-5.4,20-6.7c9.4-1.8,19.2-2.2,28.7-1.3c4.8,0.5,9.7,1,14.1,2.9c3.9,1.6,7.6,3.5,11.4,5.2
		C586.9,315.1,582.8,322.1,578.1,319.9z"/>
	<path class="st2" d="M605,349c-13.9-12.6-36.6-14.8-54.2-10.1c-6.2,1.7-13.2,4.4-18.3,8.8c-0.3,0.4-0.6,0.7-1.1,1
		c-1.7,1.6-3.1,3.5-4.2,5.5c-2.3,4.5-3.2,10-0.4,14.5c1.5,2.3,3.5,4.8,6,6.4c0.1,0,0.3,0.1,0.4,0.1c0.7,0.3,1.5,0.6,2.2,0.9
		c9.8,2.8,19.6-2.1,29.6-1.7c5.3,0.2,10.1,1.5,14.6,4.4c3.4,2.2,6.9,5.4,10.9,6.4c7.9,1.8,20-2.7,22.2-11.1
		C615.3,364.6,612.2,355.5,605,349z"/>
	<path class="st2" d="M557.1,404.3c-11.6-2.2-22.1-9-25.4-21c-6.8-3-12.9-9.3-14-16.3c-0.7-4.6-0.3-8.9,1.1-13
		c-3.9,0.9-8,1.3-12.1,1c-0.3,4.4-1.3,8.7-2.8,12.6c3.4,3.5,3.8,8.7,6.5,12.8c4.1,6.2,8.7,10,15.2,13.4c4.7,2.4,9.6,4.9,12.9,9.3
		c2.4,3.2,4,6.8,5.7,10.4c2.5,5.2,6.3,16,13.9,12.9C565,423.4,559.7,410.5,557.1,404.3z"/>
	<path class="st2" d="M574.3,385c-4.4-2.4-9-2.9-14-2.3c-6.5,0.7-13,2.4-19.4,2.3c3.4,6.3,10.1,10.2,17.2,11.5
		C565.8,397.7,576.8,395,574.3,385C574.4,385,574.4,385,574.3,385z"/>
	<path class="st2" d="M513.5,395.9c-2.3-1.7-4.5-3.7-6.5-6.1c-2.2-2.8-4.4-5.7-5.8-9c-0.5-1.2-0.9-3.5-1.6-5.2
		c-5.2,7.8-13.2,13.6-23,16.1c-9.4,2.3-19.1,1.2-28-2.3c2,5.4,6.6,10.7,11.1,13.3c6.9,4.1,15,5.3,22.9,5.3
		C493.1,408,508.2,406.5,513.5,395.9z"/>
</g>
<g>
	<path class="st6" d="M596.5,315.3c0,4.7-3.8,8.5-8.5,8.5c-4.7,0-8.5-3.8-8.5-8.5c0-4.7,3.8-8.5,8.5-8.5
		C592.7,306.8,596.5,310.6,596.5,315.3z"/>
	
		<ellipse transform="matrix(0.2378 -0.9713 0.9713 0.2378 19.7342 673.6375)" class="st6" cx="439.1" cy="324.2" rx="8.5" ry="8.5"/>
	
		<ellipse transform="matrix(0.2378 -0.9713 0.9713 0.2378 166.2476 674.1526)" class="st6" cx="512.7" cy="231.1" rx="8.5" ry="8.5"/>
	<path class="st6" d="M572.7,356.9c0,4.7-3.8,8.5-8.5,8.5c-4.7,0-8.5-3.8-8.5-8.5c0-4.7,3.8-8.5,8.5-8.5
		C568.9,348.4,572.7,352.2,572.7,356.9z"/>
	<path class="st6" d="M479.1,373.5c0,4.7-3.8,8.5-8.5,8.5c-4.7,0-8.5-3.8-8.5-8.5c0-4.7,3.8-8.5,8.5-8.5
		C475.3,365.1,479.1,368.9,479.1,373.5z"/>
	<polyline class="st7" points="588,315.3 668.5,274.8 845.8,274.8 	"/>
	<path class="st6" d="M602.6,261.4c0,4.7-3.8,8.5-8.5,8.5c-4.7,0-8.5-3.8-8.5-8.5c0-4.7,3.8-8.5,8.5-8.5
		C598.8,252.9,602.6,256.7,602.6,261.4z"/>
	<polyline class="st7" points="594.1,261.4 640,136.9 684.3,136.9 	"/>
	<polyline class="st7" points="440.1,324.6 392.3,268.3 155.3,268.3 	"/>
	
		<ellipse transform="matrix(0.2378 -0.9713 0.9713 0.2378 101.114 643.4184)" class="st6" cx="460.5" cy="257.3" rx="8.5" ry="8.5"/>
	<polyline class="st7" points="461.5,257.7 410.3,142.6 326.3,142.6 	"/>
	<polyline class="st7" points="564.2,356.9 669.3,473.4 905.9,473.4 	"/>
	<polyline class="st7" points="470.7,374 365.6,469.7 121.8,469.7 	"/>
	<line class="st7" x1="512.7" y1="231.1" x2="512.7" y2="137.9"/>
</g>
<g>
	<g>
		<g>
			<linearGradient id="SVGID_2_" gradientUnits="userSpaceOnUse" x1="14.9276" y1="473.3448" x2="132.7091" y2="473.3448">
				<stop  offset="0" style="stop-color:#ECECED"/>
				<stop  offset="1" style="stop-color:#FFFFFF"/>
			</linearGradient>
			<path class="st8" d="M128.8,473.3c3.2-4,4.6-9.1,3.6-14.2c-1-5.3-4.2-9.8-8.9-12.4c1.5-5.3,0.5-11-2.8-15.5
				c-3.3-4.4-8.6-7.1-14.2-7.1c-0.8,0-1.6,0-2.4,0.1c-2.7-6.4-9.1-10.8-16.3-10.8c-5.7,0-10.8,2.7-14,6.9c-3.2-4.2-8.3-6.9-14.1-6.9
				c-7.2,0-13.6,4.4-16.3,10.8c-0.8-0.1-1.6-0.1-2.4-0.1c-5.6,0-10.8,2.6-14.2,7.1c-3.4,4.5-4.3,10.3-2.8,15.5
				c-4.6,2.5-7.9,7-8.9,12.3c-0.9,5.1,0.4,10.3,3.6,14.3c-3.2,4-4.6,9.1-3.6,14.2c1,5.3,4.2,9.8,8.9,12.4c-1.5,5.3-0.5,11,2.8,15.5
				c3.3,4.4,8.6,7.1,14.2,7.1c0.8,0,1.6-0.1,2.4-0.1c2.7,6.4,9.1,10.8,16.3,10.8c5.7,0,10.8-2.7,14.1-6.9c3.2,4.2,8.3,6.9,14,6.9
				c7.2,0,13.6-4.4,16.3-10.8c0.8,0.1,1.6,0.2,2.4,0.2c5.6,0,10.8-2.6,14.2-7.1c3.4-4.5,4.4-10.3,2.8-15.5c4.6-2.5,7.9-7,8.9-12.4
				C133.4,482.5,132,477.3,128.8,473.3"/>
			<path class="st1" d="M128.8,473.3c3.2-4,4.6-9.1,3.6-14.3c-1-5.3-4.2-9.8-8.9-12.4c1.5-5.3,0.5-11-2.8-15.5
				c-3.3-4.4-8.6-7.1-14.2-7.1c-0.8,0-1.6,0-2.3,0.1c-2.7-6.4-9.1-10.8-16.3-10.8c-5.7,0-10.8,2.7-14,6.9c-3.2-4.2-8.3-6.9-14.1-6.9
				c-7.2,0-13.6,4.4-16.3,10.8c-0.8-0.1-1.6-0.1-2.4-0.1c-5.6,0-10.8,2.6-14.2,7.1c-3.4,4.5-4.4,10.3-2.9,15.5
				c-4.6,2.5-7.9,7-8.9,12.4c-0.9,5.1,0.4,10.3,3.6,14.3c-3.2,4-4.6,9.1-3.6,14.2c1,5.3,4.2,9.8,8.9,12.4c-1.5,5.3-0.5,11,2.8,15.5
				c3.3,4.4,8.6,7.1,14.2,7.1c0.8,0,1.6-0.1,2.4-0.2c2.7,6.4,9.1,10.8,16.3,10.8c5.7,0,10.8-2.7,14.1-6.9c3.2,4.2,8.3,6.9,14,6.9
				c7.2,0,13.6-4.4,16.3-10.8c0.8,0.1,1.6,0.2,2.4,0.2c5.6,0,10.8-2.6,14.2-7.1c3.4-4.5,4.3-10.3,2.8-15.5c4.6-2.5,7.9-7,8.9-12.3
				C133.4,482.5,132,477.3,128.8,473.3 M70.1,515.5c0,5.7-4.7,10.4-10.4,10.4c-5,0-9.3-3.5-10.2-8.4l0-0.2c-0.1-0.6-0.1-1.2-0.1-1.7
				c0-1.7,0.4-3.3,1.2-4.8c2.8,1.7,5.9,2.6,9.2,2.6V506c-2.8,0-5.4-1.1-7.3-3c-2-2-3-4.6-3-7.3h-7.3c0,3.6,1.1,7,3.1,9.9
				c-1.9,2.8-3,6.2-3.1,9.7c-0.3,0-0.6,0-0.9,0c-3.3,0-6.3-1.5-8.3-4.2c-2.4-3.2-2.8-7.6-0.8-11.2l0.9-1.6l-1.5-3.4l-1.6-0.5
				c-3.8-1.1-6.6-4.2-7.3-8.1c-0.6-3.4,0.5-6.9,3-9.3h17c0.7,3.3,2.3,6.4,4.8,8.9c3.2,3.2,7.7,5.2,12.5,5.2h10.4V515.5z M70.1,483.7
				H59.8c-5.5,0-10.1-4.3-10.4-9.8v0c0-0.2,0-0.4,0-0.5c0-2.8,1.1-5.4,3.1-7.3l-5.2-5.2c-2.5,2.5-4.1,5.5-4.8,8.9h-17
				c-2.4-2.4-3.6-5.9-3-9.3c0.7-3.9,3.5-7,7.3-8.1l1.6-0.5l1.5-3.4l-0.9-1.6c-2-3.6-1.7-8,0.8-11.2c2-2.6,5-4.2,8.3-4.2
				c0.3,0,0.6,0,1,0c0.1,3.5,1.1,6.8,3.1,9.7c-2,2.9-3.1,6.3-3.1,9.9l7.3,0c0-2.8,1.1-5.4,3-7.3c2-2,4.6-3,7.3-3v-7.3
				c-3.3,0-6.5,0.9-9.2,2.6c-0.8-1.5-1.2-3.1-1.2-4.8c0-0.6,0.1-1.2,0.1-1.7l0-0.3c0.9-4.9,5.2-8.4,10.2-8.4
				c5.7,0,10.4,4.7,10.4,10.4V483.7z M77.5,431.2c0-5.7,4.7-10.4,10.4-10.4c5,0,9.3,3.5,10.2,8.4l0,0.3c0.1,0.6,0.1,1.2,0.1,1.7
				c0,1.7-0.4,3.3-1.2,4.8c-2.8-1.7-5.9-2.6-9.2-2.6v7.3c2.8,0,5.4,1.1,7.3,3c2,1.9,3,4.6,3,7.3l7.3,0c0-3.6-1.1-7-3-9.9
				c1.9-2.9,3-6.2,3.1-9.7c0.3,0,0.6,0,0.9,0c3.3,0,6.3,1.5,8.3,4.2c2.4,3.2,2.7,7.7,0.8,11.2l-0.9,1.6l0.7,1.7l0.7,1.7l1.7,0.5
				c3.8,1.1,6.6,4.2,7.3,8.1c0.6,3.4-0.5,6.9-3,9.3h-17c-0.7-3.3-2.3-6.4-4.8-8.9c-3.2-3.2-7.7-5.2-12.5-5.2H77.5V431.2z
				 M125.2,486.3c-0.7,3.9-3.5,7-7.3,8.1l-1.6,0.5l-1.5,3.4l0.9,1.6c2,3.6,1.6,8-0.8,11.2c-2,2.6-5,4.2-8.3,4.2c-0.3,0-0.6,0-1,0
				c-0.1-3.5-1.1-6.8-3.1-9.6c2-2.9,3-6.4,3-9.9h-7.3c0,2.8-1.1,5.4-3,7.3c-2,2-4.6,3-7.3,3v7.3c3.3,0,6.5-0.9,9.2-2.6
				c0.8,1.4,1.2,3.1,1.2,4.8c0,0.6,0,1.2-0.1,1.7l0,0.2c-0.9,4.9-5.2,8.4-10.2,8.4c-5.7,0-10.4-4.7-10.4-10.4V463h10.4
				c5.5,0,10.1,4.3,10.4,9.8c0,0,0,0,0,0.1c0,0.2,0,0.4,0,0.5c0,2.8-1.1,5.4-3,7.3l5.2,5.2c2.5-2.5,4.1-5.5,4.8-8.9h17
				C124.7,479.4,125.8,482.9,125.2,486.3"/>
		</g>
		<ellipse class="st2" cx="73.1" cy="471.3" rx="33.5" ry="32.3"/>
	</g>
	<g>
		<text transform="matrix(1 0 0 1 61.2655 489.831)" class="st1 st3 st4">1</text>
	</g>
</g>
<g>
	<g>
		<g>
			<linearGradient id="SVGID_3_" gradientUnits="userSpaceOnUse" x1="897.1453" y1="473.3448" x2="1014.9268" y2="473.3448">
				<stop  offset="0" style="stop-color:#ECECED"/>
				<stop  offset="1" style="stop-color:#FFFFFF"/>
			</linearGradient>
			<path class="st9" d="M1011,473.3c3.2-4,4.6-9.1,3.6-14.2c-1-5.3-4.2-9.8-8.9-12.4c1.5-5.3,0.5-11-2.8-15.5
				c-3.3-4.4-8.6-7.1-14.2-7.1c-0.8,0-1.6,0-2.4,0.1c-2.7-6.4-9.1-10.8-16.3-10.8c-5.7,0-10.8,2.7-14,6.9c-3.2-4.2-8.3-6.9-14.1-6.9
				c-7.2,0-13.6,4.4-16.3,10.8c-0.8-0.1-1.6-0.1-2.4-0.1c-5.6,0-10.8,2.6-14.2,7.1c-3.4,4.5-4.3,10.3-2.8,15.5
				c-4.6,2.5-7.9,7-8.9,12.3c-0.9,5.1,0.4,10.3,3.6,14.3c-3.2,4-4.6,9.1-3.6,14.2c1,5.3,4.2,9.8,8.9,12.4c-1.5,5.3-0.5,11,2.8,15.5
				c3.3,4.4,8.6,7.1,14.2,7.1c0.8,0,1.6-0.1,2.4-0.1c2.7,6.4,9.1,10.8,16.3,10.8c5.7,0,10.8-2.7,14.1-6.9c3.2,4.2,8.3,6.9,14,6.9
				c7.2,0,13.6-4.4,16.3-10.8c0.8,0.1,1.6,0.2,2.4,0.2c5.6,0,10.8-2.6,14.2-7.1c3.4-4.5,4.4-10.3,2.8-15.5c4.6-2.5,7.9-7,8.9-12.4
				C1015.6,482.5,1014.2,477.3,1011,473.3"/>
			<path class="st1" d="M1011,473.3c3.2-4,4.6-9.1,3.6-14.3c-1-5.3-4.2-9.8-8.9-12.4c1.5-5.3,0.5-11-2.8-15.5
				c-3.3-4.4-8.6-7.1-14.2-7.1c-0.8,0-1.6,0-2.3,0.1c-2.7-6.4-9.1-10.8-16.3-10.8c-5.7,0-10.8,2.7-14,6.9c-3.2-4.2-8.3-6.9-14.1-6.9
				c-7.2,0-13.6,4.4-16.3,10.8c-0.8-0.1-1.6-0.1-2.4-0.1c-5.6,0-10.8,2.6-14.2,7.1c-3.4,4.5-4.4,10.3-2.9,15.5
				c-4.6,2.5-7.9,7-8.9,12.4c-0.9,5.1,0.4,10.3,3.6,14.3c-3.2,4-4.6,9.1-3.6,14.2c1,5.3,4.2,9.8,8.9,12.4c-1.5,5.3-0.5,11,2.8,15.5
				c3.3,4.4,8.6,7.1,14.2,7.1c0.8,0,1.6-0.1,2.4-0.2c2.7,6.4,9.1,10.8,16.3,10.8c5.7,0,10.8-2.7,14.1-6.9c3.2,4.2,8.3,6.9,14,6.9
				c7.2,0,13.6-4.4,16.3-10.8c0.8,0.1,1.6,0.2,2.4,0.2c5.6,0,10.8-2.6,14.2-7.1c3.4-4.5,4.3-10.3,2.8-15.5c4.6-2.5,7.9-7,8.9-12.3
				C1015.6,482.5,1014.2,477.3,1011,473.3 M952.4,515.5c0,5.7-4.7,10.4-10.4,10.4c-5,0-9.3-3.5-10.2-8.4l0-0.2
				c-0.1-0.6-0.1-1.2-0.1-1.7c0-1.7,0.4-3.3,1.2-4.8c2.8,1.7,5.9,2.6,9.2,2.6V506c-2.8,0-5.4-1.1-7.3-3c-2-2-3-4.6-3-7.3h-7.3
				c0,3.6,1.1,7,3,9.9c-1.9,2.8-3,6.2-3.1,9.7c-0.3,0-0.6,0-0.9,0c-3.3,0-6.3-1.5-8.3-4.2c-2.4-3.2-2.8-7.6-0.8-11.2l0.9-1.6
				l-1.5-3.4l-1.6-0.5c-3.8-1.1-6.6-4.2-7.3-8.1c-0.6-3.4,0.5-6.9,3-9.3h17c0.7,3.3,2.3,6.4,4.8,8.9c3.2,3.2,7.7,5.2,12.5,5.2h10.4
				V515.5z M952.4,483.7H942c-5.5,0-10.1-4.3-10.4-9.8v0c0-0.2,0-0.4,0-0.5c0-2.8,1.1-5.4,3-7.3l-5.2-5.2c-2.5,2.5-4.1,5.5-4.8,8.9
				h-17c-2.4-2.4-3.6-5.9-3-9.3c0.7-3.9,3.5-7,7.3-8.1l1.6-0.5l1.5-3.4l-0.9-1.6c-2-3.6-1.7-8,0.8-11.2c2-2.6,5-4.2,8.3-4.2
				c0.3,0,0.6,0,1,0c0.1,3.5,1.1,6.8,3.1,9.7c-2,2.9-3,6.3-3,9.9l7.3,0c0-2.8,1.1-5.4,3-7.3c2-2,4.6-3,7.3-3v-7.3
				c-3.3,0-6.5,0.9-9.2,2.6c-0.8-1.5-1.2-3.1-1.2-4.8c0-0.6,0.1-1.2,0.1-1.7l0-0.3c0.9-4.9,5.2-8.4,10.2-8.4
				c5.7,0,10.4,4.7,10.4,10.4V483.7z M959.7,431.2c0-5.7,4.7-10.4,10.4-10.4c5,0,9.3,3.5,10.2,8.4l0,0.3c0.1,0.6,0.1,1.2,0.1,1.7
				c0,1.7-0.4,3.3-1.2,4.8c-2.8-1.7-5.9-2.6-9.2-2.6v7.3c2.8,0,5.4,1.1,7.3,3c2,1.9,3,4.6,3,7.3l7.3,0c0-3.6-1.1-7-3-9.9
				c1.9-2.9,3-6.2,3.1-9.7c0.3,0,0.6,0,0.9,0c3.3,0,6.3,1.5,8.3,4.2c2.4,3.2,2.7,7.7,0.8,11.2l-0.9,1.6l0.7,1.7l0.7,1.7l1.7,0.5
				c3.8,1.1,6.6,4.2,7.3,8.1c0.6,3.4-0.5,6.9-3,9.3h-17c-0.7-3.3-2.3-6.4-4.8-8.9c-3.2-3.2-7.7-5.2-12.5-5.2h-10.4V431.2z
				 M1007.4,486.3c-0.7,3.9-3.5,7-7.3,8.1l-1.6,0.5l-1.5,3.4l0.9,1.6c2,3.6,1.6,8-0.8,11.2c-2,2.6-5,4.2-8.3,4.2c-0.3,0-0.6,0-1,0
				c-0.1-3.5-1.1-6.8-3.1-9.6c2-2.9,3-6.4,3-9.9h-7.3c0,2.8-1.1,5.4-3,7.3c-2,2-4.6,3-7.3,3v7.3c3.3,0,6.5-0.9,9.2-2.6
				c0.8,1.4,1.2,3.1,1.2,4.8c0,0.6,0,1.2-0.1,1.7l0,0.2c-0.9,4.9-5.2,8.4-10.2,8.4c-5.7,0-10.4-4.7-10.4-10.4V463h10.4
				c5.5,0,10.1,4.3,10.4,9.8c0,0,0,0,0,0.1c0,0.2,0,0.4,0,0.5c0,2.8-1.1,5.4-3,7.3l5.2,5.2c2.5-2.5,4.1-5.5,4.8-8.9h17
				C1006.9,479.4,1008,482.9,1007.4,486.3"/>
		</g>
		<ellipse class="st2" cx="955.4" cy="471.3" rx="33.5" ry="32.3"/>
	</g>
	<g>
		<text transform="matrix(1 0 0 1 943.4872 489.831)" class="st1 st3 st4">7</text>
	</g>
</g>
<g>
	<g>
		<g>
			<linearGradient id="SVGID_4_" gradientUnits="userSpaceOnUse" x1="474.0248" y1="467.89" x2="552.2497" y2="467.89">
				<stop  offset="0" style="stop-color:#ECECED"/>
				<stop  offset="1" style="stop-color:#FFFFFF"/>
			</linearGradient>
			<path class="st10" d="M549.7,467.9c2.1-2.6,3-6.1,2.4-9.5c-0.6-3.5-2.8-6.5-5.9-8.2c1-3.5,0.3-7.3-1.9-10.3
				c-2.2-2.9-5.7-4.7-9.4-4.7c-0.5,0-1,0-1.6,0.1c-1.8-4.3-6-7.2-10.8-7.2c-3.8,0-7.2,1.8-9.3,4.6c-2.2-2.8-5.5-4.6-9.3-4.6
				c-4.8,0-9,2.9-10.8,7.2c-0.5-0.1-1-0.1-1.6-0.1c-3.7,0-7.2,1.7-9.4,4.7c-2.2,3-2.9,6.8-1.9,10.3c-3.1,1.7-5.2,4.7-5.9,8.2
				c-0.6,3.4,0.3,6.8,2.4,9.5c-2.1,2.6-3,6.1-2.4,9.5c0.6,3.5,2.8,6.5,5.9,8.2c-1,3.5-0.3,7.3,1.9,10.3c2.2,2.9,5.7,4.7,9.4,4.7
				c0.5,0,1,0,1.6-0.1c1.8,4.3,6,7.2,10.8,7.2c3.8,0,7.2-1.8,9.3-4.6c2.2,2.8,5.5,4.6,9.3,4.6c4.8,0,9-2.9,10.8-7.2
				c0.5,0.1,1,0.1,1.6,0.1c3.7,0,7.2-1.7,9.4-4.7c2.2-3,2.9-6.8,1.9-10.3c3.1-1.7,5.2-4.7,5.9-8.2
				C552.7,474,551.8,470.5,549.7,467.9"/>
			<path class="st11" d="M549.7,467.9c2.1-2.6,3-6.1,2.4-9.5c-0.6-3.5-2.8-6.5-5.9-8.2c1-3.5,0.3-7.3-1.9-10.3
				c-2.2-2.9-5.7-4.7-9.4-4.7c-0.5,0-1,0-1.6,0.1c-1.8-4.3-6-7.2-10.8-7.2c-3.8,0-7.2,1.8-9.3,4.6c-2.2-2.8-5.5-4.6-9.3-4.6
				c-4.8,0-9,2.9-10.8,7.2c-0.5-0.1-1-0.1-1.6-0.1c-3.7,0-7.2,1.7-9.4,4.7c-2.2,3-2.9,6.8-1.9,10.3c-3.1,1.7-5.2,4.7-5.9,8.2
				c-0.6,3.4,0.3,6.8,2.4,9.5c-2.1,2.6-3,6.1-2.4,9.5c0.6,3.5,2.8,6.5,5.9,8.2c-1,3.5-0.3,7.3,1.9,10.3c2.2,2.9,5.7,4.7,9.4,4.7
				c0.5,0,1,0,1.6-0.1c1.8,4.3,6,7.2,10.8,7.2c3.8,0,7.2-1.8,9.3-4.6c2.2,2.8,5.5,4.6,9.3,4.6c4.8,0,9-2.9,10.8-7.2
				c0.5,0.1,1,0.1,1.6,0.1c3.7,0,7.2-1.7,9.4-4.7c2.2-3,2.9-6.8,1.9-10.3c3.1-1.7,5.2-4.7,5.9-8.2
				C552.7,474,551.8,470.5,549.7,467.9 M510.7,495.9c0,3.8-3.1,6.9-6.9,6.9c-3.3,0-6.1-2.3-6.8-5.6l0-0.2c-0.1-0.4-0.1-0.8-0.1-1.2
				c0-1.1,0.3-2.2,0.8-3.2c1.8,1.1,3.9,1.7,6.1,1.7v-4.9c-1.8,0-3.6-0.7-4.9-2c-1.3-1.3-2-3-2-4.9H492c0,2.4,0.7,4.7,2,6.6
				c-1.3,1.9-2,4.1-2,6.4c-0.2,0-0.4,0-0.6,0c-2.2,0-4.2-1-5.5-2.8c-1.6-2.2-1.8-5.1-0.5-7.5l0.6-1.1l-1-2.2l-1.1-0.3
				c-2.5-0.7-4.4-2.8-4.8-5.4c-0.4-2.3,0.3-4.6,2-6.2h11.3c0.5,2.2,1.6,4.2,3.2,5.9c2.1,2.1,5.1,3.5,8.3,3.5h6.9V495.9z
				 M510.7,474.8h-6.9c-3.7,0-6.7-2.9-6.9-6.5v0c0-0.1,0-0.2,0-0.3c0-1.8,0.7-3.6,2-4.9l-3.5-3.4c-1.6,1.6-2.7,3.7-3.2,5.9H481
				c-1.6-1.6-2.4-3.9-2-6.2c0.5-2.6,2.3-4.7,4.9-5.4l1.1-0.3l1-2.2l-0.6-1.1c-1.3-2.4-1.1-5.3,0.5-7.5c1.3-1.8,3.3-2.8,5.5-2.8
				c0.2,0,0.4,0,0.6,0c0,2.3,0.7,4.5,2,6.4c-1.3,1.9-2,4.2-2,6.6l4.9,0c0-1.8,0.7-3.6,2-4.9c1.3-1.3,3-2,4.9-2v-4.9
				c-2.2,0-4.3,0.6-6.1,1.7c-0.5-1-0.8-2.1-0.8-3.2c0-0.4,0-0.8,0.1-1.1l0-0.2c0.6-3.2,3.5-5.6,6.8-5.6c3.8,0,6.9,3.1,6.9,6.9V474.8
				z M515.6,439.9c0-3.8,3.1-6.9,6.9-6.9c3.3,0,6.1,2.3,6.8,5.6l0,0.2c0.1,0.4,0.1,0.8,0.1,1.2c0,1.1-0.3,2.2-0.8,3.2
				c-1.8-1.1-3.9-1.7-6.1-1.7v4.9c1.8,0,3.6,0.7,4.9,2c1.3,1.3,2,3,2,4.9l4.9,0c0-2.4-0.7-4.7-2-6.6c1.3-1.9,2-4.1,2-6.4
				c0.2,0,0.4,0,0.6,0c2.2,0,4.2,1,5.5,2.8c1.6,2.2,1.8,5.1,0.5,7.5l-0.6,1.1l0.5,1.1l0.5,1.1l1.1,0.3c2.5,0.7,4.4,2.8,4.9,5.4
				c0.4,2.3-0.3,4.6-2,6.2H534c-0.5-2.2-1.6-4.2-3.2-5.9c-2.1-2.1-5.1-3.5-8.3-3.5h-6.9V439.9z M547.3,476.5
				c-0.5,2.6-2.3,4.7-4.9,5.4l-1.1,0.3l-1,2.2l0.6,1.1c1.3,2.4,1.1,5.3-0.5,7.5c-1.3,1.8-3.3,2.8-5.5,2.8c-0.2,0-0.4,0-0.6,0
				c0-2.3-0.7-4.5-2-6.4c1.3-1.9,2-4.2,2-6.6h-4.9c0,1.8-0.7,3.6-2,4.9c-1.3,1.3-3,2-4.9,2v4.9c2.2,0,4.3-0.6,6.1-1.7
				c0.5,1,0.8,2,0.8,3.2c0,0.4,0,0.8-0.1,1.2l0,0.2c-0.6,3.2-3.5,5.6-6.8,5.6c-3.8,0-6.9-3.1-6.9-6.9V461h6.9c3.7,0,6.7,2.9,6.9,6.5
				c0,0,0,0,0,0c0,0.1,0,0.2,0,0.4c0,1.8-0.7,3.6-2,4.9l3.4,3.4c1.6-1.6,2.7-3.7,3.2-5.9h11.3C546.9,471.9,547.7,474.2,547.3,476.5"
				/>
		</g>
		<ellipse class="st2" cx="512.7" cy="466.6" rx="22.3" ry="21.5"/>
	</g>
	<g>
		<text transform="matrix(1 0 0 1 504.8085 478.8408)" class="st11 st3 st12">8</text>
	</g>
</g>
<g>
	<g>
		<g>
			<linearGradient id="SVGID_5_" gradientUnits="userSpaceOnUse" x1="682.5815" y1="114.3109" x2="800.363" y2="114.3109">
				<stop  offset="0" style="stop-color:#ECECED"/>
				<stop  offset="1" style="stop-color:#FFFFFF"/>
			</linearGradient>
			<path class="st13" d="M796.5,114.3c3.2-4,4.6-9.1,3.6-14.2c-1-5.3-4.2-9.8-8.9-12.4c1.5-5.3,0.5-11-2.8-15.5
				c-3.3-4.4-8.6-7.1-14.2-7.1c-0.8,0-1.6,0-2.4,0.1c-2.7-6.4-9.1-10.8-16.3-10.8c-5.7,0-10.8,2.7-14,6.9c-3.2-4.2-8.3-6.9-14.1-6.9
				c-7.2,0-13.6,4.4-16.3,10.8c-0.8-0.1-1.6-0.1-2.4-0.1c-5.6,0-10.8,2.6-14.2,7.1c-3.4,4.5-4.3,10.3-2.8,15.5
				c-4.6,2.5-7.9,7-8.9,12.3c-0.9,5.1,0.4,10.3,3.6,14.3c-3.2,4-4.6,9.1-3.6,14.2c1,5.3,4.2,9.8,8.9,12.4c-1.5,5.3-0.5,11,2.8,15.5
				c3.3,4.4,8.6,7.1,14.2,7.1c0.8,0,1.6-0.1,2.4-0.1c2.7,6.4,9.1,10.8,16.3,10.8c5.7,0,10.8-2.7,14.1-6.9c3.2,4.2,8.3,6.9,14,6.9
				c7.2,0,13.6-4.4,16.3-10.8c0.8,0.1,1.6,0.2,2.4,0.2c5.6,0,10.8-2.6,14.2-7.1c3.4-4.5,4.4-10.3,2.8-15.5c4.6-2.5,7.9-7,8.9-12.4
				C801,123.5,799.6,118.3,796.5,114.3"/>
			<path class="st1" d="M796.5,114.3c3.2-4,4.6-9.1,3.6-14.3c-1-5.3-4.2-9.8-8.9-12.4c1.5-5.3,0.5-11-2.8-15.5
				c-3.3-4.4-8.6-7.1-14.2-7.1c-0.8,0-1.6,0-2.3,0.1c-2.7-6.4-9.1-10.8-16.3-10.8c-5.7,0-10.8,2.7-14,6.9c-3.2-4.2-8.3-6.9-14.1-6.9
				c-7.2,0-13.6,4.4-16.3,10.8c-0.8-0.1-1.6-0.1-2.4-0.1c-5.6,0-10.8,2.6-14.2,7.1c-3.4,4.5-4.4,10.3-2.9,15.5
				c-4.6,2.5-7.9,7-8.9,12.4c-0.9,5.1,0.4,10.3,3.6,14.3c-3.2,4-4.6,9.1-3.6,14.2c1,5.3,4.2,9.8,8.9,12.4c-1.5,5.3-0.5,11,2.8,15.5
				c3.3,4.4,8.6,7.1,14.2,7.1c0.8,0,1.6-0.1,2.4-0.2c2.7,6.4,9.1,10.8,16.3,10.8c5.7,0,10.8-2.7,14.1-6.9c3.2,4.2,8.3,6.9,14,6.9
				c7.2,0,13.6-4.4,16.3-10.8c0.8,0.1,1.6,0.2,2.4,0.2c5.6,0,10.8-2.6,14.2-7.1c3.4-4.5,4.3-10.3,2.8-15.5c4.6-2.5,7.9-7,8.9-12.3
				C801,123.5,799.6,118.3,796.5,114.3 M737.8,156.5c0,5.7-4.7,10.4-10.4,10.4c-5,0-9.3-3.5-10.2-8.4l0-0.2
				c-0.1-0.6-0.1-1.2-0.1-1.7c0-1.7,0.4-3.3,1.2-4.8c2.8,1.7,5.9,2.6,9.2,2.6V147c-2.8,0-5.4-1.1-7.3-3c-2-2-3-4.6-3-7.3h-7.3
				c0,3.6,1.1,7,3,9.9c-1.9,2.8-3,6.2-3.1,9.7c-0.3,0-0.6,0-0.9,0c-3.3,0-6.3-1.5-8.3-4.2c-2.4-3.2-2.8-7.6-0.8-11.2l0.9-1.6
				l-1.5-3.4l-1.6-0.5c-3.8-1.1-6.6-4.2-7.3-8.1c-0.6-3.4,0.5-6.9,3-9.3h17c0.7,3.3,2.3,6.4,4.8,8.9c3.2,3.2,7.7,5.2,12.5,5.2h10.4
				V156.5z M737.8,124.7h-10.4c-5.5,0-10.1-4.3-10.4-9.8v0c0-0.2,0-0.4,0-0.5c0-2.8,1.1-5.4,3-7.3l-5.2-5.2
				c-2.5,2.5-4.1,5.5-4.8,8.9h-17c-2.4-2.4-3.6-5.9-3-9.3c0.7-3.9,3.5-7,7.3-8.1l1.6-0.5l1.5-3.4l-0.9-1.6c-2-3.6-1.7-8,0.8-11.2
				c2-2.6,5-4.2,8.3-4.2c0.3,0,0.6,0,1,0c0.1,3.5,1.1,6.8,3.1,9.7c-2,2.9-3,6.3-3,9.9l7.3,0c0-2.8,1.1-5.4,3-7.3c2-2,4.6-3,7.3-3
				v-7.3c-3.3,0-6.5,0.9-9.2,2.6c-0.8-1.5-1.2-3.1-1.2-4.8c0-0.6,0.1-1.2,0.1-1.7l0-0.3c0.9-4.9,5.2-8.4,10.2-8.4
				c5.7,0,10.4,4.7,10.4,10.4V124.7z M745.1,72.2c0-5.7,4.7-10.4,10.4-10.4c5,0,9.3,3.5,10.2,8.4l0,0.3c0.1,0.6,0.1,1.2,0.1,1.7
				c0,1.7-0.4,3.3-1.2,4.8c-2.8-1.7-5.9-2.6-9.2-2.6v7.3c2.8,0,5.4,1.1,7.3,3c2,1.9,3,4.6,3,7.3l7.3,0c0-3.6-1.1-7-3-9.9
				c1.9-2.9,3-6.2,3.1-9.7c0.3,0,0.6,0,0.9,0c3.3,0,6.3,1.5,8.3,4.2c2.4,3.2,2.7,7.7,0.8,11.2l-0.9,1.6l0.7,1.7l0.7,1.7l1.7,0.5
				c3.8,1.1,6.6,4.2,7.3,8.1c0.6,3.4-0.5,6.9-3,9.3h-17c-0.7-3.3-2.3-6.4-4.8-8.9c-3.2-3.2-7.7-5.2-12.5-5.2h-10.4V72.2z
				 M792.9,127.2c-0.7,3.9-3.5,7-7.3,8.1l-1.6,0.5l-1.5,3.4l0.9,1.6c2,3.6,1.6,8-0.8,11.2c-2,2.6-5,4.2-8.3,4.2c-0.3,0-0.6,0-1,0
				c-0.1-3.5-1.1-6.8-3.1-9.6c2-2.9,3-6.4,3-9.9h-7.3c0,2.8-1.1,5.4-3,7.3c-2,2-4.6,3-7.3,3v7.3c3.3,0,6.5-0.9,9.2-2.6
				c0.8,1.4,1.2,3.1,1.2,4.8c0,0.6,0,1.2-0.1,1.7l0,0.2c-0.9,4.9-5.2,8.4-10.2,8.4c-5.7,0-10.4-4.7-10.4-10.4v-52.5h10.4
				c5.5,0,10.1,4.3,10.4,9.8c0,0,0,0,0,0.1c0,0.2,0,0.4,0,0.5c0,2.8-1.1,5.4-3,7.3l5.2,5.2c2.5-2.5,4.1-5.5,4.8-8.9h17
				C792.3,120.4,793.5,123.9,792.9,127.2"/>
		</g>
		<ellipse class="st2" cx="740.8" cy="112.3" rx="33.5" ry="32.3"/>
	</g>
	<g>
		<text transform="matrix(1 0 0 1 728.913 130.7939)" class="st1 st3 st4">5</text>
	</g>
</g>
<g>
	<g>
		<g>
			<path class="st14" d="M161.1,266.1c3.2-4,4.6-9.1,3.6-14.2c-1-5.3-4.2-9.8-8.9-12.4c1.5-5.3,0.5-11-2.8-15.5
				c-3.3-4.4-8.6-7.1-14.2-7.1c-0.8,0-1.6,0.1-2.4,0.1c-2.7-6.4-9.1-10.8-16.3-10.8c-5.7,0-10.8,2.7-14,6.9
				c-3.2-4.2-8.3-6.9-14.1-6.9c-7.2,0-13.6,4.4-16.3,10.8c-0.8-0.1-1.6-0.2-2.4-0.2c-5.6,0-10.8,2.6-14.2,7.1
				c-3.4,4.5-4.3,10.3-2.8,15.5c-4.6,2.5-7.9,7-8.9,12.3c-0.9,5.1,0.4,10.3,3.6,14.3c-3.2,4-4.6,9.1-3.6,14.2
				c1,5.3,4.2,9.8,8.9,12.4c-1.5,5.3-0.5,11,2.8,15.5c3.3,4.4,8.6,7.1,14.2,7.1c0.8,0,1.6-0.1,2.4-0.1c2.7,6.4,9.1,10.8,16.3,10.8
				c5.7,0,10.8-2.7,14.1-6.9c3.2,4.2,8.3,6.9,14,6.9c7.2,0,13.6-4.4,16.3-10.8c0.8,0.1,1.6,0.2,2.4,0.2c5.6,0,10.8-2.6,14.2-7.1
				c3.4-4.5,4.4-10.3,2.8-15.5c4.6-2.5,7.9-7,8.9-12.4C165.7,275.3,164.3,270.1,161.1,266.1"/>
			<path class="st15" d="M161.1,266.1c3.2-4,4.6-9.2,3.6-14.3c-1-5.3-4.2-9.8-8.9-12.4c1.5-5.3,0.5-11-2.8-15.5
				c-3.3-4.4-8.6-7.1-14.2-7.1c-0.8,0-1.6,0-2.3,0.1c-2.7-6.4-9.1-10.8-16.3-10.8c-5.7,0-10.8,2.7-14,6.9c-3.2-4.2-8.3-6.9-14.1-6.9
				c-7.2,0-13.6,4.4-16.3,10.8c-0.8-0.1-1.6-0.2-2.4-0.2c-5.6,0-10.8,2.6-14.2,7.1c-3.4,4.5-4.4,10.3-2.9,15.5
				c-4.6,2.5-7.9,7-8.9,12.4c-0.9,5.1,0.4,10.3,3.6,14.3c-3.2,4-4.6,9.1-3.6,14.2c1,5.3,4.2,9.8,8.9,12.4c-1.5,5.3-0.5,11,2.8,15.5
				c3.3,4.4,8.6,7.1,14.2,7.1c0.8,0,1.6-0.1,2.4-0.2c2.7,6.4,9.1,10.8,16.3,10.8c5.7,0,10.8-2.7,14.1-6.9c3.2,4.2,8.3,6.9,14,6.9
				c7.2,0,13.6-4.4,16.3-10.8c0.8,0.1,1.6,0.2,2.4,0.2c5.6,0,10.8-2.6,14.2-7.1c3.4-4.5,4.3-10.3,2.8-15.5c4.6-2.5,7.9-7,8.9-12.3
				C165.7,275.3,164.3,270.1,161.1,266.1 M102.5,308.3c0,5.7-4.7,10.4-10.4,10.4c-5,0-9.3-3.5-10.2-8.4l0-0.2
				c-0.1-0.6-0.1-1.2-0.1-1.8c0-1.7,0.4-3.3,1.2-4.8c2.8,1.7,5.9,2.6,9.2,2.6v-7.3c-2.8,0-5.4-1.1-7.3-3c-2-2-3-4.6-3-7.3h-7.3
				c0,3.6,1.1,7,3.1,9.9c-1.9,2.8-3,6.2-3.1,9.7c-0.3,0-0.6,0-0.9,0c-3.3,0-6.3-1.5-8.3-4.2c-2.4-3.2-2.8-7.7-0.8-11.2l0.9-1.6
				l-1.5-3.4l-1.6-0.5c-3.8-1.1-6.6-4.2-7.3-8.1c-0.6-3.4,0.5-6.9,3-9.3h17c0.7,3.3,2.3,6.4,4.8,8.9c3.2,3.2,7.7,5.2,12.5,5.2h10.4
				V308.3z M102.5,276.5H92.1c-5.5,0-10.1-4.3-10.4-9.8v0c0-0.2,0-0.4,0-0.5c0-2.8,1.1-5.4,3.1-7.3l-5.2-5.2
				c-2.5,2.5-4.1,5.5-4.8,8.9h-17c-2.4-2.4-3.6-5.9-3-9.3c0.7-3.9,3.5-7,7.3-8.1l1.6-0.5l1.5-3.4l-0.9-1.6c-2-3.6-1.7-8,0.8-11.2
				c2-2.6,5-4.2,8.3-4.2c0.3,0,0.6,0,1,0c0.1,3.5,1.1,6.8,3.1,9.7c-2,2.9-3.1,6.3-3.1,9.9l7.3,0c0-2.8,1.1-5.4,3-7.3
				c2-2,4.6-3,7.3-3v-7.3c-3.3,0-6.5,0.9-9.2,2.6c-0.8-1.5-1.2-3.1-1.2-4.8c0-0.6,0.1-1.2,0.1-1.7l0-0.3c0.9-4.9,5.2-8.4,10.2-8.4
				c5.7,0,10.4,4.7,10.4,10.4V276.5z M109.8,224c0-5.7,4.7-10.4,10.4-10.4c5,0,9.3,3.5,10.2,8.4l0,0.3c0.1,0.6,0.1,1.2,0.1,1.7
				c0,1.7-0.4,3.3-1.2,4.8c-2.8-1.7-5.9-2.6-9.2-2.6v7.3c2.8,0,5.4,1.1,7.3,3c2,1.9,3,4.6,3,7.3l7.3,0c0-3.6-1.1-7-3-9.9
				c1.9-2.8,3-6.2,3.1-9.7c0.3,0,0.6,0,0.9,0c3.3,0,6.3,1.5,8.3,4.2c2.4,3.2,2.7,7.7,0.8,11.2l-0.9,1.6l0.7,1.7l0.7,1.7l1.7,0.5
				c3.8,1.1,6.6,4.2,7.3,8.1c0.6,3.4-0.5,6.9-3,9.3h-17c-0.7-3.3-2.3-6.4-4.8-8.9c-3.2-3.2-7.7-5.2-12.5-5.2h-10.4V224z M157.5,279
				c-0.7,3.9-3.5,7-7.3,8.1l-1.6,0.5l-1.5,3.4l0.9,1.6c2,3.6,1.6,8-0.8,11.2c-2,2.6-5,4.2-8.3,4.2c-0.3,0-0.6,0-1,0
				c-0.1-3.5-1.1-6.8-3.1-9.7c2-2.9,3-6.4,3-9.9h-7.3c0,2.8-1.1,5.4-3,7.3c-2,2-4.6,3-7.3,3v7.3c3.3,0,6.5-0.9,9.2-2.6
				c0.8,1.4,1.2,3.1,1.2,4.8c0,0.6,0,1.2-0.1,1.8l0,0.2c-0.9,4.9-5.2,8.4-10.2,8.4c-5.7,0-10.4-4.7-10.4-10.4v-52.5h10.4
				c5.5,0,10.1,4.3,10.4,9.8l0,0.1c0,0.2,0,0.4,0,0.5c0,2.8-1.1,5.4-3,7.3l5.2,5.2c2.5-2.5,4.1-5.5,4.8-8.9h17
				C157,272.2,158.1,275.6,157.5,279"/>
		</g>
		<ellipse class="st2" cx="106.8" cy="264.1" rx="33.5" ry="32.3"/>
	</g>
	<text transform="matrix(1 0 0 1 95.5829 281.8911)" class="st3 st4">2</text>
</g>
<g>
	<g>
		<g>
			<path class="st14" d="M962.6,266.1c3.2-4,4.6-9.1,3.6-14.2c-1-5.3-4.2-9.8-8.9-12.4c1.5-5.3,0.5-11-2.8-15.5
				c-3.3-4.4-8.6-7.1-14.2-7.1c-0.8,0-1.6,0.1-2.4,0.1c-2.7-6.4-9.1-10.8-16.3-10.8c-5.7,0-10.8,2.7-14,6.9
				c-3.2-4.2-8.3-6.9-14.1-6.9c-7.2,0-13.6,4.4-16.3,10.8c-0.8-0.1-1.6-0.2-2.4-0.2c-5.6,0-10.8,2.6-14.2,7.1
				c-3.4,4.5-4.3,10.3-2.8,15.5c-4.6,2.5-7.9,7-8.9,12.3c-0.9,5.1,0.4,10.3,3.6,14.3c-3.2,4-4.6,9.1-3.6,14.2
				c1,5.3,4.2,9.8,8.9,12.4c-1.5,5.3-0.5,11,2.8,15.5c3.3,4.4,8.6,7.1,14.2,7.1c0.8,0,1.6-0.1,2.4-0.1c2.7,6.4,9.1,10.8,16.3,10.8
				c5.7,0,10.8-2.7,14.1-6.9c3.2,4.2,8.3,6.9,14,6.9c7.2,0,13.6-4.4,16.3-10.8c0.8,0.1,1.6,0.2,2.4,0.2c5.6,0,10.8-2.6,14.2-7.1
				c3.4-4.5,4.4-10.3,2.8-15.5c4.6-2.5,7.9-7,8.9-12.4C967.1,275.3,965.7,270.1,962.6,266.1"/>
			<path class="st15" d="M962.6,266.1c3.2-4,4.6-9.2,3.6-14.3c-1-5.3-4.2-9.8-8.9-12.4c1.5-5.3,0.5-11-2.8-15.5
				c-3.3-4.4-8.6-7.1-14.2-7.1c-0.8,0-1.6,0-2.3,0.1c-2.7-6.4-9.1-10.8-16.3-10.8c-5.7,0-10.8,2.7-14,6.9c-3.2-4.2-8.3-6.9-14.1-6.9
				c-7.2,0-13.6,4.4-16.3,10.8c-0.8-0.1-1.6-0.2-2.4-0.2c-5.6,0-10.8,2.6-14.2,7.1c-3.4,4.5-4.4,10.3-2.9,15.5
				c-4.6,2.5-7.9,7-8.9,12.4c-0.9,5.1,0.4,10.3,3.6,14.3c-3.2,4-4.6,9.1-3.6,14.2c1,5.3,4.2,9.8,8.9,12.4c-1.5,5.3-0.5,11,2.8,15.5
				c3.3,4.4,8.6,7.1,14.2,7.1c0.8,0,1.6-0.1,2.4-0.2c2.7,6.4,9.1,10.8,16.3,10.8c5.7,0,10.8-2.7,14.1-6.9c3.2,4.2,8.3,6.9,14,6.9
				c7.2,0,13.6-4.4,16.3-10.8c0.8,0.1,1.6,0.2,2.4,0.2c5.6,0,10.8-2.6,14.2-7.1c3.4-4.5,4.3-10.3,2.8-15.5c4.6-2.5,7.9-7,8.9-12.3
				C967.1,275.3,965.7,270.1,962.6,266.1 M903.9,308.3c0,5.7-4.7,10.4-10.4,10.4c-5,0-9.3-3.5-10.2-8.4l0-0.2
				c-0.1-0.6-0.1-1.2-0.1-1.8c0-1.7,0.4-3.3,1.2-4.8c2.8,1.7,5.9,2.6,9.2,2.6v-7.3c-2.8,0-5.4-1.1-7.3-3c-2-2-3-4.6-3-7.3h-7.3
				c0,3.6,1.1,7,3,9.9c-1.9,2.8-3,6.2-3.1,9.7c-0.3,0-0.6,0-0.9,0c-3.3,0-6.3-1.5-8.3-4.2c-2.4-3.2-2.8-7.7-0.8-11.2l0.9-1.6
				l-1.5-3.4l-1.6-0.5c-3.8-1.1-6.6-4.2-7.3-8.1c-0.6-3.4,0.5-6.9,3-9.3h17c0.7,3.3,2.3,6.4,4.8,8.9c3.2,3.2,7.7,5.2,12.5,5.2h10.4
				V308.3z M903.9,276.5h-10.4c-5.5,0-10.1-4.3-10.4-9.8v0c0-0.2,0-0.4,0-0.5c0-2.8,1.1-5.4,3-7.3l-5.2-5.2
				c-2.5,2.5-4.1,5.5-4.8,8.9h-17c-2.4-2.4-3.6-5.9-3-9.3c0.7-3.9,3.5-7,7.3-8.1l1.6-0.5l1.5-3.4l-0.9-1.6c-2-3.6-1.7-8,0.8-11.2
				c2-2.6,5-4.2,8.3-4.2c0.3,0,0.6,0,1,0c0.1,3.5,1.1,6.8,3.1,9.7c-2,2.9-3,6.3-3,9.9l7.3,0c0-2.8,1.1-5.4,3-7.3c2-2,4.6-3,7.3-3
				v-7.3c-3.3,0-6.5,0.9-9.2,2.6c-0.8-1.5-1.2-3.1-1.2-4.8c0-0.6,0.1-1.2,0.1-1.7l0-0.3c0.9-4.9,5.2-8.4,10.2-8.4
				c5.7,0,10.4,4.7,10.4,10.4V276.5z M911.2,224c0-5.7,4.7-10.4,10.4-10.4c5,0,9.3,3.5,10.2,8.4l0,0.3c0.1,0.6,0.1,1.2,0.1,1.7
				c0,1.7-0.4,3.3-1.2,4.8c-2.8-1.7-5.9-2.6-9.2-2.6v7.3c2.8,0,5.4,1.1,7.3,3c2,1.9,3,4.6,3,7.3l7.3,0c0-3.6-1.1-7-3-9.9
				c1.9-2.8,3-6.2,3.1-9.7c0.3,0,0.6,0,0.9,0c3.3,0,6.3,1.5,8.3,4.2c2.4,3.2,2.7,7.7,0.8,11.2l-0.9,1.6l0.7,1.7l0.7,1.7l1.7,0.5
				c3.8,1.1,6.6,4.2,7.3,8.1c0.6,3.4-0.5,6.9-3,9.3h-17c-0.7-3.3-2.3-6.4-4.8-8.9c-3.2-3.2-7.7-5.2-12.5-5.2h-10.4V224z M959,279
				c-0.7,3.9-3.5,7-7.3,8.1l-1.6,0.5l-1.5,3.4l0.9,1.6c2,3.6,1.6,8-0.8,11.2c-2,2.6-5,4.2-8.3,4.2c-0.3,0-0.6,0-1,0
				c-0.1-3.5-1.1-6.8-3.1-9.7c2-2.9,3-6.4,3-9.9H932c0,2.8-1.1,5.4-3,7.3c-2,2-4.6,3-7.3,3v7.3c3.3,0,6.5-0.9,9.2-2.6
				c0.8,1.4,1.2,3.1,1.2,4.8c0,0.6,0,1.2-0.1,1.8l0,0.2c-0.9,4.9-5.2,8.4-10.2,8.4c-5.7,0-10.4-4.7-10.4-10.4v-52.5h10.4
				c5.5,0,10.1,4.3,10.4,9.8l0,0.1c0,0.2,0,0.4,0,0.5c0,2.8-1.1,5.4-3,7.3l5.2,5.2c2.5-2.5,4.1-5.5,4.8-8.9h17
				C958.5,272.2,959.6,275.6,959,279"/>
		</g>
		<ellipse class="st2" cx="908.3" cy="264.1" rx="33.5" ry="32.3"/>
	</g>
	<text transform="matrix(1 0 0 1 897.0477 281.8911)" class="st15 st3 st4">6</text>
</g>
<g>
	<g>
		<g>
			<path class="st14" d="M564.9,82.4c3.2-4,4.6-9.1,3.6-14.2c-1-5.3-4.2-9.8-8.9-12.4c1.5-5.3,0.5-11-2.8-15.5
				c-3.3-4.4-8.6-7.1-14.2-7.1c-0.8,0-1.6,0.1-2.4,0.1c-2.7-6.4-9.1-10.8-16.3-10.8c-5.7,0-10.8,2.7-14,6.9
				c-3.2-4.2-8.3-6.9-14.1-6.9c-7.2,0-13.6,4.4-16.3,10.8c-0.8-0.1-1.6-0.2-2.4-0.2c-5.6,0-10.8,2.6-14.2,7.1
				c-3.4,4.5-4.3,10.3-2.8,15.5c-4.6,2.5-7.9,7-8.9,12.3c-0.9,5.1,0.4,10.3,3.6,14.3c-3.2,4-4.6,9.1-3.6,14.2
				c1,5.3,4.2,9.8,8.9,12.4c-1.5,5.3-0.5,11,2.8,15.5c3.3,4.4,8.6,7.1,14.2,7.1c0.8,0,1.6-0.1,2.4-0.1c2.7,6.4,9.1,10.8,16.3,10.8
				c5.7,0,10.8-2.7,14.1-6.9c3.2,4.2,8.3,6.9,14,6.9c7.2,0,13.6-4.4,16.3-10.8c0.8,0.1,1.6,0.2,2.4,0.2c5.6,0,10.8-2.6,14.2-7.1
				c3.4-4.5,4.4-10.3,2.8-15.5c4.6-2.5,7.9-7,8.9-12.4C569.4,91.5,568,86.4,564.9,82.4"/>
			<path class="st15" d="M564.9,82.4c3.2-4,4.6-9.2,3.6-14.3c-1-5.3-4.2-9.8-8.9-12.4c1.5-5.3,0.5-11-2.8-15.5
				c-3.3-4.4-8.6-7.1-14.2-7.1c-0.8,0-1.6,0-2.3,0.1c-2.7-6.4-9.1-10.8-16.3-10.8c-5.7,0-10.8,2.7-14,6.9c-3.2-4.2-8.3-6.9-14.1-6.9
				c-7.2,0-13.6,4.4-16.3,10.8c-0.8-0.1-1.6-0.2-2.4-0.2c-5.6,0-10.8,2.6-14.2,7.1c-3.4,4.5-4.4,10.3-2.9,15.5
				c-4.6,2.5-7.9,7-8.9,12.4c-0.9,5.1,0.4,10.3,3.6,14.3c-3.2,4-4.6,9.1-3.6,14.2c1,5.3,4.2,9.8,8.9,12.4c-1.5,5.3-0.5,11,2.8,15.5
				c3.3,4.4,8.6,7.1,14.2,7.1c0.8,0,1.6-0.1,2.4-0.2c2.7,6.4,9.1,10.8,16.3,10.8c5.7,0,10.8-2.7,14.1-6.9c3.2,4.2,8.3,6.9,14,6.9
				c7.2,0,13.6-4.4,16.3-10.8c0.8,0.1,1.6,0.2,2.4,0.2c5.6,0,10.8-2.6,14.2-7.1c3.4-4.5,4.3-10.3,2.8-15.5c4.6-2.5,7.9-7,8.9-12.3
				C569.4,91.5,568,86.4,564.9,82.4 M506.2,124.6c0,5.7-4.7,10.4-10.4,10.4c-5,0-9.3-3.5-10.2-8.4l0-0.2c-0.1-0.6-0.1-1.2-0.1-1.8
				c0-1.7,0.4-3.3,1.2-4.8c2.8,1.7,5.9,2.6,9.2,2.6V115c-2.8,0-5.4-1.1-7.3-3c-2-2-3-4.6-3-7.3h-7.3c0,3.6,1.1,7,3.1,9.9
				c-1.9,2.8-3,6.2-3.1,9.7c-0.3,0-0.6,0-0.9,0c-3.3,0-6.3-1.5-8.3-4.2c-2.4-3.2-2.8-7.7-0.8-11.2l0.9-1.6l-1.5-3.4l-1.6-0.5
				c-3.8-1.1-6.6-4.2-7.3-8.1c-0.6-3.4,0.5-6.9,3-9.3h17c0.7,3.3,2.3,6.4,4.8,8.9c3.2,3.2,7.7,5.2,12.5,5.2h10.4V124.6z M506.2,92.8
				h-10.4c-5.5,0-10.1-4.3-10.4-9.8v0c0-0.2,0-0.4,0-0.5c0-2.8,1.1-5.4,3.1-7.3l-5.2-5.2c-2.5,2.5-4.1,5.5-4.8,8.9h-17
				c-2.4-2.4-3.6-5.9-3-9.3c0.7-3.9,3.5-7,7.3-8.1l1.6-0.5l1.5-3.4l-0.9-1.6c-2-3.6-1.7-8,0.8-11.2c2-2.6,5-4.2,8.3-4.2
				c0.3,0,0.6,0,1,0c0.1,3.5,1.1,6.8,3.1,9.7c-2,2.9-3.1,6.3-3.1,9.9l7.3,0c0-2.8,1.1-5.4,3-7.3c2-2,4.6-3,7.3-3v-7.3
				c-3.3,0-6.5,0.9-9.2,2.6c-0.8-1.5-1.2-3.1-1.2-4.8c0-0.6,0.1-1.2,0.1-1.7l0-0.3c0.9-4.9,5.2-8.4,10.2-8.4
				c5.7,0,10.4,4.7,10.4,10.4V92.8z M513.5,40.2c0-5.7,4.7-10.4,10.4-10.4c5,0,9.3,3.5,10.2,8.4l0,0.3c0.1,0.6,0.1,1.2,0.1,1.7
				c0,1.7-0.4,3.3-1.2,4.8c-2.8-1.7-5.9-2.6-9.2-2.6v7.3c2.8,0,5.4,1.1,7.3,3c2,1.9,3,4.6,3,7.3l7.3,0c0-3.6-1.1-7-3-9.9
				c1.9-2.8,3-6.2,3.1-9.7c0.3,0,0.6,0,0.9,0c3.3,0,6.3,1.5,8.3,4.2c2.4,3.2,2.7,7.7,0.8,11.2l-0.9,1.6l0.7,1.7l0.7,1.7l1.7,0.5
				c3.8,1.1,6.6,4.2,7.3,8.1c0.6,3.4-0.5,6.9-3,9.3h-17c-0.7-3.3-2.3-6.4-4.8-8.9c-3.2-3.2-7.7-5.2-12.5-5.2h-10.4V40.2z
				 M561.3,95.3c-0.7,3.9-3.5,7-7.3,8.1l-1.6,0.5l-1.5,3.4l0.9,1.6c2,3.6,1.6,8-0.8,11.2c-2,2.6-5,4.2-8.3,4.2c-0.3,0-0.6,0-1,0
				c-0.1-3.5-1.1-6.8-3.1-9.7c2-2.9,3-6.4,3-9.9h-7.3c0,2.8-1.1,5.4-3,7.3c-2,2-4.6,3-7.3,3v7.3c3.3,0,6.5-0.9,9.2-2.6
				c0.8,1.4,1.2,3.1,1.2,4.8c0,0.6,0,1.2-0.1,1.8l0,0.2c-0.9,4.9-5.2,8.4-10.2,8.4c-5.7,0-10.4-4.7-10.4-10.4V72h10.4
				c5.5,0,10.1,4.3,10.4,9.8l0,0.1c0,0.2,0,0.4,0,0.5c0,2.8-1.1,5.4-3,7.3l5.2,5.2c2.5-2.5,4.1-5.5,4.8-8.9h17
				C560.8,88.5,561.9,91.9,561.3,95.3"/>
		</g>
		<ellipse class="st2" cx="510.6" cy="80.4" rx="33.5" ry="32.3"/>
	</g>
	<text transform="matrix(1 0 0 1 499.3534 98.1811)" class="st15 st3 st4">4</text>
</g>
</svg>
