<?xml version="1.0" encoding="utf-8"?>
<!-- Generator: Adobe Illustrator 25.0.0, SVG Export Plug-In . SVG Version: 6.00 Build 0)  -->
<svg version="1.1" id="Layer_2" xmlns="http://www.w3.org/2000/svg" xmlns:xlink="http://www.w3.org/1999/xlink" x="0px" y="0px"
	 viewBox="0 0 1032.6 650.3" style="enable-background:new 0 0 1032.6 650.3;" xml:space="preserve">
<style type="text/css">
	.st0{fill:url(#SVGID_1_);}
	.st1{fill:#821F81;}
	.st2{fill:#FFFFFF;}
	.st3{opacity:0.6;fill:#0269A0;}
	.st4{fill:#282828;}
	.st5{fill:none;stroke:#000000;stroke-width:1.549;stroke-miterlimit:10;}
	.st6{fill:url(#SVGID_2_);}
	.st7{fill:url(#SVGID_3_);}
	.st8{fill:url(#SVGID_4_);}
	.st9{fill:#5BC4F1;}
	.st10{fill:url(#SVGID_5_);}
	.st11{fill:#F4F5F7;}
	.st12{fill:#1B3F91;}
</style>
<script xlink:href="../scripts.js" type="text/JavaScript"></script>

<g onclick="changeImageText(3)">
	<g>
		<g>
			<linearGradient id="SVGID_1_" gradientUnits="userSpaceOnUse" x1="230.7717" y1="122.7605" x2="346.3853" y2="122.7605">
				<stop  offset="0" style="stop-color:#F1F1F4"/>
				<stop  offset="1" style="stop-color:#FFFFFF"/>
			</linearGradient>
			<path class="st0" d="M342.5,122.8c3.1-3.9,4.5-9,3.6-14c-1-5.2-4.2-9.6-8.7-12.1c1.5-5.2,0.5-10.8-2.8-15.2
				c-3.3-4.4-8.5-6.9-13.9-6.9c-0.8,0-1.5,0-2.3,0.1c-2.7-6.3-8.9-10.6-16-10.6c-5.6,0-10.6,2.7-13.8,6.8c-3.2-4.1-8.2-6.8-13.8-6.8
				c-7.1,0-13.3,4.3-16,10.6c-0.8-0.1-1.5-0.1-2.3-0.1c-5.5,0-10.6,2.5-13.9,7c-3.3,4.4-4.3,10.1-2.8,15.2
				c-4.5,2.5-7.7,6.9-8.7,12.1c-0.9,5,0.4,10.1,3.6,14c-3.1,3.9-4.5,9-3.6,14c0.9,5.2,4.2,9.6,8.7,12.1c-1.5,5.2-0.5,10.8,2.8,15.3
				c3.3,4.4,8.5,7,13.9,7c0.8,0,1.5-0.1,2.3-0.1c2.7,6.3,8.9,10.6,16,10.6c5.6,0,10.6-2.7,13.8-6.8c3.2,4.1,8.2,6.8,13.8,6.8
				c7.1,0,13.3-4.3,16-10.6c0.8,0.1,1.5,0.2,2.3,0.2c5.5,0,10.6-2.5,13.9-7c3.3-4.4,4.3-10.1,2.8-15.2c4.5-2.5,7.8-6.9,8.7-12.1
				C347,131.7,345.7,126.6,342.5,122.8"/>
			<path class="st1" d="M342.5,122.8c3.1-3.9,4.5-9,3.6-14c-1-5.2-4.2-9.6-8.7-12.1c1.5-5.2,0.5-10.8-2.8-15.2
				c-3.3-4.4-8.5-6.9-13.9-6.9c-0.8,0-1.5,0-2.3,0.1c-2.7-6.3-8.9-10.6-16-10.6c-5.6,0-10.6,2.7-13.8,6.8c-3.2-4.1-8.2-6.8-13.8-6.8
				c-7.1,0-13.3,4.3-16,10.6c-0.8-0.1-1.5-0.1-2.3-0.1c-5.5,0-10.6,2.5-13.9,7c-3.3,4.4-4.3,10.1-2.8,15.2
				c-4.5,2.5-7.7,6.9-8.7,12.1c-0.9,5,0.4,10.1,3.6,14c-3.1,3.9-4.5,9-3.6,14c0.9,5.2,4.2,9.6,8.7,12.1c-1.5,5.2-0.5,10.8,2.8,15.3
				c3.3,4.4,8.5,7,13.9,7c0.8,0,1.5-0.1,2.3-0.2c2.7,6.3,8.9,10.6,16,10.6c5.6,0,10.6-2.7,13.8-6.8c3.2,4.1,8.2,6.8,13.8,6.8
				c7.1,0,13.3-4.3,16-10.6c0.8,0.1,1.5,0.2,2.3,0.2c5.5,0,10.6-2.5,13.9-7c3.3-4.4,4.3-10.1,2.8-15.2c4.5-2.5,7.8-6.9,8.7-12.1
				C347,131.7,345.7,126.6,342.5,122.8 M285,164.1c0,5.6-4.6,10.2-10.2,10.2c-4.9,0-9.1-3.5-10-8.2l0-0.2c-0.1-0.6-0.1-1.1-0.1-1.7
				c0-1.7,0.4-3.3,1.1-4.7c2.7,1.7,5.8,2.5,9.1,2.5v-7.2c-2.7,0-5.3-1-7.2-3c-1.9-1.9-3-4.5-3-7.2h-7.2c0,3.5,1.1,6.9,3,9.7
				c-1.9,2.8-2.9,6.1-3,9.5c-0.3,0-0.6,0-0.9,0c-3.2,0-6.2-1.5-8.2-4.1c-2.4-3.2-2.7-7.5-0.8-11l0.9-1.6l-1.5-3.3l-1.6-0.5
				c-3.7-1.1-6.5-4.1-7.2-8c-0.6-3.3,0.5-6.8,2.9-9.1h16.7c0.7,3.3,2.3,6.3,4.7,8.7c3.2,3.1,7.5,5.1,12.3,5.1H285V164.1z M285,133
				h-10.2c-5.4,0-9.9-4.3-10.2-9.6v0c0-0.2,0-0.3,0-0.5c0-2.7,1.1-5.3,3-7.2l-5.1-5.1c-2.4,2.4-4,5.4-4.7,8.7H241
				c-2.4-2.4-3.5-5.8-2.9-9.1c0.7-3.8,3.4-6.9,7.2-8l1.6-0.5l1.5-3.3l-0.9-1.6c-1.9-3.5-1.6-7.8,0.8-11c1.9-2.6,4.9-4.1,8.2-4.1
				c0.3,0,0.6,0,0.9,0c0.1,3.4,1.1,6.7,3,9.5c-1.9,2.8-3,6.2-3,9.7l7.2,0c0-2.7,1.1-5.3,3-7.2c1.9-1.9,4.5-3,7.2-3v-7.2
				c-3.3,0-6.4,0.9-9.1,2.5c-0.7-1.4-1.1-3-1.1-4.7c0-0.6,0.1-1.1,0.1-1.7l0-0.3c0.9-4.8,5.1-8.2,10-8.2c5.6,0,10.2,4.6,10.2,10.2
				V133z M292.2,81.4c0-5.6,4.6-10.2,10.2-10.2c4.9,0,9.1,3.5,10,8.2l0,0.3c0.1,0.5,0.1,1.1,0.1,1.7c0,1.7-0.4,3.3-1.1,4.7
				c-2.7-1.7-5.8-2.5-9.1-2.5v7.2c2.7,0,5.3,1.1,7.2,3c1.9,1.9,3,4.5,3,7.2l7.2,0c0-3.5-1-6.9-3-9.7c1.9-2.8,2.9-6.1,3-9.5
				c0.3,0,0.6,0,0.9,0c3.3,0,6.2,1.5,8.2,4.1c2.4,3.2,2.7,7.5,0.8,11l-0.9,1.6l0.7,1.6l0.7,1.7l1.6,0.5c3.7,1.1,6.5,4.2,7.2,8
				c0.6,3.3-0.5,6.7-2.9,9.1h-16.7c-0.7-3.3-2.3-6.3-4.7-8.7c-3.2-3.1-7.5-5.1-12.3-5.1h-10.2V81.4z M339,135.5
				c-0.7,3.8-3.4,6.9-7.2,8l-1.6,0.5l-1.5,3.3l0.9,1.6c1.9,3.5,1.6,7.8-0.8,11c-1.9,2.6-4.9,4.1-8.2,4.1c-0.3,0-0.6,0-0.9,0
				c-0.1-3.4-1.1-6.7-3-9.5c1.9-2.9,3-6.2,3-9.7h-7.2c0,2.7-1.1,5.3-3,7.2c-1.9,1.9-4.5,3-7.2,3v7.2c3.2,0,6.4-0.9,9.1-2.5
				c0.7,1.4,1.1,3,1.1,4.7c0,0.6,0,1.1-0.1,1.7l0,0.2c-0.9,4.8-5.1,8.2-10,8.2c-5.6,0-10.2-4.6-10.2-10.2v-51.6h10.2
				c5.4,0,9.9,4.3,10.2,9.6c0,0,0,0,0,0.1c0,0.2,0,0.3,0,0.5c0,2.7-1.1,5.3-3,7.2l5.1,5.1c2.4-2.4,4-5.4,4.7-8.7h16.7
				C338.5,128.7,339.6,132.1,339,135.5"/>
		</g>
		<ellipse class="st2" cx="287.9" cy="120.8" rx="32.9" ry="31.7"/>
	</g>
	<g>
		<g>
			<path class="st1" d="M273,135.5l3.7-6c3.9,2.2,7.4,3.4,11.7,3.4c5.2,0,7.2-1.1,7.2-5.5c0-3.8-1.6-5.2-7.8-5.2h-6.6v-6.7h6.5
				c5.1,0,6.8-0.9,6.8-4.2c0-3-1.4-3.9-6.3-3.9c-3.6,0-7.8,1.1-10.3,2.6l-4.1-5.9c3.8-2.3,9.3-3.6,15.1-3.6c8.7,0,13.4,2.3,13.4,9.1
				c0,5.3-1.4,7.5-4.5,8.7c3.8,1,5.5,3.4,5.5,9.7c0,9.2-6.1,11.6-14.6,11.6C281.7,139.6,277.5,138.2,273,135.5z"/>
		</g>
	</g>
</g>
<path class="st3" d="M521,198.3c0,0-92.2-1.5-131.7,60.4c-39.4,61.8-15.3,96.4-30.7,122.9c-15.3,26.5-39.9,55.5-35.8,64.7
	c4.1,9.2,34.8-1.9,33.6,9c-1.2,11-7.8,20.8-1.2,24c6.6,3.2,12.3,2.2,10.6,3c-1.7,0.9-7.1,6.1-4.4,11.8c2.7,5.7,18.4,4.9,18.1,10.7
	c-0.2,5.8-7.8,27-1.2,41.7c6.6,14.7,35.2,16.8,65.3,4.9c30.1-11.9,42.9-11,43.1,13.7c0.2,24.6-3.5,106.2,79.4,31
	c82.9-75.2,77.4-59.9,76.7-89.4c-0.7-29.6-5.1-64.6,16.4-101.5c21.5-36.9,23.4-106.6-14.2-152.6C607.4,206.7,555.1,200.1,521,198.3z
	"/>
<g>
	<path class="st2" d="M649.9,358.3c1.3-5.4,1-11.1,0.8-16.6c-0.1-2.9-0.2-6.3-1.1-9.3c-1.1,1.8-2.3,3.5-3.6,5.3
		c-3,4.1-9.9,0.1-6.8-4c3.7-5.1,7.4-10.5,9.2-16.6c1.8-6.2,1.9-12.6,1.4-19c-1-12.5-4.3-26.5-11.2-37.2c-6.5-10-16.9-19.1-27.9-23.9
		c-5.5-2.4-11.2-3.1-17.1-2.3c-4.2,0.6-10,1.4-13.1,4.6c-0.6,0.6-1.2,0.9-1.8,1.1c-1.7,0.9-3.7,0.6-4.7-1.6
		c-2.6-6.1-7.7-10.9-13-14.7c-4.9-3.5-10.3-7.6-16.2-9.2c-11.2-3-24-1.7-35.3-0.2c-11.5,1.5-24.1,4.5-33.2,12
		c-1.4,1.2-3,2.5-4.7,3.9c-0.4,0.7-1,1.3-1.8,1.6c-5.7,5.4-11.2,12.2-9.8,19.4c1,5-6.7,7.1-7.6,2.1c-1.4-7.3,1.3-14.1,5.7-20
		c-15.2,2.5-30.8,8.5-42.1,18.4c-12.9,11.2-21.2,27.9-13.1,44.5c2.2,4.6-4.6,8.6-6.8,4c-2.2-4.5-3.4-9.1-3.9-13.7
		c-6.9,5.9-11.2,14.3-12.1,23.5c-1.2,11.8-0.4,23.8,5.4,34.5c4.4,8,10.6,15.1,19,18.9c7.4,3.4,19,5.4,26.9,1.7
		c-9-9.1-11.7-22.6-10.6-35.2c1.3-15.6,8.4-29.6,21.5-38.4c2.5-7.2,7.6-24.7-2.2-26.4c-5-0.9-2.9-8.5,2.1-7.6
		c12.8,2.2,12.4,17.1,9.8,28.7c11-5,24.9-8.3,34.7-1.6c4.2,2.9,0.2,9.7-4,6.8c-5.4-3.7-12.6-2.7-18.6-1c-5.9,1.6-11.8,3.9-16.8,7.3
		c-11.2,7.5-17.7,18.9-18.7,32.2c-0.7,10.7,0.6,23.6,9.5,30.9c9,7.4,24.2,7.2,31.9-2c3.3-3.9,8.9,1.7,5.6,5.6
		c-7.9,9.4-22.8,11.9-34.3,7.4c0.8,2.2,1.9,4.2,3.6,5.8c3,2.8,6.7,4.7,10.4,6.5c7.8,3.9,17.6,5.4,26,2.7c13.5-4.3,21.9-15.1,22.6-29
		c-5.1-1.3-9.7-3.9-12.1-9.2c-2.1-4.6,4.8-8.7,6.8-4c2.5,5.6,8.6,6.2,14.1,6.4c7.1,0.3,13.3-1.5,19.3-5.2c0.4-0.4,0.9-0.8,1.4-1.1
		c14.7-11.5,35.9-13.8,53.7-10.2c16.9,3.4,35.3,14.1,37.6,32.8c0.3,2.8,0.3,5.6-0.1,8.3c4.9,0.3,10.1-0.2,14.3-2.7
		C644.3,369.9,648.5,364.5,649.9,358.3z M550.1,281.3c10.7-7,15.6-16.8,19-28.8c1.4-4.9,9-2.8,7.6,2.1
		c-3.9,13.8-10.1,25.7-22.6,33.5c-12.4,7.7-26.9,10.5-41.4,10.6c-5.1,0-5.1-7.9,0-7.9C525.6,290.7,539.1,288.5,550.1,281.3z
		 M486.7,246.7c-1-5,6.6-7.1,7.6-2.1c1.9,8.9,7.1,14.8,16.3,16.2c8.3,1.3,20,0,21.1-10.4c0.5-5,8.4-5.1,7.9,0
		c-1.5,14.5-14.8,20.2-28,18.5C498.5,267.2,489.4,259.8,486.7,246.7z M582,324.6c-3.9-1.8-7.8-4.1-12-5.3c-3.9-1.1-8-1.6-12.1-1.8
		c-7.6-0.4-15.5-0.4-23,1.2c-6.1,1.3-12,3.5-17.8,5.9c-3.8,1.5-9.8,3.5-11.5,7.6c-2,4.7-8.8,0.6-6.8-4c2.4-5.5,9.3-8.3,14.4-10.5
		c6.3-2.6,12.9-5.3,19.6-6.6c9.2-1.8,18.8-2.2,28.1-1.3c4.7,0.5,9.5,1,13.9,2.8c3.8,1.6,7.5,3.4,11.2,5.1
		C590.6,319.9,586.6,326.7,582,324.6z"/>
	<path class="st2" d="M608.4,353.1c-13.7-12.3-36-14.5-53.2-9.9c-6.1,1.6-12.9,4.3-17.9,8.6c-0.3,0.4-0.6,0.7-1.1,1
		c-1.6,1.6-3,3.4-4.1,5.4c-2.2,4.4-3.1,9.8-0.4,14.2c1.4,2.3,3.5,4.7,5.9,6.3c0.1,0,0.3,0.1,0.4,0.1c0.7,0.3,1.4,0.6,2.2,0.8
		c9.6,2.7,19.3-2.1,29-1.7c5.2,0.2,10,1.5,14.3,4.3c3.3,2.1,6.7,5.3,10.7,6.3c7.7,1.8,19.6-2.6,21.8-10.9
		C618.6,368.4,615.5,359.5,608.4,353.1z"/>
	<path class="st2" d="M561.4,407.4c-11.4-2.2-21.7-8.8-25-20.6c-6.6-2.9-12.7-9.1-13.8-16c-0.7-4.5-0.3-8.8,1.1-12.7
		c-3.9,0.9-7.8,1.3-11.9,1c-0.3,4.3-1.3,8.5-2.8,12.4c3.4,3.4,3.7,8.5,6.3,12.5c4,6.1,8.5,9.8,14.9,13.1c4.6,2.4,9.5,4.8,12.6,9.1
		c2.3,3.1,3.9,6.7,5.6,10.2c2.4,5.1,6.2,15.7,13.6,12.6C569.1,426.2,563.9,413.5,561.4,407.4z"/>
	<path class="st2" d="M578.3,388.4c-4.3-2.4-8.9-2.8-13.7-2.3c-6.4,0.7-12.8,2.3-19.1,2.2c3.3,6.2,9.9,10,16.9,11.3
		C570,401,580.7,398.3,578.3,388.4C578.3,388.5,578.3,388.4,578.3,388.4z"/>
	<path class="st2" d="M518.6,399.2c-2.3-1.7-4.4-3.6-6.4-6c-2.2-2.7-4.4-5.6-5.7-8.9c-0.5-1.2-0.9-3.4-1.6-5.1
		c-5.1,7.6-12.9,13.3-22.6,15.8c-9.2,2.3-18.8,1.2-27.5-2.3c2,5.3,6.5,10.5,10.9,13c6.8,4,14.7,5.2,22.5,5.2
		C498.6,411,513.4,409.6,518.6,399.2z"/>
</g>
<g>
	<path class="st4" d="M600.1,320c0,4.6-3.7,8.3-8.3,8.3c-4.6,0-8.3-3.7-8.3-8.3c0-4.6,3.7-8.3,8.3-8.3
		C596.3,311.7,600.1,315.4,600.1,320z"/>
	<ellipse transform="matrix(0.2378 -0.9713 0.9713 0.2378 20.211 683.4163)" class="st4" cx="445.6" cy="328.8" rx="8.3" ry="8.3"/>
	
		<ellipse transform="matrix(0.2378 -0.9713 0.9713 0.2378 164.0276 683.9219)" class="st4" cx="517.8" cy="237.4" rx="8.3" ry="8.3"/>
	<path class="st4" d="M576.7,360.9c0,4.6-3.7,8.3-8.3,8.3c-4.6,0-8.3-3.7-8.3-8.3c0-4.6,3.7-8.3,8.3-8.3
		C573,352.6,576.7,356.3,576.7,360.9z"/>
	<path class="st4" d="M484.9,377.2c0,4.6-3.7,8.3-8.3,8.3c-4.6,0-8.3-3.7-8.3-8.3c0-4.6,3.7-8.3,8.3-8.3
		C481.1,368.9,484.9,372.6,484.9,377.2z"/>
	<polyline class="st5" points="591.8,320 670.7,280.3 844.8,280.3 	"/>
	<path class="st4" d="M606,267.2c0,4.6-3.7,8.3-8.3,8.3c-4.6,0-8.3-3.7-8.3-8.3c0-4.6,3.7-8.3,8.3-8.3
		C602.3,258.8,606,262.6,606,267.2z"/>
	<polyline class="st5" points="597.7,267.2 642.8,144.9 686.2,144.9 	"/>
	<polyline class="st5" points="446.5,329.2 399.6,273.9 167,273.9 	"/>
	
		<ellipse transform="matrix(0.2378 -0.9713 0.9713 0.2378 100.0928 653.7533)" class="st4" cx="466.6" cy="263.1" rx="8.3" ry="8.3"/>
	<polyline class="st5" points="467.6,263.5 417.3,150.6 334.8,150.6 	"/>
	<polyline class="st5" points="568.4,360.9 671.5,475.3 903.8,475.3 	"/>
	<polyline class="st5" points="476.5,377.7 373.4,471.6 134.1,471.6 	"/>
	<line class="st5" x1="517.8" y1="237.4" x2="517.8" y2="145.9"/>
</g>
<g onclick="changeImageText(1)">
	<g>
		<g>
			<linearGradient id="SVGID_2_" gradientUnits="userSpaceOnUse" x1="29.2036" y1="475.1861" x2="144.8173" y2="475.1861">
				<stop  offset="0" style="stop-color:#F1F1F4"/>
				<stop  offset="1" style="stop-color:#FFFFFF"/>
			</linearGradient>
			<path class="st6" d="M141,475.2c3.1-3.9,4.5-9,3.6-14c-1-5.2-4.2-9.6-8.7-12.1c1.5-5.2,0.5-10.8-2.8-15.2
				c-3.3-4.4-8.5-6.9-13.9-6.9c-0.8,0-1.5,0-2.3,0.1c-2.7-6.3-8.9-10.6-16-10.6c-5.6,0-10.6,2.7-13.8,6.8c-3.2-4.1-8.2-6.8-13.8-6.8
				c-7.1,0-13.3,4.3-16,10.6c-0.8-0.1-1.5-0.1-2.3-0.1c-5.5,0-10.6,2.5-13.9,7c-3.3,4.4-4.3,10.1-2.8,15.2
				c-4.5,2.5-7.7,6.9-8.7,12.1c-0.9,5,0.4,10.1,3.6,14c-3.1,3.9-4.5,9-3.6,14c0.9,5.2,4.2,9.6,8.7,12.1c-1.5,5.2-0.5,10.8,2.8,15.3
				c3.3,4.4,8.5,7,13.9,7c0.8,0,1.5-0.1,2.3-0.1c2.7,6.3,8.9,10.6,16,10.6c5.6,0,10.6-2.7,13.8-6.8c3.2,4.1,8.2,6.8,13.8,6.8
				c7.1,0,13.3-4.3,16-10.6c0.8,0.1,1.5,0.2,2.3,0.2c5.5,0,10.6-2.5,13.9-7c3.3-4.4,4.3-10.1,2.8-15.2c4.5-2.5,7.8-6.9,8.7-12.1
				C145.4,484.2,144.1,479.1,141,475.2"/>
			<path class="st1" d="M141,475.2c3.1-3.9,4.5-9,3.6-14c-1-5.2-4.2-9.6-8.7-12.1c1.5-5.2,0.5-10.8-2.8-15.2
				c-3.3-4.4-8.5-6.9-13.9-6.9c-0.8,0-1.5,0-2.3,0.1c-2.7-6.3-8.9-10.6-16-10.6c-5.6,0-10.6,2.7-13.8,6.8c-3.2-4.1-8.2-6.8-13.8-6.8
				c-7.1,0-13.3,4.3-16,10.6c-0.8-0.1-1.5-0.1-2.3-0.1c-5.5,0-10.6,2.5-13.9,7c-3.3,4.4-4.3,10.1-2.8,15.2
				c-4.5,2.5-7.7,6.9-8.7,12.1c-0.9,5,0.4,10.1,3.6,14c-3.1,3.9-4.5,9-3.6,14c0.9,5.2,4.2,9.6,8.7,12.1c-1.5,5.2-0.5,10.8,2.8,15.3
				c3.3,4.4,8.5,7,13.9,7c0.8,0,1.5-0.1,2.3-0.2c2.7,6.3,8.9,10.6,16,10.6c5.6,0,10.6-2.7,13.8-6.8c3.2,4.1,8.2,6.8,13.8,6.8
				c7.1,0,13.3-4.3,16-10.6c0.8,0.1,1.5,0.2,2.3,0.2c5.5,0,10.6-2.5,13.9-7c3.3-4.4,4.3-10.1,2.8-15.2c4.5-2.5,7.8-6.9,8.7-12.1
				C145.4,484.2,144.1,479.1,141,475.2 M83.4,516.6c0,5.6-4.6,10.2-10.2,10.2c-4.9,0-9.1-3.5-10-8.2l0-0.2c-0.1-0.6-0.1-1.1-0.1-1.7
				c0-1.7,0.4-3.3,1.1-4.7c2.7,1.7,5.8,2.5,9.1,2.5v-7.2c-2.7,0-5.3-1-7.2-3c-1.9-1.9-3-4.5-3-7.2h-7.2c0,3.5,1.1,6.9,3,9.7
				c-1.9,2.8-2.9,6.1-3,9.5c-0.3,0-0.6,0-0.9,0c-3.2,0-6.2-1.5-8.2-4.1c-2.4-3.2-2.7-7.5-0.8-11l0.9-1.6l-1.5-3.3l-1.6-0.5
				c-3.7-1.1-6.5-4.1-7.2-8c-0.6-3.3,0.5-6.8,2.9-9.1h16.7c0.7,3.3,2.3,6.3,4.7,8.7c3.2,3.1,7.5,5.1,12.3,5.1h10.2V516.6z
				 M83.4,485.4H73.2c-5.4,0-9.9-4.3-10.2-9.6v0c0-0.2,0-0.3,0-0.5c0-2.7,1.1-5.3,3-7.2l-5.1-5.1c-2.4,2.4-4,5.4-4.7,8.7H39.5
				c-2.4-2.4-3.5-5.8-2.9-9.1c0.7-3.8,3.4-6.9,7.2-8l1.6-0.5l1.5-3.3l-0.9-1.6c-1.9-3.5-1.6-7.8,0.8-11c1.9-2.6,4.9-4.1,8.2-4.1
				c0.3,0,0.6,0,0.9,0c0.1,3.4,1.1,6.7,3,9.5c-1.9,2.8-3,6.2-3,9.7l7.2,0c0-2.7,1.1-5.3,3-7.2c1.9-1.9,4.5-3,7.2-3V436
				c-3.3,0-6.4,0.9-9.1,2.5c-0.7-1.4-1.1-3-1.1-4.7c0-0.6,0.1-1.1,0.1-1.7l0-0.3c0.9-4.8,5.1-8.2,10-8.2c5.6,0,10.2,4.6,10.2,10.2
				V485.4z M90.6,433.8c0-5.6,4.6-10.2,10.2-10.2c4.9,0,9.1,3.5,10,8.2l0,0.3c0.1,0.5,0.1,1.1,0.1,1.7c0,1.7-0.4,3.3-1.1,4.7
				c-2.7-1.7-5.8-2.5-9.1-2.5v7.2c2.7,0,5.3,1.1,7.2,3c1.9,1.9,3,4.5,3,7.2l7.2,0c0-3.5-1-6.9-3-9.7c1.9-2.8,2.9-6.1,3-9.5
				c0.3,0,0.6,0,0.9,0c3.3,0,6.2,1.5,8.2,4.1c2.4,3.2,2.7,7.5,0.8,11l-0.9,1.6l0.7,1.6l0.7,1.7l1.6,0.5c3.7,1.1,6.5,4.2,7.2,8
				c0.6,3.3-0.5,6.7-2.9,9.1h-16.7c-0.7-3.3-2.3-6.3-4.7-8.7c-3.2-3.1-7.5-5.1-12.3-5.1H90.6V433.8z M137.5,487.9
				c-0.7,3.8-3.4,6.9-7.2,8l-1.6,0.5l-1.5,3.3l0.9,1.6c1.9,3.5,1.6,7.8-0.8,11c-1.9,2.6-4.9,4.1-8.2,4.1c-0.3,0-0.6,0-0.9,0
				c-0.1-3.4-1.1-6.7-3-9.5c1.9-2.9,3-6.2,3-9.7H111c0,2.7-1.1,5.3-3,7.2c-1.9,1.9-4.5,3-7.2,3v7.2c3.2,0,6.4-0.9,9.1-2.5
				c0.7,1.4,1.1,3,1.1,4.7c0,0.6,0,1.1-0.1,1.7l0,0.2c-0.9,4.8-5.1,8.2-10,8.2c-5.6,0-10.2-4.6-10.2-10.2V465h10.2
				c5.4,0,9.9,4.3,10.2,9.6c0,0,0,0,0,0.1c0,0.2,0,0.3,0,0.5c0,2.7-1.1,5.3-3,7.2l5.1,5.1c2.4-2.4,4-5.4,4.7-8.7h16.7
				C136.9,481.1,138.1,484.6,137.5,487.9"/>
		</g>
		<ellipse class="st2" cx="86.3" cy="473.2" rx="32.9" ry="31.7"/>
	</g>
	<g>
		<g>
			<path class="st1" d="M85.2,460.8h-6.4v-7.2H93v37.8h-7.9V460.8z"/>
		</g>
	</g>
</g>
<g onclick="changeImageText(7)">
	<g>
		<g>
			<linearGradient id="SVGID_3_" gradientUnits="userSpaceOnUse" x1="895.1835" y1="475.1861" x2="1010.7972" y2="475.1861">
				<stop  offset="0" style="stop-color:#F1F1F4"/>
				<stop  offset="1" style="stop-color:#FFFFFF"/>
			</linearGradient>
			<path class="st7" d="M1007,475.2c3.1-3.9,4.5-9,3.6-14c-1-5.2-4.2-9.6-8.7-12.1c1.5-5.2,0.5-10.8-2.8-15.2
				c-3.3-4.4-8.5-6.9-13.9-6.9c-0.8,0-1.5,0-2.3,0.1c-2.7-6.3-8.9-10.6-16-10.6c-5.6,0-10.6,2.7-13.8,6.8c-3.2-4.1-8.2-6.8-13.8-6.8
				c-7.1,0-13.3,4.3-16,10.6c-0.8-0.1-1.5-0.1-2.3-0.1c-5.5,0-10.6,2.5-13.9,7c-3.3,4.4-4.3,10.1-2.8,15.2
				c-4.5,2.5-7.7,6.9-8.7,12.1c-0.9,5,0.4,10.1,3.6,14c-3.1,3.9-4.5,9-3.6,14c0.9,5.2,4.2,9.6,8.7,12.1c-1.5,5.2-0.5,10.8,2.8,15.3
				c3.3,4.4,8.5,7,13.9,7c0.8,0,1.5-0.1,2.3-0.1c2.7,6.3,8.9,10.6,16,10.6c5.6,0,10.6-2.7,13.8-6.8c3.2,4.1,8.2,6.8,13.8,6.8
				c7.1,0,13.3-4.3,16-10.6c0.8,0.1,1.5,0.2,2.3,0.2c5.5,0,10.6-2.5,13.9-7c3.3-4.4,4.3-10.1,2.8-15.2c4.5-2.5,7.8-6.9,8.7-12.1
				C1011.4,484.2,1010.1,479.1,1007,475.2"/>
			<path class="st1" d="M1007,475.2c3.1-3.9,4.5-9,3.6-14c-1-5.2-4.2-9.6-8.7-12.1c1.5-5.2,0.5-10.8-2.8-15.2
				c-3.3-4.4-8.5-6.9-13.9-6.9c-0.8,0-1.5,0-2.3,0.1c-2.7-6.3-8.9-10.6-16-10.6c-5.6,0-10.6,2.7-13.8,6.8c-3.2-4.1-8.2-6.8-13.8-6.8
				c-7.1,0-13.3,4.3-16,10.6c-0.8-0.1-1.5-0.1-2.3-0.1c-5.5,0-10.6,2.5-13.9,7c-3.3,4.4-4.3,10.1-2.8,15.2
				c-4.5,2.5-7.7,6.9-8.7,12.1c-0.9,5,0.4,10.1,3.6,14c-3.1,3.9-4.5,9-3.6,14c0.9,5.2,4.2,9.6,8.7,12.1c-1.5,5.2-0.5,10.8,2.8,15.3
				c3.3,4.4,8.5,7,13.9,7c0.8,0,1.5-0.1,2.3-0.2c2.7,6.3,8.9,10.6,16,10.6c5.6,0,10.6-2.7,13.8-6.8c3.2,4.1,8.2,6.8,13.8,6.8
				c7.1,0,13.3-4.3,16-10.6c0.8,0.1,1.5,0.2,2.3,0.2c5.5,0,10.6-2.5,13.9-7c3.3-4.4,4.3-10.1,2.8-15.2c4.5-2.5,7.8-6.9,8.7-12.1
				C1011.4,484.2,1010.1,479.1,1007,475.2 M949.4,516.6c0,5.6-4.6,10.2-10.2,10.2c-4.9,0-9.1-3.5-10-8.2l0-0.2
				c-0.1-0.6-0.1-1.1-0.1-1.7c0-1.7,0.4-3.3,1.1-4.7c2.7,1.7,5.8,2.5,9.1,2.5v-7.2c-2.7,0-5.3-1-7.2-3c-1.9-1.9-3-4.5-3-7.2h-7.2
				c0,3.5,1.1,6.9,3,9.7c-1.9,2.8-2.9,6.1-3,9.5c-0.3,0-0.6,0-0.9,0c-3.2,0-6.2-1.5-8.2-4.1c-2.4-3.2-2.7-7.5-0.8-11l0.9-1.6
				l-1.5-3.3l-1.6-0.5c-3.7-1.1-6.5-4.1-7.2-8c-0.6-3.3,0.5-6.8,2.9-9.1h16.7c0.7,3.3,2.3,6.3,4.7,8.7c3.2,3.1,7.5,5.1,12.3,5.1
				h10.2V516.6z M949.4,485.4h-10.2c-5.4,0-9.9-4.3-10.2-9.6v0c0-0.2,0-0.3,0-0.5c0-2.7,1.1-5.3,3-7.2l-5.1-5.1
				c-2.4,2.4-4,5.4-4.7,8.7h-16.7c-2.4-2.4-3.5-5.8-2.9-9.1c0.7-3.8,3.4-6.9,7.2-8l1.6-0.5l1.5-3.3l-0.9-1.6
				c-1.9-3.5-1.6-7.8,0.8-11c1.9-2.6,4.9-4.1,8.2-4.1c0.3,0,0.6,0,0.9,0c0.1,3.4,1.1,6.7,3,9.5c-1.9,2.8-3,6.2-3,9.7l7.2,0
				c0-2.7,1.1-5.3,3-7.2c1.9-1.9,4.5-3,7.2-3V436c-3.3,0-6.4,0.9-9.1,2.5c-0.7-1.4-1.1-3-1.1-4.7c0-0.6,0.1-1.1,0.1-1.7l0-0.3
				c0.9-4.8,5.1-8.2,10-8.2c5.6,0,10.2,4.6,10.2,10.2V485.4z M956.6,433.8c0-5.6,4.6-10.2,10.2-10.2c4.9,0,9.1,3.5,10,8.2l0,0.3
				c0.1,0.5,0.1,1.1,0.1,1.7c0,1.7-0.4,3.3-1.1,4.7c-2.7-1.7-5.8-2.5-9.1-2.5v7.2c2.7,0,5.3,1.1,7.2,3c1.9,1.9,3,4.5,3,7.2l7.2,0
				c0-3.5-1-6.9-3-9.7c1.9-2.8,2.9-6.1,3-9.5c0.3,0,0.6,0,0.9,0c3.3,0,6.2,1.5,8.2,4.1c2.4,3.2,2.7,7.5,0.8,11l-0.9,1.6l0.7,1.6
				l0.7,1.7l1.6,0.5c3.7,1.1,6.5,4.2,7.2,8c0.6,3.3-0.5,6.7-2.9,9.1h-16.7c-0.7-3.3-2.3-6.3-4.7-8.7c-3.2-3.1-7.5-5.1-12.3-5.1
				h-10.2V433.8z M1003.4,487.9c-0.7,3.8-3.4,6.9-7.2,8l-1.6,0.5l-1.5,3.3l0.9,1.6c1.9,3.5,1.6,7.8-0.8,11c-1.9,2.6-4.9,4.1-8.2,4.1
				c-0.3,0-0.6,0-0.9,0c-0.1-3.4-1.1-6.7-3-9.5c1.9-2.9,3-6.2,3-9.7H977c0,2.7-1.1,5.3-3,7.2c-1.9,1.9-4.5,3-7.2,3v7.2
				c3.2,0,6.4-0.9,9.1-2.5c0.7,1.4,1.1,3,1.1,4.7c0,0.6,0,1.1-0.1,1.7l0,0.2c-0.9,4.8-5.1,8.2-10,8.2c-5.6,0-10.2-4.6-10.2-10.2V465
				h10.2c5.4,0,9.9,4.3,10.2,9.6c0,0,0,0,0,0.1c0,0.2,0,0.3,0,0.5c0,2.7-1.1,5.3-3,7.2l5.1,5.1c2.4-2.4,4-5.4,4.7-8.7h16.7
				C1002.9,481.1,1004,484.6,1003.4,487.9"/>
		</g>
		<ellipse class="st2" cx="952.3" cy="473.2" rx="32.9" ry="31.7"/>
	</g>
	<g>
		<g>
			<path class="st1" d="M958.7,460.4h-19.4v-6.8h28.2v5.8l-13.7,32h-8.4L958.7,460.4z"/>
		</g>
	</g>
</g>
<g onclick="changeImageText(8)">
	<g>
		<g>
			<linearGradient id="SVGID_4_" gradientUnits="userSpaceOnUse" x1="479.8508" y1="469.8317" x2="556.636" y2="469.8317">
				<stop  offset="0" style="stop-color:#F1F1F4"/>
				<stop  offset="1" style="stop-color:#FFFFFF"/>
			</linearGradient>
			<path class="st8" d="M554.1,469.8c2.1-2.6,3-6,2.4-9.3c-0.6-3.5-2.8-6.4-5.8-8.1c1-3.4,0.3-7.2-1.9-10.1
				c-2.2-2.9-5.6-4.6-9.2-4.6c-0.5,0-1,0-1.5,0.1c-1.8-4.2-5.9-7-10.6-7c-3.7,0-7,1.8-9.2,4.5c-2.1-2.7-5.4-4.5-9.2-4.5
				c-4.7,0-8.9,2.9-10.6,7c-0.5-0.1-1-0.1-1.5-0.1c-3.7,0-7,1.7-9.2,4.6c-2.2,2.9-2.8,6.7-1.9,10.1c-3,1.7-5.1,4.6-5.8,8
				c-0.6,3.3,0.3,6.7,2.4,9.3c-2.1,2.6-3,6-2.4,9.3c0.6,3.5,2.8,6.4,5.8,8.1c-1,3.4-0.3,7.2,1.9,10.1c2.2,2.9,5.6,4.6,9.2,4.6
				c0.5,0,1,0,1.5-0.1c1.8,4.2,5.9,7,10.6,7c3.7,0,7-1.8,9.2-4.5c2.1,2.7,5.4,4.5,9.2,4.5c4.7,0,8.9-2.9,10.6-7
				c0.5,0.1,1,0.1,1.5,0.1c3.7,0,7-1.7,9.2-4.6c2.2-2.9,2.8-6.7,1.9-10.1c3-1.7,5.2-4.6,5.8-8.1
				C557.1,475.8,556.2,472.4,554.1,469.8"/>
			<path class="st9" d="M554.1,469.8c2.1-2.6,3-6,2.4-9.3c-0.6-3.5-2.8-6.4-5.8-8.1c1-3.4,0.3-7.2-1.9-10.1
				c-2.2-2.9-5.6-4.6-9.3-4.6c-0.5,0-1,0-1.5,0.1c-1.8-4.2-5.9-7-10.6-7c-3.7,0-7,1.8-9.2,4.5c-2.1-2.7-5.4-4.5-9.2-4.5
				c-4.7,0-8.9,2.9-10.6,7c-0.5-0.1-1-0.1-1.5-0.1c-3.7,0-7,1.7-9.2,4.6c-2.2,2.9-2.8,6.7-1.9,10.1c-3,1.7-5.1,4.6-5.8,8.1
				c-0.6,3.3,0.3,6.7,2.4,9.3c-2.1,2.6-3,6-2.4,9.3c0.6,3.5,2.8,6.4,5.8,8.1c-1,3.4-0.3,7.2,1.9,10.1c2.2,2.9,5.6,4.6,9.2,4.6
				c0.5,0,1,0,1.5-0.1c1.8,4.2,5.9,7.1,10.6,7.1c3.7,0,7-1.8,9.2-4.5c2.1,2.7,5.4,4.5,9.2,4.5c4.7,0,8.9-2.9,10.6-7.1
				c0.5,0.1,1,0.1,1.5,0.1c3.7,0,7-1.7,9.2-4.6c2.2-2.9,2.8-6.7,1.9-10.1c3-1.7,5.2-4.6,5.8-8C557.1,475.8,556.2,472.4,554.1,469.8
				 M515.9,497.3c0,3.7-3,6.8-6.8,6.8c-3.2,0-6-2.3-6.6-5.5l0-0.2c-0.1-0.4-0.1-0.8-0.1-1.1c0-1.1,0.3-2.2,0.8-3.1
				c1.8,1.1,3.9,1.7,6,1.7v-4.8c-1.8,0-3.5-0.7-4.8-2c-1.3-1.3-2-3-2-4.8h-4.8c0,2.3,0.7,4.6,2,6.5c-1.3,1.8-2,4-2,6.3
				c-0.2,0-0.4,0-0.6,0c-2.2,0-4.1-1-5.4-2.7c-1.6-2.1-1.8-5-0.5-7.3l0.6-1l-1-2.2l-1.1-0.3c-2.5-0.7-4.3-2.8-4.8-5.3
				c-0.4-2.2,0.3-4.5,1.9-6h11.1c0.5,2.2,1.5,4.2,3.1,5.8c2.1,2.1,5,3.4,8.2,3.4h6.8V497.3z M515.9,476.6h-6.8
				c-3.6,0-6.6-2.8-6.8-6.4v0c0-0.1,0-0.2,0-0.3c0-1.8,0.7-3.5,2-4.8l-3.4-3.4c-1.6,1.6-2.7,3.6-3.1,5.8h-11.1
				c-1.6-1.6-2.3-3.8-1.9-6c0.5-2.5,2.3-4.6,4.8-5.3l1.1-0.3l1-2.2l-0.6-1c-1.3-2.3-1.1-5.2,0.5-7.3c1.3-1.7,3.3-2.7,5.4-2.7
				c0.2,0,0.4,0,0.6,0c0,2.3,0.7,4.4,2,6.3c-1.3,1.9-2,4.1-2,6.5l4.8,0c0-1.8,0.7-3.5,2-4.8c1.3-1.3,3-2,4.8-2v-4.8
				c-2.2,0-4.2,0.6-6,1.7c-0.5-1-0.8-2-0.8-3.1c0-0.4,0-0.8,0.1-1.1l0-0.2c0.6-3.2,3.4-5.5,6.6-5.5c3.7,0,6.8,3,6.8,6.8V476.6z
				 M520.6,442.4c0-3.7,3-6.8,6.8-6.8c3.2,0,6,2.3,6.7,5.5l0,0.2c0.1,0.4,0.1,0.8,0.1,1.1c0,1.1-0.3,2.2-0.8,3.1
				c-1.8-1.1-3.9-1.7-6-1.7v4.8c1.8,0,3.5,0.7,4.8,2c1.3,1.3,2,3,2,4.8l4.8,0c0-2.3-0.7-4.6-2-6.5c1.3-1.9,2-4,2-6.3
				c0.2,0,0.4,0,0.6,0c2.2,0,4.1,1,5.4,2.7c1.6,2.1,1.8,5,0.5,7.3l-0.6,1l0.5,1.1l0.5,1.1l1.1,0.3c2.5,0.7,4.3,2.8,4.8,5.3
				c0.4,2.2-0.3,4.5-1.9,6h-11.1c-0.5-2.2-1.5-4.2-3.1-5.8c-2.1-2.1-5-3.4-8.2-3.4h-6.8V442.4z M551.8,478.3
				c-0.5,2.6-2.3,4.6-4.8,5.3l-1.1,0.3l-1,2.2l0.6,1c1.3,2.3,1.1,5.2-0.5,7.3c-1.3,1.7-3.3,2.7-5.4,2.7c-0.2,0-0.4,0-0.6,0
				c0-2.3-0.7-4.4-2-6.3c1.3-1.9,2-4.1,2-6.5h-4.8c0,1.8-0.7,3.5-2,4.8c-1.3,1.3-3,2-4.8,2v4.8c2.2,0,4.2-0.6,6-1.7
				c0.5,0.9,0.8,2,0.8,3.1c0,0.4,0,0.8-0.1,1.1l0,0.2c-0.6,3.2-3.4,5.5-6.7,5.5c-3.7,0-6.8-3-6.8-6.8v-34.3h6.8
				c3.6,0,6.6,2.8,6.8,6.4c0,0,0,0,0,0c0,0.1,0,0.2,0,0.3c0,1.8-0.7,3.5-2,4.8l3.4,3.4c1.6-1.6,2.7-3.6,3.1-5.8h11.1
				C551.4,473.8,552.2,476.1,551.8,478.3"/>
		</g>
		<ellipse class="st2" cx="517.8" cy="468.5" rx="21.9" ry="21.1"/>
	</g>
	<g>
		<g>
			<path class="st9" d="M507.9,473.5c0-3,0.9-5.7,4-6.7c-2.6-1-3.2-3-3.2-5.3c0-3.4,1.9-6.4,10-6.4c8.1,0,10,3.1,10,6.4
				c0,2.3-0.6,4.4-3.2,5.3c3.2,1,4.1,3.7,4.1,6.7c0,4.2-2.6,7.6-10.9,7.6C510.5,481.1,507.9,477.7,507.9,473.5z M524.2,473.1
				c0-2.4-1.5-3.8-5.5-3.8c-4,0-5.4,1.4-5.4,3.8c0,2.3,1.4,3.8,5.4,3.8C522.8,476.9,524.2,475.4,524.2,473.1z M523.5,462.2
				c0-1.8-1.1-2.9-4.8-2.9c-3.7,0-4.8,1.1-4.8,2.9c0,1.8,1.1,3,4.8,3C522.5,465.2,523.5,464,523.5,462.2z"/>
		</g>
	</g>
</g>
<g onclick="changeImageText(5)">
	<g>
		<g>
			<linearGradient id="SVGID_5_" gradientUnits="userSpaceOnUse" x1="684.5689" y1="122.7605" x2="800.1826" y2="122.7605">
				<stop  offset="0" style="stop-color:#F1F1F4"/>
				<stop  offset="1" style="stop-color:#FFFFFF"/>
			</linearGradient>
			<path class="st10" d="M796.3,122.8c3.1-3.9,4.5-9,3.6-14c-1-5.2-4.2-9.6-8.7-12.1c1.5-5.2,0.5-10.8-2.8-15.2
				c-3.3-4.4-8.5-6.9-13.9-6.9c-0.8,0-1.5,0-2.3,0.1c-2.7-6.3-8.9-10.6-16-10.6c-5.6,0-10.6,2.7-13.8,6.8c-3.2-4.1-8.2-6.8-13.8-6.8
				c-7.1,0-13.3,4.3-16,10.6c-0.8-0.1-1.5-0.1-2.3-0.1c-5.5,0-10.6,2.5-13.9,7c-3.3,4.4-4.3,10.1-2.8,15.2
				c-4.5,2.5-7.7,6.9-8.7,12.1c-0.9,5,0.4,10.1,3.6,14c-3.1,3.9-4.5,9-3.6,14c0.9,5.2,4.2,9.6,8.7,12.1c-1.5,5.2-0.5,10.8,2.8,15.3
				c3.3,4.4,8.5,7,13.9,7c0.8,0,1.5-0.1,2.3-0.1c2.7,6.3,8.9,10.6,16,10.6c5.6,0,10.6-2.7,13.8-6.8c3.2,4.1,8.2,6.8,13.8,6.8
				c7.1,0,13.3-4.3,16-10.6c0.8,0.1,1.5,0.2,2.3,0.2c5.5,0,10.6-2.5,13.9-7c3.3-4.4,4.3-10.1,2.8-15.2c4.5-2.5,7.8-6.9,8.7-12.1
				C800.8,131.7,799.5,126.6,796.3,122.8"/>
			<path class="st1" d="M796.3,122.8c3.1-3.9,4.5-9,3.6-14c-1-5.2-4.2-9.6-8.7-12.1c1.5-5.2,0.5-10.8-2.8-15.2
				c-3.3-4.4-8.5-6.9-13.9-6.9c-0.8,0-1.5,0-2.3,0.1c-2.7-6.3-8.9-10.6-16-10.6c-5.6,0-10.6,2.7-13.8,6.8c-3.2-4.1-8.2-6.8-13.8-6.8
				c-7.1,0-13.3,4.3-16,10.6c-0.8-0.1-1.5-0.1-2.3-0.1c-5.5,0-10.6,2.5-13.9,7c-3.3,4.4-4.3,10.1-2.8,15.2
				c-4.5,2.5-7.7,6.9-8.7,12.1c-0.9,5,0.4,10.1,3.6,14c-3.1,3.9-4.5,9-3.6,14c0.9,5.2,4.2,9.6,8.7,12.1c-1.5,5.2-0.5,10.8,2.8,15.3
				c3.3,4.4,8.5,7,13.9,7c0.8,0,1.5-0.1,2.3-0.2c2.7,6.3,8.9,10.6,16,10.6c5.6,0,10.6-2.7,13.8-6.8c3.2,4.1,8.2,6.8,13.8,6.8
				c7.1,0,13.3-4.3,16-10.6c0.8,0.1,1.5,0.2,2.3,0.2c5.5,0,10.6-2.5,13.9-7c3.3-4.4,4.3-10.1,2.8-15.2c4.5-2.5,7.8-6.9,8.7-12.1
				C800.8,131.7,799.5,126.6,796.3,122.8 M738.8,164.1c0,5.6-4.6,10.2-10.2,10.2c-4.9,0-9.1-3.5-10-8.2l0-0.2
				c-0.1-0.6-0.1-1.1-0.1-1.7c0-1.7,0.4-3.3,1.1-4.7c2.7,1.7,5.8,2.5,9.1,2.5v-7.2c-2.7,0-5.3-1-7.2-3c-1.9-1.9-3-4.5-3-7.2h-7.2
				c0,3.5,1.1,6.9,3,9.7c-1.9,2.8-2.9,6.1-3,9.5c-0.3,0-0.6,0-0.9,0c-3.2,0-6.2-1.5-8.2-4.1c-2.4-3.2-2.7-7.5-0.8-11l0.9-1.6
				l-1.5-3.3l-1.6-0.5c-3.7-1.1-6.5-4.1-7.2-8c-0.6-3.3,0.5-6.8,2.9-9.1h16.7c0.7,3.3,2.3,6.3,4.7,8.7c3.2,3.1,7.5,5.1,12.3,5.1
				h10.2V164.1z M738.8,133h-10.2c-5.4,0-9.9-4.3-10.2-9.6v0c0-0.2,0-0.3,0-0.5c0-2.7,1.1-5.3,3-7.2l-5.1-5.1
				c-2.4,2.4-4,5.4-4.7,8.7h-16.7c-2.4-2.4-3.5-5.8-2.9-9.1c0.7-3.8,3.4-6.9,7.2-8l1.6-0.5l1.5-3.3l-0.9-1.6
				c-1.9-3.5-1.6-7.8,0.8-11c1.9-2.6,4.9-4.1,8.2-4.1c0.3,0,0.6,0,0.9,0c0.1,3.4,1.1,6.7,3,9.5c-1.9,2.8-3,6.2-3,9.7l7.2,0
				c0-2.7,1.1-5.3,3-7.2c1.9-1.9,4.5-3,7.2-3v-7.2c-3.3,0-6.4,0.9-9.1,2.5c-0.7-1.4-1.1-3-1.1-4.7c0-0.6,0.1-1.1,0.1-1.7l0-0.3
				c0.9-4.8,5.1-8.2,10-8.2c5.6,0,10.2,4.6,10.2,10.2V133z M746,81.4c0-5.6,4.6-10.2,10.2-10.2c4.9,0,9.1,3.5,10,8.2l0,0.3
				c0.1,0.5,0.1,1.1,0.1,1.7c0,1.7-0.4,3.3-1.1,4.7c-2.7-1.7-5.8-2.5-9.1-2.5v7.2c2.7,0,5.3,1.1,7.2,3c1.9,1.9,3,4.5,3,7.2l7.2,0
				c0-3.5-1-6.9-3-9.7c1.9-2.8,2.9-6.1,3-9.5c0.3,0,0.6,0,0.9,0c3.3,0,6.2,1.5,8.2,4.1c2.4,3.2,2.7,7.5,0.8,11l-0.9,1.6l0.7,1.6
				l0.7,1.7l1.6,0.5c3.7,1.1,6.5,4.2,7.2,8c0.6,3.3-0.5,6.7-2.9,9.1h-16.7c-0.7-3.3-2.3-6.3-4.7-8.7c-3.2-3.1-7.5-5.1-12.3-5.1H746
				V81.4z M792.8,135.5c-0.7,3.8-3.4,6.9-7.2,8l-1.6,0.5l-1.5,3.3l0.9,1.6c1.9,3.5,1.6,7.8-0.8,11c-1.9,2.6-4.9,4.1-8.2,4.1
				c-0.3,0-0.6,0-0.9,0c-0.1-3.4-1.1-6.7-3-9.5c1.9-2.9,3-6.2,3-9.7h-7.2c0,2.7-1.1,5.3-3,7.2c-1.9,1.9-4.5,3-7.2,3v7.2
				c3.2,0,6.4-0.9,9.1-2.5c0.7,1.4,1.1,3,1.1,4.7c0,0.6,0,1.1-0.1,1.7l0,0.2c-0.9,4.8-5.1,8.2-10,8.2c-5.6,0-10.2-4.6-10.2-10.2
				v-51.6h10.2c5.4,0,9.9,4.3,10.2,9.6c0,0,0,0,0,0.1c0,0.2,0,0.3,0,0.5c0,2.7-1.1,5.3-3,7.2l5.1,5.1c2.4-2.4,4-5.4,4.7-8.7h16.7
				C792.3,128.7,793.4,132.1,792.8,135.5"/>
		</g>
		<ellipse class="st2" cx="741.7" cy="120.8" rx="32.9" ry="31.7"/>
	</g>
	<g>
		<g>
			<path class="st1" d="M727.8,135.4l3.7-6c3.1,1.7,6.7,3.5,11.3,3.5c4.3,0,7.8-0.7,7.8-6.3c0-5.5-3.3-6.3-7.5-6.3c-3,0-5,0.4-7,1.3
				l-6.7-2l1-18.5h25.3v6.8h-18.5l-0.4,7.1c1.7-0.8,4.7-1.4,8.3-1.4c7.2,0,13.6,1.6,13.6,12.7c0,11.2-6.5,13.2-15.6,13.2
				C735.8,139.5,731.1,137.6,727.8,135.4z"/>
		</g>
	</g>
</g>
<g onclick="changeImageText(2)">
	<g>
		<g>
			<path class="st11" d="M172.7,271.8c3.1-3.9,4.5-9,3.6-14c-1-5.2-4.2-9.6-8.7-12.1c1.5-5.2,0.5-10.8-2.8-15.2
				c-3.3-4.4-8.5-7-13.9-7c-0.8,0-1.5,0.1-2.3,0.1c-2.7-6.3-8.9-10.6-16-10.6c-5.6,0-10.6,2.7-13.8,6.8c-3.2-4.1-8.2-6.8-13.8-6.8
				c-7.1,0-13.3,4.3-16,10.6c-0.8-0.1-1.5-0.2-2.3-0.2c-5.5,0-10.6,2.5-13.9,7c-3.3,4.4-4.3,10.1-2.8,15.2
				c-4.5,2.5-7.7,6.9-8.7,12.1c-0.9,5,0.4,10.1,3.6,14c-3.1,3.9-4.5,9-3.6,14c0.9,5.2,4.2,9.6,8.7,12.1c-1.5,5.2-0.5,10.8,2.8,15.2
				c3.3,4.4,8.5,7,13.9,7c0.8,0,1.5-0.1,2.3-0.1c2.7,6.3,8.9,10.6,16,10.6c5.6,0,10.6-2.7,13.8-6.8c3.2,4.1,8.2,6.8,13.8,6.8
				c7.1,0,13.3-4.3,16-10.6c0.8,0.1,1.5,0.2,2.3,0.2c5.5,0,10.6-2.5,13.9-7c3.3-4.4,4.3-10.1,2.8-15.2c4.5-2.5,7.8-6.9,8.7-12.1
				C177.2,280.7,175.8,275.6,172.7,271.8"/>
			<path class="st12" d="M172.7,271.8c3.1-3.9,4.5-9,3.6-14c-1-5.2-4.2-9.6-8.7-12.1c1.5-5.2,0.5-10.8-2.8-15.2
				c-3.3-4.4-8.5-7-13.9-7c-0.8,0-1.5,0-2.3,0.1c-2.7-6.3-8.9-10.6-16-10.6c-5.6,0-10.6,2.7-13.8,6.8c-3.2-4.1-8.2-6.8-13.8-6.8
				c-7.1,0-13.3,4.3-16,10.6c-0.8-0.1-1.5-0.2-2.3-0.2c-5.5,0-10.6,2.5-13.9,7c-3.3,4.4-4.3,10.1-2.8,15.2
				c-4.5,2.5-7.7,6.9-8.7,12.1c-0.9,5,0.4,10.1,3.6,14c-3.1,3.9-4.5,9-3.6,14c0.9,5.2,4.2,9.6,8.7,12.1c-1.5,5.2-0.5,10.8,2.8,15.2
				c3.3,4.4,8.5,7,13.9,7c0.8,0,1.5-0.1,2.3-0.2c2.7,6.3,8.9,10.6,16,10.6c5.6,0,10.6-2.7,13.8-6.8c3.2,4.1,8.2,6.8,13.8,6.8
				c7.1,0,13.3-4.3,16-10.6c0.8,0.1,1.5,0.2,2.3,0.2c5.5,0,10.6-2.5,13.9-7c3.3-4.4,4.3-10.1,2.8-15.2c4.5-2.5,7.8-6.9,8.7-12.1
				C177.2,280.7,175.8,275.6,172.7,271.8 M115.1,313.1c0,5.6-4.6,10.2-10.2,10.2c-4.9,0-9.1-3.5-10-8.2l0-0.2
				c-0.1-0.6-0.1-1.1-0.1-1.7c0-1.7,0.4-3.3,1.1-4.7c2.7,1.7,5.8,2.5,9.1,2.5v-7.2c-2.7,0-5.3-1-7.2-3c-1.9-1.9-3-4.5-3-7.2h-7.2
				c0,3.5,1.1,6.9,3,9.7c-1.9,2.8-2.9,6.1-3,9.5c-0.3,0-0.6,0-0.9,0c-3.2,0-6.2-1.5-8.2-4.1c-2.4-3.2-2.7-7.5-0.8-11l0.9-1.6
				l-1.5-3.3l-1.6-0.5c-3.7-1.1-6.5-4.1-7.2-8c-0.6-3.3,0.5-6.8,2.9-9.1h16.7c0.7,3.3,2.3,6.3,4.7,8.7c3.2,3.1,7.5,5.1,12.3,5.1
				h10.2V313.1z M115.1,282h-10.2c-5.4,0-9.9-4.3-10.2-9.6v0c0-0.2,0-0.3,0-0.5c0-2.7,1.1-5.3,3-7.2l-5.1-5.1
				c-2.4,2.4-4,5.4-4.7,8.7H71.2c-2.4-2.4-3.5-5.8-2.9-9.1c0.7-3.8,3.4-6.9,7.2-8l1.6-0.5l1.5-3.3l-0.9-1.6c-1.9-3.5-1.6-7.8,0.8-11
				c1.9-2.6,4.9-4.1,8.2-4.1c0.3,0,0.6,0,0.9,0c0.1,3.4,1.1,6.7,3,9.5c-1.9,2.8-3,6.2-3,9.7l7.2,0c0-2.7,1.1-5.3,3-7.2
				c1.9-1.9,4.5-3,7.2-3v-7.2c-3.3,0-6.4,0.9-9.1,2.5c-0.7-1.4-1.1-3-1.1-4.7c0-0.6,0.1-1.1,0.1-1.7l0-0.3c0.9-4.8,5.1-8.2,10-8.2
				c5.6,0,10.2,4.6,10.2,10.2V282z M122.3,230.4c0-5.6,4.6-10.2,10.2-10.2c4.9,0,9.1,3.5,10,8.2l0,0.2c0.1,0.5,0.1,1.1,0.1,1.7
				c0,1.7-0.4,3.3-1.1,4.7c-2.7-1.7-5.8-2.5-9.1-2.5v7.2c2.7,0,5.3,1.1,7.2,3c1.9,1.9,3,4.5,3,7.2l7.2,0c0-3.5-1-6.9-3-9.7
				c1.9-2.8,2.9-6.1,3-9.5c0.3,0,0.6,0,0.9,0c3.3,0,6.2,1.5,8.2,4.1c2.4,3.2,2.7,7.5,0.8,11l-0.9,1.6l0.7,1.6l0.7,1.7l1.6,0.5
				c3.7,1.1,6.5,4.2,7.2,8c0.6,3.3-0.5,6.7-2.9,9.1h-16.7c-0.7-3.3-2.3-6.3-4.7-8.7c-3.2-3.1-7.5-5.1-12.3-5.1h-10.2V230.4z
				 M169.2,284.5c-0.7,3.8-3.4,6.9-7.2,8l-1.6,0.5l-1.5,3.3l0.9,1.6c1.9,3.5,1.6,7.8-0.8,11c-1.9,2.6-4.9,4.1-8.2,4.1
				c-0.3,0-0.6,0-0.9,0c-0.1-3.4-1.1-6.7-3-9.5c1.9-2.9,3-6.2,3-9.7h-7.2c0,2.7-1.1,5.3-3,7.2c-1.9,1.9-4.5,3-7.2,3v7.2
				c3.2,0,6.4-0.9,9.1-2.5c0.7,1.4,1.1,3,1.1,4.7c0,0.6,0,1.1-0.1,1.7l0,0.2c-0.9,4.8-5.1,8.2-10,8.2c-5.6,0-10.2-4.6-10.2-10.2
				v-51.6h10.2c5.4,0,9.9,4.3,10.2,9.6l0,0.1c0,0.2,0,0.3,0,0.5c0,2.7-1.1,5.3-3,7.2l5.1,5.1c2.4-2.4,4-5.4,4.7-8.7h16.7
				C168.7,277.7,169.8,281.1,169.2,284.5"/>
		</g>
		<ellipse class="st2" cx="119.4" cy="269.8" rx="32.9" ry="31.7"/>
	</g>
	<g>
		<path class="st12" d="M106.7,281l12.3-10.7c5.7-4.9,7.7-6.8,7.7-10.1c0-3-1.3-4.4-6.5-4.4c-3.7,0-8,1.1-10.3,2.3l-3.6-6.2
			c4-2.1,7.5-3.2,14.7-3.2c9,0,13.6,3,13.6,10.6c0,5.8-2.8,9.2-8.9,14.4l-7.8,6.7h17.1v6.6h-28.4V281z"/>
	</g>
</g>
<g onclick="changeImageText(6)">
	<g>
		<g>
			<path class="st11" d="M959.4,271.8c3.1-3.9,4.5-9,3.6-14c-1-5.2-4.2-9.6-8.7-12.1c1.5-5.2,0.5-10.8-2.8-15.2
				c-3.3-4.4-8.5-7-13.9-7c-0.8,0-1.5,0.1-2.3,0.1c-2.7-6.3-8.9-10.6-16-10.6c-5.6,0-10.6,2.7-13.8,6.8c-3.2-4.1-8.2-6.8-13.8-6.8
				c-7.1,0-13.3,4.3-16,10.6c-0.8-0.1-1.5-0.2-2.3-0.2c-5.5,0-10.6,2.5-13.9,7c-3.3,4.4-4.3,10.1-2.8,15.2
				c-4.5,2.5-7.7,6.9-8.7,12.1c-0.9,5,0.4,10.1,3.6,14c-3.1,3.9-4.5,9-3.6,14c0.9,5.2,4.2,9.6,8.7,12.1c-1.5,5.2-0.5,10.8,2.8,15.2
				c3.3,4.4,8.5,7,13.9,7c0.8,0,1.5-0.1,2.3-0.1c2.7,6.3,8.9,10.6,16,10.6c5.6,0,10.6-2.7,13.8-6.8c3.2,4.1,8.2,6.8,13.8,6.8
				c7.1,0,13.3-4.3,16-10.6c0.8,0.1,1.5,0.2,2.3,0.2c5.5,0,10.6-2.5,13.9-7c3.3-4.4,4.3-10.1,2.8-15.2c4.5-2.5,7.8-6.9,8.7-12.1
				C963.9,280.7,962.5,275.6,959.4,271.8"/>
			<path class="st12" d="M959.4,271.8c3.1-3.9,4.5-9,3.6-14c-1-5.2-4.2-9.6-8.7-12.1c1.5-5.2,0.5-10.8-2.8-15.2
				c-3.3-4.4-8.5-7-13.9-7c-0.8,0-1.5,0-2.3,0.1c-2.7-6.3-8.9-10.6-16-10.6c-5.6,0-10.6,2.7-13.8,6.8c-3.2-4.1-8.2-6.8-13.8-6.8
				c-7.1,0-13.3,4.3-16,10.6c-0.8-0.1-1.5-0.2-2.3-0.2c-5.5,0-10.6,2.5-13.9,7c-3.3,4.4-4.3,10.1-2.8,15.2
				c-4.5,2.5-7.7,6.9-8.7,12.1c-0.9,5,0.4,10.1,3.6,14c-3.1,3.9-4.5,9-3.6,14c0.9,5.2,4.2,9.6,8.7,12.1c-1.5,5.2-0.5,10.8,2.8,15.2
				c3.3,4.4,8.5,7,13.9,7c0.8,0,1.5-0.1,2.3-0.2c2.7,6.3,8.9,10.6,16,10.6c5.6,0,10.6-2.7,13.8-6.8c3.2,4.1,8.2,6.8,13.8,6.8
				c7.1,0,13.3-4.3,16-10.6c0.8,0.1,1.5,0.2,2.3,0.2c5.5,0,10.6-2.5,13.9-7c3.3-4.4,4.3-10.1,2.8-15.2c4.5-2.5,7.8-6.9,8.7-12.1
				C963.9,280.7,962.5,275.6,959.4,271.8 M901.8,313.1c0,5.6-4.6,10.2-10.2,10.2c-4.9,0-9.1-3.5-10-8.2l0-0.2
				c-0.1-0.6-0.1-1.1-0.1-1.7c0-1.7,0.4-3.3,1.1-4.7c2.7,1.7,5.8,2.5,9.1,2.5v-7.2c-2.7,0-5.3-1-7.2-3c-1.9-1.9-3-4.5-3-7.2h-7.2
				c0,3.5,1.1,6.9,3,9.7c-1.9,2.8-2.9,6.1-3,9.5c-0.3,0-0.6,0-0.9,0c-3.2,0-6.2-1.5-8.2-4.1c-2.4-3.2-2.7-7.5-0.8-11l0.9-1.6
				l-1.5-3.3l-1.6-0.5c-3.7-1.1-6.5-4.1-7.2-8c-0.6-3.3,0.5-6.8,2.9-9.1h16.7c0.7,3.3,2.3,6.3,4.7,8.7c3.2,3.1,7.5,5.1,12.3,5.1
				h10.2V313.1z M901.8,282h-10.2c-5.4,0-9.9-4.3-10.2-9.6v0c0-0.2,0-0.3,0-0.5c0-2.7,1.1-5.3,3-7.2l-5.1-5.1
				c-2.4,2.4-4,5.4-4.7,8.7h-16.7c-2.4-2.4-3.5-5.8-2.9-9.1c0.7-3.8,3.4-6.9,7.2-8l1.6-0.5l1.5-3.3l-0.9-1.6
				c-1.9-3.5-1.6-7.8,0.8-11c1.9-2.6,4.9-4.1,8.2-4.1c0.3,0,0.6,0,0.9,0c0.1,3.4,1.1,6.7,3,9.5c-1.9,2.8-3,6.2-3,9.7l7.2,0
				c0-2.7,1.1-5.3,3-7.2c1.9-1.9,4.5-3,7.2-3v-7.2c-3.3,0-6.4,0.9-9.1,2.5c-0.7-1.4-1.1-3-1.1-4.7c0-0.6,0.1-1.1,0.1-1.7l0-0.3
				c0.9-4.8,5.1-8.2,10-8.2c5.6,0,10.2,4.6,10.2,10.2V282z M909,230.4c0-5.6,4.6-10.2,10.2-10.2c4.9,0,9.1,3.5,10,8.2l0,0.2
				c0.1,0.5,0.1,1.1,0.1,1.7c0,1.7-0.4,3.3-1.1,4.7c-2.7-1.7-5.8-2.5-9.1-2.5v7.2c2.7,0,5.3,1.1,7.2,3c1.9,1.9,3,4.5,3,7.2l7.2,0
				c0-3.5-1-6.9-3-9.7c1.9-2.8,2.9-6.1,3-9.5c0.3,0,0.6,0,0.9,0c3.3,0,6.2,1.5,8.2,4.1c2.4,3.2,2.7,7.5,0.8,11l-0.9,1.6l0.7,1.6
				l0.7,1.7l1.6,0.5c3.7,1.1,6.5,4.2,7.2,8c0.6,3.3-0.5,6.7-2.9,9.1h-16.7c-0.7-3.3-2.3-6.3-4.7-8.7c-3.2-3.1-7.5-5.1-12.3-5.1H909
				V230.4z M955.9,284.5c-0.7,3.8-3.4,6.9-7.2,8l-1.6,0.5l-1.5,3.3l0.9,1.6c1.9,3.5,1.6,7.8-0.8,11c-1.9,2.6-4.9,4.1-8.2,4.1
				c-0.3,0-0.6,0-0.9,0c-0.1-3.4-1.1-6.7-3-9.5c1.9-2.9,3-6.2,3-9.7h-7.2c0,2.7-1.1,5.3-3,7.2c-1.9,1.9-4.5,3-7.2,3v7.2
				c3.2,0,6.4-0.9,9.1-2.5c0.7,1.4,1.1,3,1.1,4.7c0,0.6,0,1.1-0.1,1.7l0,0.2c-0.9,4.8-5.1,8.2-10,8.2c-5.6,0-10.2-4.6-10.2-10.2
				v-51.6h10.2c5.4,0,9.9,4.3,10.2,9.6l0,0.1c0,0.2,0,0.3,0,0.5c0,2.7-1.1,5.3-3,7.2l5.1,5.1c2.4-2.4,4-5.4,4.7-8.7H953
				C955.4,277.7,956.5,281.1,955.9,284.5"/>
		</g>
		<ellipse class="st2" cx="906.1" cy="269.8" rx="32.9" ry="31.7"/>
	</g>
	<g>
		<path class="st12" d="M892.5,270.9c0-15.5,4.4-21.5,23.3-21.5h3.5v6.8h-3.8c-14,0-14.6,4.4-15,8.8c1.7-2.3,5.3-3.5,11.3-3.5
			c9.7,0,12.7,4.7,12.7,12.7c0,8.5-4,13.5-15.4,13.5C897.2,287.8,892.5,282.2,892.5,270.9z M916.7,274.7c0-4.1-1.6-6.7-7.4-6.7
			c-5.5,0-8.4,2-8.4,6.3c0,5.1,2.8,7,8.3,7C915.4,281.3,916.7,278.7,916.7,274.7z"/>
	</g>
</g>
<g onclick="changeImageText(4)">
	<g>
		<g>
			<path class="st11" d="M569,91.4c3.1-3.9,4.5-9,3.6-14c-1-5.2-4.2-9.6-8.7-12.1c1.5-5.2,0.5-10.8-2.8-15.2c-3.3-4.4-8.5-7-13.9-7
				c-0.8,0-1.5,0.1-2.3,0.1c-2.7-6.3-8.9-10.6-16-10.6c-5.6,0-10.6,2.7-13.8,6.8c-3.2-4.1-8.2-6.8-13.8-6.8c-7.1,0-13.3,4.3-16,10.6
				c-0.8-0.1-1.5-0.2-2.3-0.2c-5.5,0-10.6,2.5-13.9,7c-3.3,4.4-4.3,10.1-2.8,15.2c-4.5,2.5-7.7,6.9-8.7,12.1c-0.9,5,0.4,10.1,3.6,14
				c-3.1,3.9-4.5,9-3.6,14c0.9,5.2,4.2,9.6,8.7,12.1c-1.5,5.2-0.5,10.8,2.8,15.2c3.3,4.4,8.5,7,13.9,7c0.8,0,1.5-0.1,2.3-0.1
				c2.7,6.3,8.9,10.6,16,10.6c5.6,0,10.6-2.7,13.8-6.8c3.2,4.1,8.2,6.8,13.8,6.8c7.1,0,13.3-4.3,16-10.6c0.8,0.1,1.5,0.2,2.3,0.2
				c5.5,0,10.6-2.5,13.9-7c3.3-4.4,4.3-10.1,2.8-15.2c4.5-2.5,7.8-6.9,8.7-12.1C573.5,100.4,572.1,95.3,569,91.4"/>
			<path class="st12" d="M569,91.4c3.1-3.9,4.5-9,3.6-14c-1-5.2-4.2-9.6-8.7-12.1c1.5-5.2,0.5-10.8-2.8-15.2c-3.3-4.4-8.5-7-13.9-7
				c-0.8,0-1.5,0-2.3,0.1c-2.7-6.3-8.9-10.6-16-10.6c-5.6,0-10.6,2.7-13.8,6.8c-3.2-4.1-8.2-6.8-13.8-6.8c-7.1,0-13.3,4.3-16,10.6
				c-0.8-0.1-1.5-0.2-2.3-0.2c-5.5,0-10.6,2.5-13.9,7c-3.3,4.4-4.3,10.1-2.8,15.2c-4.5,2.5-7.7,6.9-8.7,12.1c-0.9,5,0.4,10.1,3.6,14
				c-3.1,3.9-4.5,9-3.6,14c0.9,5.2,4.2,9.6,8.7,12.1c-1.5,5.2-0.5,10.8,2.8,15.2c3.3,4.4,8.5,7,13.9,7c0.8,0,1.5-0.1,2.3-0.2
				c2.7,6.3,8.9,10.6,16,10.6c5.6,0,10.6-2.7,13.8-6.8c3.2,4.1,8.2,6.8,13.8,6.8c7.1,0,13.3-4.3,16-10.6c0.8,0.1,1.5,0.2,2.3,0.2
				c5.5,0,10.6-2.5,13.9-7c3.3-4.4,4.3-10.1,2.8-15.2c4.5-2.5,7.8-6.9,8.7-12.1C573.5,100.4,572.1,95.3,569,91.4 M511.4,132.8
				c0,5.6-4.6,10.2-10.2,10.2c-4.9,0-9.1-3.5-10-8.2l0-0.2c-0.1-0.6-0.1-1.1-0.1-1.7c0-1.7,0.4-3.3,1.1-4.7c2.7,1.7,5.8,2.5,9.1,2.5
				v-7.2c-2.7,0-5.3-1-7.2-3c-1.9-1.9-3-4.5-3-7.2h-7.2c0,3.5,1.1,6.9,3,9.7c-1.9,2.8-2.9,6.1-3,9.5c-0.3,0-0.6,0-0.9,0
				c-3.2,0-6.2-1.5-8.2-4.1c-2.4-3.2-2.7-7.5-0.8-11l0.9-1.6l-1.5-3.3l-1.6-0.5c-3.7-1.1-6.5-4.1-7.2-8c-0.6-3.3,0.5-6.8,2.9-9.1
				h16.7c0.7,3.3,2.3,6.3,4.7,8.7c3.2,3.1,7.5,5.1,12.3,5.1h10.2V132.8z M511.4,101.6h-10.2c-5.4,0-9.9-4.3-10.2-9.6v0
				c0-0.2,0-0.3,0-0.5c0-2.7,1.1-5.3,3-7.2l-5.1-5.1c-2.4,2.4-4,5.4-4.7,8.7h-16.7c-2.4-2.4-3.5-5.8-2.9-9.1c0.7-3.8,3.4-6.9,7.2-8
				l1.6-0.5l1.5-3.3l-0.9-1.6c-1.9-3.5-1.6-7.8,0.8-11c1.9-2.6,4.9-4.1,8.2-4.1c0.3,0,0.6,0,0.9,0c0.1,3.4,1.1,6.7,3,9.5
				c-1.9,2.8-3,6.2-3,9.7l7.2,0c0-2.7,1.1-5.3,3-7.2c1.9-1.9,4.5-3,7.2-3v-7.2c-3.3,0-6.4,0.9-9.1,2.5c-0.7-1.4-1.1-3-1.1-4.7
				c0-0.6,0.1-1.1,0.1-1.7l0-0.3c0.9-4.8,5.1-8.2,10-8.2c5.6,0,10.2,4.6,10.2,10.2V101.6z M518.6,50.1c0-5.6,4.6-10.2,10.2-10.2
				c4.9,0,9.1,3.5,10,8.2l0,0.2c0.1,0.5,0.1,1.1,0.1,1.7c0,1.7-0.4,3.3-1.1,4.7c-2.7-1.7-5.8-2.5-9.1-2.5v7.2c2.7,0,5.3,1.1,7.2,3
				c1.9,1.9,3,4.5,3,7.2l7.2,0c0-3.5-1-6.9-3-9.7c1.9-2.8,2.9-6.1,3-9.5c0.3,0,0.6,0,0.9,0c3.3,0,6.2,1.5,8.2,4.1
				c2.4,3.2,2.7,7.5,0.8,11l-0.9,1.6l0.7,1.6l0.7,1.7l1.6,0.5c3.7,1.1,6.5,4.2,7.2,8c0.6,3.3-0.5,6.7-2.9,9.1h-16.7
				c-0.7-3.3-2.3-6.3-4.7-8.7C538,76,533.6,74,528.8,74h-10.2V50.1z M565.5,104.1c-0.7,3.8-3.4,6.9-7.2,8l-1.6,0.5l-1.5,3.3l0.9,1.6
				c1.9,3.5,1.6,7.8-0.8,11c-1.9,2.6-4.9,4.1-8.2,4.1c-0.3,0-0.6,0-0.9,0c-0.1-3.4-1.1-6.7-3-9.5c1.9-2.9,3-6.2,3-9.7H539
				c0,2.7-1.1,5.3-3,7.2c-1.9,1.9-4.5,3-7.2,3v7.2c3.2,0,6.4-0.9,9.1-2.5c0.7,1.4,1.1,3,1.1,4.7c0,0.6,0,1.1-0.1,1.7l0,0.2
				c-0.9,4.8-5.1,8.2-10,8.2c-5.6,0-10.2-4.6-10.2-10.2V81.2h10.2c5.4,0,9.9,4.3,10.2,9.6l0,0.1c0,0.2,0,0.3,0,0.5
				c0,2.7-1.1,5.3-3,7.2l5.1,5.1c2.4-2.4,4-5.4,4.7-8.7h16.7C565,97.4,566.1,100.8,565.5,104.1"/>
		</g>
		<ellipse class="st2" cx="515.7" cy="89.4" rx="32.9" ry="31.7"/>
	</g>
	<g>
		<path class="st12" d="M501.7,93.2l16.6-24.1h8.6l-16.4,23.6h10.6l1.6-10.8h5.6v10.8h6v6.4h-6v7.8h-7.3v-7.8h-19.3V93.2z"/>
	</g>
</g>
</svg>
