<?xml version="1.0" encoding="utf-8"?>
<!-- Generator: Adobe Illustrator 25.0.0, SVG Export Plug-In . SVG Version: 6.00 Build 0)  -->
<svg version="1.1" id="Layer_1" xmlns="http://www.w3.org/2000/svg" xmlns:xlink="http://www.w3.org/1999/xlink" x="0px" y="0px"
	 viewBox="0 0 558.7 361.3" style="enable-background:new 0 0 558.7 361.3;" xml:space="preserve">
<style type="text/css">
	.st0{fill:#0076C0;}
	.st1{fill:url(#SVGID_1_);}
	.st2{fill:url(#SVGID_2_);}
</style>
<g>
	<g>
		<path class="st0" d="M42.7,225.2V271h-12v-45.8H14.3v-10h45.1v10H42.7z"/>
		<path class="st0" d="M67.1,271v-55.8h33.7v9.6H79.1v12.8h18.1v9.5H79.1v14.3h24.1v9.6H67.1z"/>
		<path class="st0" d="M160.4,271.4l-1.7-35.1L147.4,271h-10.3l-11-34.8l-2,35.2l-11.6-0.5l4.3-55.7h13.6l12.5,39.1l12.5-39.1h13.3
			l3.9,55.7L160.4,271.4z"/>
		<path class="st0" d="M187.5,271v-55.8h12V271H187.5z"/>
		<path class="st0" d="M228.6,272.4c-7.3,0-13.2-2.5-19.2-5.2l5-9.7c4.9,2.7,10.7,4.8,14.2,4.8c5.2,0,7.5-2.4,7.5-5.7
			c0-9.2-24.6-10.8-24.6-27.8c0-8.6,7.1-15.2,17.4-15.2c7.7,0,13.9,2.1,17.8,4.3l-4.3,9.2c-4.5-2.5-8.7-4.1-12.8-4.1
			c-3.3,0-5.7,2.2-5.7,4.9c0,9,24.8,10.7,24.8,27.8C248.9,267.1,241.1,272.4,228.6,272.4z"/>
		<path class="st0" d="M264.5,271v-55.8h5.4v51.5h23v4.4H264.5z"/>
		<path class="st0" d="M316.6,272.1c-14.7,0-21.7-13.2-21.7-29c0-17.5,9.4-29.4,21.7-29.4c14.7,0,21.8,13.5,21.8,29.4
			C338.4,260.7,328.8,272.1,316.6,272.1z M316.2,218.4c-11.3,0-15.5,12.4-15.6,23.5c0,11.3,3.5,25.7,16.3,25.7
			c11.5,0,15.7-12.2,15.7-23.3C332.6,232.9,329.2,218.4,316.2,218.4z"/>
		<path class="st0" d="M360.4,272.1c-5.4,0-11.9-2.5-15.2-4.2l2.2-4.6c3,1.8,8.7,4.2,13.3,4.2c7.3,0,12.5-3.9,12.5-9.9
			c0-14.7-25.5-13.6-25.5-30.2c0-8.1,7.2-13.4,14.7-13.4c6.6,0,11.3,2.2,14.1,3.8l-2.2,4.3c-2.8-1.6-7.3-3.6-12.1-3.6
			c-4,0-9,3.1-9,8.5c0,13,25.1,12.5,25.1,30C378.3,266.4,371.6,272.1,360.4,272.1z"/>
		<path class="st0" d="M403.9,219.8V271h-5.3v-51.2h-17.3v-4.6h40.2v4.6H403.9z"/>
		<path class="st0" d="M455.7,271.8l-6.4-19.3h-20.5l-6.6,19.3l-5-1.1l19.7-55.5h5.3l18.7,55.5L455.7,271.8z M439.2,221.4l-9.1,26.7
			h17.8L439.2,221.4z"/>
		<path class="st0" d="M469.5,271v-55.8h5.4v51.5h23v4.4H469.5z"/>
		<path class="st0" d="M524.5,272.1c-14.7,0-21.7-13.2-21.7-29c0-17.5,9.4-29.4,21.7-29.4c14.7,0,21.8,13.5,21.8,29.4
			C546.3,260.7,536.7,272.1,524.5,272.1z M524.1,218.4c-11.3,0-15.5,12.4-15.6,23.5c0,11.3,3.5,25.7,16.3,25.7
			c11.4,0,15.7-12.2,15.7-23.3C540.5,232.9,537.1,218.4,524.1,218.4z"/>
	</g>
	<g>
		<path class="st0" d="M210.2,158.5c-1.3-6.3,27.1-72.2,44.5-95.6l-10.2-42.4c0,0-50.5,89.7-56.5,112.5
			C182,156.3,196.3,154.3,210.2,158.5z"/>
		<linearGradient id="SVGID_1_" gradientUnits="userSpaceOnUse" x1="294.6878" y1="94.2413" x2="228.3861" y2="185.4977">
			<stop  offset="0" style="stop-color:#44C8F5"/>
			<stop  offset="1" style="stop-color:#0076C0"/>
		</linearGradient>
		<path class="st1" d="M352.4,136.1c0,0-5.2,13.3-40.2,14.9c-34.9,2.1-59.6,0-76.3-2.5c-16.7-2.6-36.8-7.8-35.1-19.2
			c1.7-11.4,14.3-54.1,14.3-54.1s-33.5,61.5-30.6,70.5c2.9,8.9,13.3,25.6,47.4,29.3c34.2,3.2,70.5,1.7,84.2-2.8
			C329.9,167.9,354.1,150.9,352.4,136.1z"/>
		<linearGradient id="SVGID_2_" gradientUnits="userSpaceOnUse" x1="266.0855" y1="92.7782" x2="354.4992" y2="92.7782">
			<stop  offset="0" style="stop-color:#00BCE4"/>
			<stop  offset="1" style="stop-color:#0076C0"/>
		</linearGradient>
		<path class="st2" d="M295.2,10.1l-29.1,18.6c0,0,35.7,51.4,58.5,89c7.4,11.5,13.2,22.4,10.8,30.3c-3.8,12.3-14.7,19.4-38.4,27.5
			c13.3-1.6,33.3-3.8,47.1-16.2c13.8-11.6,15.3-28-2.7-61.3C323.8,63,295.2,10.1,295.2,10.1z"/>
	</g>
	<g>
		<path class="st0" d="M29.5,340.3c0.2,0,0.3-0.1,0.3-0.2l4.9-29.2l-3.9-0.1c0.1-0.9,0.3-1.7,0.5-2.5c1.8,0,4.2,0,6,0
			c1.6,0,10.2,0,11.5,0c2,0,3.3,0,4.3,0c-0.3,2.7-0.6,5.5-1,8.2c-0.7,0-1.6,0.1-2.3,0.2v-4.6c0-0.6-0.3-0.9-1.2-1
			c-1.4-0.1-5.1-0.2-9.4-0.2c-0.3,0-0.4,0-0.5,0.2L36.5,324c2.9,0,5.6,0,8.4-0.1c1.1,0,1.4-0.4,1.6-1l0.7-2.5c0.8-0.1,1.6,0,2.5,0
			c-0.3,1.6-0.6,3.4-0.9,5.1c-0.3,1.5-0.6,3.3-0.9,5c-0.8,0.1-1.6,0.1-2.5,0.1l0.3-2.7c0.1-0.9-0.2-1.2-1.3-1.2c-2.5,0-5.2,0-8.3,0
			l-2.1,12.8c-0.2,0.9,0,1,2.8,1c4.2,0,7.5-0.2,8.4-0.4c0.6-0.1,0.9-0.5,1.2-1.1l2.3-4.9c0.7,0.2,1.6,0.4,2.3,0.7
			c-0.9,2.7-1.8,5.4-2.8,8.2c-2.7,0-9.4-0.1-16.5-0.1c-2.2,0-4.3,0.1-6.2,0.1c0.2-0.8,0.3-1.7,0.5-2.5L29.5,340.3z"/>
		<path class="st0" d="M68,328.4c3-3.6,7.6-8.4,9-8.4c0.7,0,2.2,1.5,2.4,2.7c-2.6,1.3-6,3.5-10.5,7.9l-0.1,0.3
			c1.5,3.9,2.3,6.1,3.6,9.1c0.1,0.3,0.4,0.4,0.7,0.4c0.6,0,2.1-0.2,3.5-0.6c0.2,0.7,0.3,1.5,0.4,2.2c-1.8,0.7-5,1.1-7.3,1.1
			c-0.9-2.2-2.3-6.1-3.7-10.1h-0.3c-3.1,3.5-5.5,7.3-6.4,10.3c-1.1,0.1-3.1,0.1-4.5,0.1c0.6-2.7,5.8-8.7,10-12.8l0.1-0.3
			c-0.8-2.1-1.7-4.5-2.7-7.1l-4.1,0.9c-0.2-0.7-0.4-1.4-0.5-2.1c2.7-0.9,5.7-2,6-2c0.5,0,1.3,0.4,1.8,0.7c0.8,2.7,1.6,5.2,2.4,7.6
			H68z"/>
		<path class="st0" d="M81.1,336.4c0-3.2,1.3-8.5,4.9-12.3c2.7-2.9,5.3-4.1,9-4.1c1.7,0,3.2,0.5,3.8,1c-0.2,1-1.5,2.9-2.2,3.3
			c-0.4-0.2-2.4-1.3-3.9-1.3c-1.8,0-3.3,1.2-4.1,2.3c-1.9,2.5-3.4,6.9-3.4,10.4c0,3.5,1.6,4.8,4,4.8c1.6,0,4.5-0.9,6.6-1.8
			c0.3,0.6,0.5,1.4,0.6,2.1c-2.3,1.2-5.8,2.6-8.5,2.6C84.6,343.4,81.1,341.1,81.1,336.4L81.1,336.4z"/>
		<path class="st0" d="M100.9,337.1c0-3.2,1.5-8.9,5.1-12.9c2.7-3,5.2-4.1,8-4.1c3.8,0,5.8,3,5.8,5.6c-0.3,1.7-1.4,3.9-2.9,4.8
			c-2.9,1.5-6.6,2-11.2,2c-0.4,1.3-0.7,3.1-0.7,4.1c0,2.5,1.3,3.9,3.6,3.9c2.1,0,5.5-1.2,8.4-2.8c0.3,0.7,0.6,1.4,0.8,2.1
			c-3,1.9-7,3.6-10.6,3.6C104.3,343.4,100.9,341.3,100.9,337.1L100.9,337.1z M112.8,322.6c-1.6,0-3,0.9-4.1,2.3
			c-0.8,1.1-1.8,2.7-2.6,5.3c2.8,0.1,5.6-0.4,7.6-1.3c1.2-0.5,2.2-1.4,2.2-2.9C115.9,324.3,114.9,322.6,112.8,322.6L112.8,322.6z"/>
		<path class="st0" d="M126,309.3c-0.1-0.8-0.1-1.6-0.2-2.3c4.7-0.5,7.7-1.4,8.1-1.4c0.4,0,1.1,0.6,1.4,1.2
			c-2.4,9.9-6.6,28-7.9,33.6c0,0.2,0,0.3,0.2,0.3c0.7,0,2.5-0.3,4.6-0.8c0.2,0.8,0.2,1.5,0.3,2.3c-2.6,0.8-5.5,1.2-7.4,1.2
			c-0.2,0-1.3-0.8-1.7-1.6c1.3-5.3,5.9-25.7,7.6-32.7L126,309.3z"/>
		<path class="st0" d="M137.5,337.1c0-3.2,1.5-8.9,5.1-12.9c2.7-3,5.2-4.1,8-4.1c3.8,0,5.8,3,5.8,5.6c-0.3,1.7-1.4,3.9-2.9,4.8
			c-2.9,1.5-6.6,2-11.2,2c-0.4,1.3-0.7,3.1-0.7,4.1c0,2.5,1.3,3.9,3.6,3.9c2.1,0,5.5-1.2,8.4-2.8c0.3,0.7,0.6,1.4,0.8,2.1
			c-3,1.9-7,3.6-10.6,3.6C140.9,343.4,137.5,341.3,137.5,337.1L137.5,337.1z M149.4,322.6c-1.7,0-3,0.9-4.1,2.3
			c-0.8,1.1-1.9,2.7-2.6,5.3c2.8,0.1,5.6-0.4,7.5-1.3c1.2-0.5,2.2-1.4,2.2-2.9C152.4,324.3,151.5,322.6,149.4,322.6L149.4,322.6z"/>
		<path class="st0" d="M161.1,323.8c0-0.8-0.1-1.6-0.1-2.2c3.5-0.6,6.4-1.5,6.8-1.5c0.3,0,1.1,0.6,1.4,1c-0.3,1.5-0.9,3.6-1.4,5.8
			l0.4,0.1c4.3-4.9,8.6-6.9,11-6.9c1.4,0.2,2.7,1.2,3.5,2.7c0.3,0.5,0.3,1.2,0.3,1.7c0,2.4-1.8,9.1-4.3,16c0,0.2,0,0.4,0.2,0.4
			c0.6,0,2.1-0.4,3.8-0.9c0.2,0.7,0.3,1.5,0.3,2.2c-2,0.7-4.7,1.2-6.9,1.2c-0.3,0-1.2-0.8-1.5-1.6c0.9-2.7,2.6-8.2,3.3-11
			c0.4-1.5,1-3.9,1-5.4c0-1-0.5-1.9-1.7-1.9c-3.3,0-9.4,5.7-10.3,8.9c-0.5,1.9-2.1,8.4-2.6,10.4c-1.3,0-2.5,0-3.7,0
			c1.2-4.8,3.2-13.6,4.6-19.5L161.1,323.8z"/>
		<path class="st0" d="M188.3,336.4c0-3.2,1.3-8.5,4.8-12.3c2.7-2.9,5.3-4.1,9-4.1c1.7,0,3.2,0.5,3.8,1c-0.1,1-1.5,2.9-2.2,3.3
			c-0.4-0.2-2.4-1.3-3.9-1.3c-1.8,0-3.2,1.2-4.1,2.3c-1.9,2.5-3.4,6.9-3.4,10.4c0,3.5,1.6,4.8,4.1,4.8c1.7,0,4.5-0.9,6.6-1.8
			c0.3,0.6,0.5,1.4,0.6,2.1c-2.3,1.2-5.7,2.6-8.5,2.6C191.8,343.4,188.3,341.1,188.3,336.4L188.3,336.4z"/>
		<path class="st0" d="M209.3,323.6c-0.1-0.7-0.1-1.5-0.1-2.2c4.2-0.6,7-1.3,7.5-1.3c0.2,0,1.1,0.8,1.4,1.3
			c-1.2,5.2-3.9,16.4-4.5,19.1c-0.1,0.2,0,0.4,0.2,0.4c0.7,0,2.2-0.4,4-0.9c0.2,0.8,0.3,1.5,0.4,2.2c-2.2,0.7-4.6,1.2-6.7,1.2
			c-0.3,0-1.5-0.9-1.9-1.7c1.2-5.3,2.9-12.4,4.3-18.4L209.3,323.6z M217.4,309.7c1.7,0,2.5,1.5,2.5,2.6c0,1.4-1.3,2.8-2.8,2.8
			c-1.6,0-2.8-1.3-2.8-2.7C214.4,311.2,215.5,309.7,217.4,309.7L217.4,309.7z"/>
		<path class="st0" d="M237.2,336.5c-4.9,5.5-8.4,7-10.1,7c-1.2-0.2-2.9-1.3-3.7-2.8c-0.3-0.6-0.5-1.3-0.5-2.1c0-2,0.6-5.2,1.7-8
			c1.6-4.4,5.4-10.6,10.5-10.6c2,0,3.8,0.9,5.2,2.5h0.3l1.2-2.8c1,0.3,2,0.5,2.9,0.9c-1.4,4.8-3.8,14.2-5,19.7
			c0,0.2,0.1,0.3,0.3,0.3c0.4,0,1.9-0.4,3.6-0.9c0.2,0.7,0.4,1.4,0.5,2.2c-2.2,0.8-4.9,1.4-6.5,1.4c-0.2,0-1.2-0.6-1.5-1.3
			c0.2-0.9,0.8-3.2,1.4-5.5L237.2,336.5z M235,322.9c-2.7,0-4.9,3.4-6.2,6.4c-1.2,2.9-2,6.2-2,8.8c0,1.5,0.8,2.3,1.7,2.3
			c2.5,0,8.5-5.8,9.4-8.5c0.4-1,1.3-4.8,1.6-6.4C238.5,323.8,236.8,322.9,235,322.9L235,322.9z"/>
		<path class="st0" d="M279.6,306.9c1.1,0,2.5,0.3,3.1,0.6c0,1-1.3,3-2.1,3.4c-0.4-0.2-2.2-0.9-3.7-0.9c-1.1,0-2.7,0.6-3.8,1.9
			c-1.6,1.9-2.1,4.7-3,8.8c2.5-0.1,5.2-0.1,7.6-0.1c-0.1,0.8-0.4,1.9-0.6,2.7c-2.1,0.1-5.2,0.1-7.4,0.1c-1.8,8.7-3.8,18.2-5.9,28.2
			c-1.2,0-2.4,0-3.7,0c2-9.8,4-19.3,5.8-28.2c-1.3,0-2.8,0-4.3,0c0.2-0.8,0.3-1.7,0.5-2.5c1.4-0.1,2.8-0.1,4.1-0.2
			c0.2,0,0.3-0.2,0.3-0.4c0.9-4.9,1.9-7.4,4.5-9.8C273.9,307.6,276.9,306.9,279.6,306.9L279.6,306.9z"/>
		<path class="st0" d="M291.5,336.5c-4.9,5.5-8.4,7-10.1,7c-1.2-0.2-2.9-1.3-3.7-2.8c-0.3-0.6-0.5-1.3-0.5-2.1c0-2,0.6-5.2,1.7-8
			c1.6-4.4,5.4-10.6,10.5-10.6c2,0,3.8,0.9,5.2,2.5h0.3l1.2-2.8c1,0.3,2,0.5,2.9,0.9c-1.4,4.8-3.8,14.2-4.9,19.7
			c0,0.2,0.1,0.3,0.3,0.3c0.4,0,1.9-0.4,3.6-0.9c0.2,0.7,0.4,1.4,0.5,2.2c-2.2,0.8-4.9,1.4-6.5,1.4c-0.2,0-1.2-0.6-1.4-1.3
			c0.2-0.9,0.8-3.2,1.4-5.5L291.5,336.5z M289.3,322.9c-2.7,0-4.9,3.4-6.2,6.4c-1.2,2.9-1.9,6.2-1.9,8.8c0,1.5,0.8,2.3,1.7,2.3
			c2.5,0,8.5-5.8,9.4-8.5c0.4-1,1.3-4.8,1.6-6.4C292.8,323.8,291.2,322.9,289.3,322.9L289.3,322.9z"/>
		<path class="st0" d="M304.4,323.7c-0.1-0.8-0.1-1.6-0.1-2.3c3.4-0.5,6.4-1.3,6.6-1.3c0.3,0,1.1,0.7,1.4,1.2
			c-0.4,1.5-0.9,3.5-1.6,6.6l0.4,0.2c3.2-4.7,6.5-7.9,8.4-7.9c1.1,0,2.1,0.4,2.6,0.7c0,1.3-1.2,3.7-1.7,4c-0.4-0.2-1.5-0.5-2.2-0.5
			c-2.2,0-7.3,5.9-8.5,10.3c-0.4,1.7-1.4,6.1-1.9,8.3c-1.2,0-2.4,0-3.6,0c1-4.4,3.1-13.7,4.4-19.7L304.4,323.7z"/>
		<path class="st0" d="M325.3,323.7c-0.1-0.8-0.1-1.6-0.1-2.3c4.1-0.6,6.3-1.4,6.7-1.4c0.4,0,1,0.5,1.4,1.1
			c-0.3,1.4-0.7,3.1-1.2,5.4l0.4,0.1c4.1-5,7.6-6.7,9.7-6.7c1.2,0.1,2.5,0.9,3.2,2.3c0.2,0.3,0.3,0.9,0.3,1.5c0,0.5-0.2,1.7-0.4,3.1
			l0.3,0.1c4-5.2,7.6-6.8,9.8-6.8c1.1,0.1,2.7,1.1,3.4,2.7c0.2,0.5,0.3,1,0.3,1.6c0,2.2-1.7,8.9-3.9,16c-0.1,0.2,0,0.3,0.2,0.3
			c0.6,0,2-0.3,3.7-0.8c0.2,0.7,0.3,1.5,0.4,2.2c-2.3,0.7-4.5,1.2-6.8,1.2c-0.3,0-1.1-0.9-1.4-1.6c0.9-2.7,2.3-7.7,2.9-10.2
			c0.3-1.5,1.2-4.6,1.2-6.2c0-0.9-0.5-1.9-1.8-1.9c-2.9,0-8.6,6.1-9.4,9.3c-0.8,3-1.7,6.6-2.5,10c-1.2,0-2.4,0-3.6,0
			c0.7-2.7,2.4-9.6,3-12.3c0.4-1.5,1-4.5,1-5.6c0-0.8-0.5-1.7-1.5-1.7c-3.1,0-8.6,6.1-9.4,9.2c-0.5,2-1.9,8.1-2.4,10.2
			c-1.2,0-2.4,0-3.6,0c1.2-4.8,3.2-13.5,4.5-19.7L325.3,323.7z"/>
		<path class="st0" d="M379,336.5c-4.9,5.5-8.3,7-10.1,7c-1.2-0.2-2.9-1.3-3.7-2.8c-0.3-0.6-0.5-1.3-0.5-2.1c0-2,0.7-5.2,1.6-8
			c1.6-4.4,5.4-10.6,10.5-10.6c2,0,3.8,0.9,5.2,2.5h0.3l1.2-2.8c1,0.3,2,0.5,2.9,0.9c-1.4,4.8-3.8,14.2-5,19.7
			c0,0.2,0.1,0.3,0.3,0.3c0.4,0,1.9-0.4,3.6-0.9c0.2,0.7,0.4,1.4,0.5,2.2c-2.2,0.8-4.9,1.4-6.5,1.4c-0.2,0-1.2-0.6-1.5-1.3
			c0.2-0.9,0.7-3.2,1.4-5.5L379,336.5z M376.8,322.9c-2.7,0-4.9,3.4-6.2,6.4c-1.2,2.9-2,6.2-2,8.8c0,1.5,0.8,2.3,1.7,2.3
			c2.5,0,8.5-5.8,9.4-8.5c0.4-1,1.3-4.8,1.6-6.4C380.3,323.8,378.7,322.9,376.8,322.9L376.8,322.9z"/>
		<path class="st0" d="M390.9,336.4c0-3.2,1.3-8.5,4.8-12.3c2.7-2.9,5.3-4.1,9-4.1c1.7,0,3.2,0.5,3.8,1c-0.1,1-1.5,2.9-2.2,3.3
			c-0.4-0.2-2.4-1.3-3.9-1.3c-1.8,0-3.2,1.2-4.1,2.3c-1.9,2.5-3.4,6.9-3.4,10.4c0,3.5,1.7,4.8,4.1,4.8c1.6,0,4.5-0.9,6.5-1.8
			c0.3,0.6,0.5,1.4,0.6,2.1c-2.3,1.2-5.7,2.6-8.5,2.6C394.4,343.4,390.9,341.1,390.9,336.4L390.9,336.4z"/>
		<path class="st0" d="M410.8,337.1c0-3.2,1.5-8.9,5.1-12.9c2.6-3,5.2-4.1,8-4.1c3.8,0,5.8,3,5.8,5.6c-0.3,1.7-1.4,3.9-2.9,4.8
			c-2.9,1.5-6.6,2-11.3,2c-0.4,1.3-0.7,3.1-0.7,4.1c0,2.5,1.3,3.9,3.6,3.9c2.1,0,5.5-1.2,8.4-2.8c0.3,0.7,0.6,1.4,0.9,2.1
			c-3.1,1.9-7,3.6-10.7,3.6C414.1,343.4,410.8,341.3,410.8,337.1L410.8,337.1z M422.7,322.6c-1.7,0-3,0.9-4.1,2.3
			c-0.9,1.1-1.9,2.7-2.6,5.3c2.8,0.1,5.6-0.4,7.6-1.3c1.2-0.5,2.2-1.4,2.2-2.9C425.7,324.3,424.8,322.6,422.7,322.6L422.7,322.6z
			 M430.7,311.8c-2.7,1.9-5.8,4-8.5,5.8c-0.5-0.5-0.9-1.1-1.3-1.7c2.5-2.1,5.4-4.6,7.9-6.7C429.4,310,430.1,310.9,430.7,311.8z"/>
		<path class="st0" d="M434.5,323.8c0-0.8-0.1-1.6-0.2-2.2c3.7-0.7,6.8-1.5,7.1-1.5c0.4,0,1.2,0.8,1.3,1.4c-1,3.3-2.6,9.2-3.2,11.9
			c-0.4,1.7-0.8,3.8-0.8,5c0,1.3,0.7,2,1.6,2c2.6,0,8.6-6,9.3-8.6c0.5-1.6,1.9-8.1,2.5-11c1.3-0.1,2.5-0.1,3.7-0.1
			c-0.6,2.7-3.4,15.1-4.3,19.8c0,0.2,0.1,0.3,0.2,0.3c0.5,0,2-0.3,3.8-0.8c0.2,0.7,0.4,1.4,0.5,2.2c-2.4,1-4.9,1.4-6.5,1.4
			c-0.3,0-1.1-0.8-1.5-1.5c0.2-0.8,0.5-2.8,1.1-5.2l-0.3-0.1c-3.9,4.3-7.6,6.8-9.9,6.9c-1.1-0.2-2.6-1.1-3.4-2.2
			c-0.4-0.6-0.6-1.3-0.6-2.3c0-2.7,1.9-10.2,3.6-15.7L434.5,323.8z"/>
		<path class="st0" d="M466.3,338.3c0,1.5,0.9,2.2,2.4,2.2c1.4,0,3.9-0.4,6.1-1.1c0.1,0.7,0.2,1.6,0.2,2.3c-2.9,1-6.2,1.7-8.1,1.7
			c-1.4,0-3.7-1.2-4.3-3.3c-0.1-0.3-0.1-0.7-0.1-0.9c0-1.6,1.5-8.1,1.8-9.6c0.5-1.8,1.1-4.8,1.4-6.2c-1.2,0-2.8,0-4.2,0
			c0.2-0.8,0.3-1.6,0.5-2.4c1.3-0.1,2.6-0.2,3.9-0.2c0.1,0,0.4-0.1,0.4-0.4c0.4-1.5,0.9-3.4,1.3-5c1.3-0.6,2.9-0.9,3.5-0.9
			c0.1,0,0.2,0.1,0.2,0.2c-0.3,1.5-0.8,3.9-1.3,6c2.7,0,5.4,0,8-0.1c-0.1,0.9-0.3,1.9-0.5,2.7c-2.3,0-5.2,0-8.1,0
			c-0.4,1.5-1,4.6-1.4,6.3C467.3,332.1,466.3,336.8,466.3,338.3L466.3,338.3z"/>
		<path class="st0" d="M480.8,323.6c0-0.7,0-1.5-0.1-2.2c4.2-0.6,7-1.3,7.5-1.3c0.3,0,1.1,0.8,1.4,1.3c-1.3,5.2-3.9,16.4-4.5,19.1
			c-0.1,0.2,0,0.4,0.2,0.4c0.7,0,2.2-0.4,4-0.9c0.2,0.8,0.3,1.5,0.4,2.2c-2.2,0.7-4.6,1.2-6.6,1.2c-0.3,0-1.6-0.9-1.9-1.7
			c1.2-5.3,2.9-12.4,4.3-18.4L480.8,323.6z M488.9,309.7c1.7,0,2.5,1.5,2.5,2.6c0,1.4-1.3,2.8-2.8,2.8c-1.6,0-2.8-1.3-2.8-2.7
			C485.9,311.2,487,309.7,488.9,309.7L488.9,309.7z"/>
		<path class="st0" d="M494.6,336.4c0-3.2,1.3-8.5,4.8-12.3c2.7-2.9,5.3-4.1,9-4.1c1.7,0,3.2,0.5,3.8,1c-0.2,1-1.5,2.9-2.2,3.3
			c-0.4-0.2-2.4-1.3-3.9-1.3c-1.8,0-3.3,1.2-4.1,2.3c-1.9,2.5-3.4,6.9-3.4,10.4c0,3.5,1.6,4.8,4,4.8c1.6,0,4.5-0.9,6.5-1.8
			c0.3,0.6,0.5,1.4,0.6,2.1c-2.3,1.2-5.7,2.6-8.5,2.6C498.1,343.4,494.6,341.1,494.6,336.4L494.6,336.4z"/>
		<path class="st0" d="M528.7,336.5c-4.9,5.5-8.3,7-10.1,7c-1.2-0.2-2.9-1.3-3.7-2.8c-0.3-0.6-0.5-1.3-0.5-2.1c0-2,0.6-5.2,1.6-8
			c1.6-4.4,5.4-10.6,10.5-10.6c2,0,3.8,0.9,5.2,2.5h0.3l1.2-2.8c1,0.3,2,0.5,2.9,0.9c-1.4,4.8-3.8,14.2-5,19.7
			c0,0.2,0.1,0.3,0.3,0.3c0.4,0,1.9-0.4,3.6-0.9c0.2,0.7,0.4,1.4,0.5,2.2c-2.2,0.8-4.9,1.4-6.5,1.4c-0.2,0-1.2-0.6-1.4-1.3
			c0.2-0.9,0.7-3.2,1.4-5.5L528.7,336.5z M526.5,322.9c-2.7,0-4.9,3.4-6.2,6.4c-1.2,2.9-2,6.2-2,8.8c0,1.5,0.8,2.3,1.7,2.3
			c2.5,0,8.5-5.8,9.4-8.5c0.4-1,1.3-4.8,1.7-6.4C530.1,323.8,528.4,322.9,526.5,322.9L526.5,322.9z"/>
	</g>
</g>
</svg>
