<?xml version="1.0" encoding="utf-8"?>
<!-- Generator: Adobe Illustrator 25.0.0, SVG Export Plug-In . SVG Version: 6.00 Build 0)  -->
<svg version="1.1" id="Layer_1" xmlns="http://www.w3.org/2000/svg" xmlns:xlink="http://www.w3.org/1999/xlink" x="0px" y="0px"
	 viewBox="0 0 973.9 346.7" style="enable-background:new 0 0 973.9 346.7;" xml:space="preserve">
<style type="text/css">
	.st0{fill:#812990;}
	.st1{opacity:0.35;fill:url(#SVGID_1_);}
	.st2{fill:#FFFFFF;}
</style>
<g>
	<polygon class="st0" points="961.6,28 915,148 61.6,158.9 10.4,17.5 	"/>
	<g>
		<linearGradient id="SVGID_1_" gradientUnits="userSpaceOnUse" x1="961.6319" y1="88.1816" x2="10.4412" y2="88.1816">
			<stop  offset="0" style="stop-color:#FFFFFF"/>
			<stop  offset="0.1019" style="stop-color:#FFFFFF;stop-opacity:0.8754"/>
			<stop  offset="0.8172" style="stop-color:#FFFFFF;stop-opacity:4.600000e-05"/>
			<stop  offset="0.841" style="stop-color:#FFFFFF;stop-opacity:4.000623e-05"/>
			<stop  offset="1" style="stop-color:#FFFFFF;stop-opacity:0"/>
		</linearGradient>
		<polygon class="st1" points="961.6,28 915,148 61.6,158.9 10.4,17.5 		"/>
		<g>
			<g>
				<path class="st2" d="M107.4,95.2v-33H118v32.4c0,7.5,3.3,10.4,10.4,10.4c7,0,10.2-2.9,10.2-10.4V62.2h10.7v33
					c0,13.1-9.1,19.4-20.9,19.4C116.4,114.6,107.4,108.3,107.4,95.2z"/>
				<path class="st2" d="M173.7,89.9c-2.6-2.4-6.2-7.1-6.2-7.1s0.8,5.7,0.8,9.4V114h-10V61.7h1.1l26.1,24.5c2.5,2.4,6.1,7.1,6.1,7.1
					s-0.7-5.9-0.7-9.4V62.2h10v52.2h-1.1L173.7,89.9z"/>
				<path class="st2" d="M240.8,89.9c-2.6-2.4-6.2-7.1-6.2-7.1s0.8,5.7,0.8,9.4V114h-10V61.7h1.1l26.1,24.5c2.5,2.4,6.1,7.1,6.1,7.1
					s-0.7-5.9-0.7-9.4V62.2h10v52.2h-1.1L240.8,89.9z"/>
				<path class="st2" d="M277.1,95.2v-33h10.7v32.4c0,7.5,3.3,10.4,10.4,10.4c7,0,10.2-2.9,10.2-10.4V62.2h10.7v33
					c0,13.1-9.1,19.4-20.9,19.4C286.1,114.6,277.1,108.3,277.1,95.2z"/>
				<path class="st2" d="M328,62.2h34.2v9.4h-23.6V88h20.8v9.1h-20.8v7.5h24.7v9.4H328V62.2z"/>
				<path class="st2" d="M366.8,62.2h11.4l8.9,19.9c2,4.4,4,11.7,4,11.7s2-7.2,4-11.7l8.7-19.9h10.4l-22.7,52.2h-1.1L366.8,62.2z"/>
				<path class="st2" d="M413.3,88.1c0-15.3,11.9-26.6,26.8-26.6c14.9,0,26.8,11.3,26.8,26.6c0,15.3-11.9,26.6-26.8,26.6
					C425.1,114.6,413.3,103.4,413.3,88.1z M455.9,88.1c0-9.7-6.4-17-15.8-17s-15.8,7.4-15.8,17c0,9.7,6.4,17,15.8,17
					S455.9,97.7,455.9,88.1z"/>
				<path class="st2" d="M487.9,88.1c0-15.3,11.8-26.5,26.6-26.5c9.4,0,16.1,3.3,20.7,10.6l-8.1,5.8c-2.4-4-6.6-6.8-12.6-6.8
					c-9.4,0-15.7,7.2-15.7,16.9c0,9.7,6.3,17,15.7,17c6.7,0,10.4-3.2,13.3-7.6l8.3,5.7c-4.5,7-11.6,11.4-21.6,11.4
					C499.7,114.6,487.9,103.4,487.9,88.1z"/>
				<path class="st2" d="M540.1,88.1c0-15.3,11.9-26.6,26.8-26.6c14.9,0,26.8,11.3,26.8,26.6c0,15.3-11.9,26.6-26.8,26.6
					C552,114.6,540.1,103.4,540.1,88.1z M582.7,88.1c0-9.7-6.4-17-15.8-17c-9.4,0-15.8,7.4-15.8,17c0,9.7,6.4,17,15.8,17
					C576.3,105.1,582.7,97.7,582.7,88.1z"/>
				<path class="st2" d="M616.6,89.9c-2.6-2.4-6.2-7.1-6.2-7.1s0.8,5.7,0.8,9.4V114h-10V61.7h1.1l26.1,24.5c2.5,2.4,6.1,7.1,6.1,7.1
					s-0.7-5.9-0.7-9.4V62.2h10v52.2h-1.1L616.6,89.9z"/>
				<path class="st2" d="M651.3,88.1c0-15.3,11.8-26.5,26.6-26.5c9.4,0,16.1,3.3,20.7,10.6l-8.1,5.8c-2.4-4-6.6-6.8-12.6-6.8
					c-9.4,0-15.7,7.2-15.7,16.9c0,9.7,6.3,17,15.7,17c6.7,0,10.4-3.2,13.3-7.6l8.3,5.7c-4.5,7-11.6,11.4-21.6,11.4
					C663.1,114.6,651.3,103.4,651.3,88.1z"/>
				<path class="st2" d="M706,62.2h34.2v9.4h-23.6V88h20.8v9.1h-20.8v7.5h24.7v9.4H706V62.2z"/>
				<path class="st2" d="M749.7,62.2H764c14.5,0,23.1,7.5,23.1,20c0,12.5-8.8,19.9-23.1,19.9h-3.7V114h-10.7V62.2z M763.7,92.8
					c8.7,0,12.5-3.5,12.5-10.6c0-7.2-4-10.7-12.5-10.7h-3.3v21.2H763.7z"/>
				<path class="st2" d="M804.9,71.6h-14.8v-9.4h40.2v9.4h-14.8V114h-10.7V71.6z"/>
				<path class="st2" d="M831.9,88.1c0-15.3,11.9-26.6,26.8-26.6s26.8,11.3,26.8,26.6c0,15.3-11.9,26.6-26.8,26.6
					S831.9,103.4,831.9,88.1z M874.5,88.1c0-9.7-6.4-17-15.8-17s-15.8,7.4-15.8,17c0,9.7,6.4,17,15.8,17S874.5,97.7,874.5,88.1z"/>
			</g>
			<g>
				<path class="st0" d="M152.8,191.9h32.8v7.1h-24.8v20.1h22v6.9h-22v10.6h25.9v7.1h-33.9V191.9z"/>
				<path class="st0" d="M207.8,213.5c-0.6-0.6-1.1-1.2-1.6-1.9c-0.5-0.7-1.1-1.3-1.6-1.9c-0.6-0.7-1.1-1.3-1.7-2.1
					c0,0.8,0.1,1.6,0.2,2.5c0.1,0.7,0.2,1.5,0.2,2.4s0.1,1.7,0.1,2.6v28.5H196v-52.3h1.1l28.6,30.7c0.5,0.6,1,1.2,1.6,1.9
					c0.5,0.7,1,1.3,1.6,1.9c0.6,0.7,1.1,1.4,1.7,2.1c-0.1-0.9-0.2-1.8-0.3-2.7c-0.1-0.8-0.2-1.6-0.2-2.4c0-0.9,0-1.6,0-2.4v-28.5
					h7.5v52.3h-1L207.8,213.5z"/>
				<path class="st0" d="M262.8,191.9h32.8v7.1h-24.8v20.1h22v6.9h-22v10.6h25.9v7.1h-33.9V191.9z"/>
				<path class="st0" d="M306,191.9h8v44.7h23.9v7.1H306V191.9z"/>
				<path class="st0" d="M372,199h-15.4v-7.1h38.8v7.1H380v44.7h-8V199z"/>
				<path class="st0" d="M438.4,243.7h-9.3l-9.3-13.6c-0.7,0.1-1.4,0.2-2.2,0.2c-0.7,0.1-1.5,0.1-2.2,0.1h-4.9v13.3h-8v-51.8h12.9
					c3.5,0,6.7,0.5,9.5,1.4c2.8,0.9,5.1,2.2,7,3.9c1.9,1.7,3.3,3.7,4.3,6.1c1,2.4,1.5,5.1,1.5,8c0,4-0.9,7.4-2.6,10.1
					c-1.8,2.7-4.3,4.8-7.7,6.3L438.4,243.7z M415.1,223.4c5.1,0,8.8-1.1,11.1-3.2c2.2-2.1,3.4-5.1,3.4-9c0-3.9-1.1-6.9-3.4-9.1
					c-2.3-2.1-5.9-3.2-11-3.2h-4.6v24.4H415.1z"/>
				<path class="st0" d="M464.8,191.4h0.9l22.7,52.3H480l-3-7.3h-23.7l-3,7.3h-7.8L464.8,191.4z M474.2,229.6l-6.5-16.1
					c-0.4-0.8-0.7-1.6-1-2.5c-0.3-0.9-0.5-1.7-0.8-2.5c-0.3-0.9-0.5-1.8-0.8-2.7c-0.3,0.9-0.5,1.8-0.8,2.7c-0.3,0.8-0.5,1.6-0.8,2.5
					c-0.3,0.9-0.6,1.7-0.9,2.5l-6.5,16.1H474.2z"/>
				<path class="st0" d="M500.4,199h-15.4v-7.1h38.8v7.1h-15.4v44.7h-8V199z"/>
				<path class="st0" d="M542.6,191.4h0.9l22.7,52.3h-8.4l-3-7.3h-23.7l-3,7.3h-7.8L542.6,191.4z M552,229.6l-6.5-16.1
					c-0.4-0.8-0.7-1.6-1-2.5c-0.3-0.9-0.5-1.7-0.8-2.5c-0.3-0.9-0.5-1.8-0.8-2.7c-0.3,0.9-0.5,1.8-0.8,2.7c-0.3,0.8-0.5,1.6-0.8,2.5
					c-0.3,0.9-0.6,1.7-0.9,2.5l-6.5,16.1H552z"/>
				<path class="st0" d="M573.1,191.4h0.8l24.7,28.9l24.5-28.9h0.8v52.3h-7.8v-26.9c0-0.7,0-1.5,0-2.4c0-0.9,0.1-1.7,0.1-2.4
					c0-0.9,0.1-1.8,0.2-2.7c-0.5,0.7-1,1.4-1.5,2.2c-0.5,0.7-0.9,1.4-1.5,2.1c-0.5,0.7-1.1,1.4-1.6,1.9l-13,15.7h-0.9l-13-15.7
					c-0.5-0.6-1-1.2-1.6-1.9c-0.5-0.7-1-1.4-1.5-2.1c-0.6-0.8-1.1-1.5-1.5-2.2c0,0.9,0.1,1.8,0.2,2.7c0,0.8,0.1,1.6,0.1,2.4
					c0,0.9,0,1.6,0,2.4v26.9h-7.8V191.4z"/>
				<path class="st0" d="M635.3,191.9h8v51.8h-8V191.9z"/>
				<path class="st0" d="M654.5,191.9h32.8v7.1h-24.8v20.1h22v6.9h-22v10.6h25.9v7.1h-33.9V191.9z"/>
				<path class="st0" d="M709.5,213.5c-0.6-0.6-1.1-1.2-1.6-1.9c-0.5-0.7-1.1-1.3-1.6-1.9c-0.6-0.7-1.1-1.3-1.7-2.1
					c0,0.8,0.1,1.6,0.2,2.5c0.1,0.7,0.2,1.5,0.2,2.4s0.1,1.7,0.1,2.6v28.5h-7.5v-52.3h1.1l28.6,30.7c0.5,0.6,1,1.2,1.6,1.9
					c0.5,0.7,1,1.3,1.6,1.9c0.6,0.7,1.1,1.4,1.7,2.1c-0.1-0.9-0.2-1.8-0.3-2.7c-0.1-0.8-0.2-1.6-0.2-2.4c0-0.9,0-1.6,0-2.4v-28.5
					h7.5v52.3h-1L709.5,213.5z"/>
				<path class="st0" d="M761.6,199h-15.4v-7.1h38.8v7.1h-15.4v44.7h-8V199z"/>
				<path class="st0" d="M813.4,244.4c-3.7,0-7.2-0.7-10.4-2c-3.2-1.3-6.1-3.2-8.5-5.5c-2.4-2.4-4.3-5.2-5.7-8.4
					c-1.4-3.2-2.1-6.8-2.1-10.7c0-3.9,0.7-7.4,2.1-10.7c1.4-3.2,3.3-6.1,5.7-8.4c2.4-2.4,5.2-4.2,8.5-5.5c3.2-1.3,6.7-2,10.4-2
					c3.7,0,7.2,0.7,10.4,2c3.2,1.3,6,3.2,8.4,5.5c2.4,2.4,4.3,5.2,5.7,8.4c1.4,3.2,2.1,6.8,2.1,10.7c0,3.9-0.7,7.4-2.1,10.7
					c-1.4,3.2-3.3,6.1-5.7,8.4c-2.4,2.4-5.2,4.2-8.4,5.5C820.6,243.7,817.1,244.4,813.4,244.4z M813.4,237.1c2.7,0,5.2-0.5,7.4-1.5
					c2.3-1,4.2-2.3,5.8-4.1c1.6-1.7,2.9-3.8,3.8-6.1c0.9-2.4,1.4-4.9,1.4-7.7c0-2.7-0.5-5.3-1.4-7.7c-0.9-2.4-2.2-4.4-3.8-6.1
					c-1.6-1.7-3.6-3.1-5.8-4.1c-2.3-1-4.7-1.5-7.4-1.5c-2.7,0-5.2,0.5-7.5,1.5c-2.3,1-4.2,2.3-5.9,4.1c-1.6,1.7-2.9,3.8-3.8,6.1
					c-0.9,2.4-1.4,4.9-1.4,7.7c0,2.7,0.5,5.3,1.4,7.7c0.9,2.4,2.2,4.4,3.8,6.1c1.6,1.7,3.6,3.1,5.9,4.1
					C808.2,236.6,810.7,237.1,813.4,237.1z"/>
			</g>
			<g>
				<path class="st0" d="M224.3,282.5h14.2c4.2,0,7.9,0.6,11.3,1.9c3.4,1.2,6.3,3,8.7,5.3c2.4,2.3,4.3,5,5.6,8.2
					c1.3,3.2,2,6.7,2,10.6c0,3.9-0.7,7.4-2,10.6c-1.3,3.2-3.2,5.9-5.6,8.1c-2.4,2.3-5.3,4-8.7,5.3c-3.4,1.2-7.2,1.9-11.3,1.9h-14.2
					V282.5z M238,327.2c3.4,0,6.3-0.5,8.8-1.4c2.5-0.9,4.6-2.2,6.2-3.9c1.7-1.7,2.9-3.7,3.7-6c0.8-2.3,1.2-4.8,1.2-7.6
					c0-2.7-0.4-5.3-1.2-7.6c-0.8-2.3-2-4.3-3.7-6s-3.7-3-6.2-3.9c-2.5-0.9-5.4-1.4-8.8-1.4h-5.6v37.6H238z"/>
				<path class="st0" d="M274.7,282.5h32.8v7.1h-24.8v20.1h22v6.9h-22v10.6h25.9v7.1h-33.9V282.5z"/>
				<path class="st0" d="M332.4,282.5h8v44.7h23.9v7.1h-31.9V282.5z"/>
				<path class="st0" d="M390.4,282h0.9l22.7,52.3h-8.4l-3-7.3H379l-3,7.3h-7.8L390.4,282z M399.8,320.2l-6.5-16.1
					c-0.4-0.8-0.7-1.6-1-2.5c-0.3-0.9-0.5-1.7-0.8-2.5c-0.3-0.9-0.5-1.8-0.8-2.7c-0.3,0.9-0.5,1.8-0.8,2.7c-0.3,0.8-0.5,1.6-0.8,2.5
					c-0.3,0.9-0.6,1.7-0.9,2.5l-6.5,16.1H399.8z"/>
				<path class="st0" d="M435.5,282.5h32.8v7.1h-24.8v20.1h22v6.9h-22v10.6h25.9v7.1h-33.9V282.5z"/>
				<path class="st0" d="M478.7,282.5h13c3.5,0,6.7,0.5,9.5,1.4c2.8,0.9,5.1,2.3,7,4c1.9,1.7,3.3,3.8,4.3,6.2c1,2.4,1.4,5.2,1.4,8.1
					c0,3-0.5,5.7-1.5,8.1c-1,2.4-2.4,4.5-4.3,6.2s-4.2,3-7,4c-2.8,0.9-5.9,1.4-9.5,1.4h-5v12.3h-8V282.5z M491.3,314.9
					c5.1,0,8.8-1.1,11-3.4c2.2-2.3,3.4-5.3,3.4-9.3c0-4-1.1-7.1-3.4-9.3c-2.2-2.2-5.9-3.4-11-3.4h-4.7v25.3H491.3z"/>
				<path class="st0" d="M522.5,282.5h8v51.8h-8V282.5z"/>
				<path class="st0" d="M541.7,282.5h8v44.7h23.9v7.1h-31.9V282.5z"/>
				<path class="st0" d="M581.6,282.5h32.8v7.1h-24.8v20.1h22v6.9h-22v10.6h25.9v7.1h-33.9V282.5z"/>
				<path class="st0" d="M624.7,282.5h13c3.5,0,6.7,0.5,9.5,1.4c2.8,0.9,5.1,2.3,7,4c1.9,1.7,3.3,3.8,4.3,6.2c1,2.4,1.4,5.2,1.4,8.1
					c0,3-0.5,5.7-1.5,8.1c-1,2.4-2.4,4.5-4.3,6.2c-1.9,1.7-4.2,3-7,4c-2.8,0.9-5.9,1.4-9.5,1.4h-5v12.3h-8V282.5z M637.4,314.9
					c5.1,0,8.8-1.1,11-3.4c2.2-2.3,3.4-5.3,3.4-9.3c0-4-1.1-7.1-3.4-9.3c-2.2-2.2-5.9-3.4-11-3.4h-4.7v25.3H637.4z"/>
				<path class="st0" d="M682.3,335c-2.4,0-4.6-0.3-6.6-0.8c-2-0.6-3.7-1.3-5.3-2.3c-1.5-1-2.9-2.1-4-3.4c-1.1-1.3-2-2.7-2.7-4.1
					l6.6-3.7c1.2,2,2.7,3.7,4.5,5.1c1.8,1.4,4.2,2.1,7.4,2.1c2.6,0,4.8-0.6,6.5-1.9c1.7-1.3,2.5-3,2.5-5.1c0-1.1-0.2-2.1-0.6-2.9
					c-0.4-0.8-0.9-1.6-1.7-2.3c-0.7-0.7-1.6-1.3-2.7-1.9c-1.1-0.6-2.3-1.2-3.7-1.8l-3.4-1.5c-1.9-0.8-3.6-1.7-5.1-2.6
					c-1.5-0.9-2.8-2-3.8-3.2c-1-1.2-1.8-2.6-2.4-4.1c-0.6-1.5-0.8-3.3-0.8-5.3c0-1.9,0.3-3.7,1.1-5.3c0.7-1.6,1.7-3,2.9-4.2
					s2.8-2.1,4.6-2.7c1.8-0.7,3.8-1,5.9-1c3.5,0,6.4,0.7,8.7,2c2.4,1.3,4.3,3.4,5.9,6.2l-6.3,3.9c-1-1.7-2.1-3-3.4-3.8
					c-1.2-0.8-2.9-1.2-4.9-1.2c-2.1,0-3.7,0.6-4.9,1.7c-1.2,1.1-1.8,2.6-1.8,4.3c0,1.9,0.6,3.4,1.8,4.6c1.2,1.1,3.1,2.2,5.7,3.3
					l3.4,1.5c2.2,1,4.1,2,5.8,3c1.7,1,3.1,2.2,4.3,3.5c1.1,1.3,2,2.7,2.6,4.3c0.6,1.6,0.9,3.4,0.9,5.5c0,2.3-0.4,4.3-1.3,6.1
					c-0.8,1.8-2,3.3-3.5,4.5c-1.5,1.2-3.3,2.1-5.3,2.8C687,334.7,684.7,335,682.3,335z"/>
				<path class="st0" d="M707.7,282.5h8v51.8h-8V282.5z"/>
				<path class="st0" d="M745,282h0.9l22.7,52.3h-8.4l-3-7.3h-23.7l-3,7.3h-7.8L745,282z M754.3,320.2l-6.5-16.1
					c-0.4-0.8-0.7-1.6-1-2.5c-0.3-0.9-0.5-1.7-0.8-2.5c-0.3-0.9-0.5-1.8-0.8-2.7c-0.3,0.9-0.5,1.8-0.8,2.7c-0.3,0.8-0.5,1.6-0.8,2.5
					c-0.3,0.9-0.6,1.7-0.9,2.5l-6.5,16.1H754.3z"/>
			</g>
		</g>
	</g>
</g>
</svg>
