<?xml version="1.0" encoding="utf-8"?>
<!-- Generator: Adobe Illustrator 25.0.0, SVG Export Plug-In . SVG Version: 6.00 Build 0)  -->
<svg version="1.1" id="Layer_1" xmlns="http://www.w3.org/2000/svg" xmlns:xlink="http://www.w3.org/1999/xlink" x="0px" y="0px"
	 viewBox="0 0 50 50" style="enable-background:new 0 0 50 50;" xml:space="preserve">
<style type="text/css">
	.st0{fill:#00AEEF;}
</style>
<g>
	<path class="st0" d="M18.6,2.9L18.6,2.9l-9.2,9.2V47h32V2.9H18.6z M38.6,44.7H12.1V15.1h9.9v-10h16.6V44.7z"/>
	<rect x="21" y="22.3" class="st0" width="13.9" height="2.1"/>
	<rect x="21" y="28.8" class="st0" width="13.9" height="2.1"/>
	<rect x="21" y="35.4" class="st0" width="13.9" height="2.1"/>
	<path class="st0" d="M17.4,21.3c-0.8,0-1.5,0.7-1.5,1.5c0,0.8,0.7,1.5,1.5,1.5s1.5-0.7,1.5-1.5C18.9,22,18.2,21.3,17.4,21.3z"/>
	<path class="st0" d="M17.4,27.8c-0.8,0-1.5,0.7-1.5,1.5c0,0.8,0.7,1.5,1.5,1.5s1.5-0.7,1.5-1.5C18.9,28.5,18.2,27.8,17.4,27.8z"/>
	<path class="st0" d="M17.4,34.3c-0.8,0-1.5,0.7-1.5,1.5c0,0.8,0.7,1.5,1.5,1.5s1.5-0.7,1.5-1.5C18.9,35,18.2,34.3,17.4,34.3z"/>
</g>
</svg>
