<?xml version="1.0" encoding="utf-8"?>
<!-- Generator: Adobe Illustrator 25.0.0, SVG Export Plug-In . SVG Version: 6.00 Build 0)  -->
<svg version="1.1" id="Layer_1" xmlns="http://www.w3.org/2000/svg" xmlns:xlink="http://www.w3.org/1999/xlink" x="0px" y="0px"
	 viewBox="0 0 250.2 253.8" style="enable-background:new 0 0 250.2 253.8;" xml:space="preserve">
<style type="text/css">
	.st0{fill:#FFFFFF;}
	.st1{fill:#F0F0F1;}
	.st2{fill:#0D4BA0;}
	.st3{display:none;}
	.st4{font-family:'Antenna-Bold';}
	.st5{font-size:51.9716px;}
</style>
<g>
	<g>
		<g>
			<g>
				<path class="st0" d="M104.7,92.5c-0.6,0-1.3,0.2-1.8,0.4c-0.6-1.6-2.1-2.7-3.8-2.7c-1.1,0-2.1,0.4-2.8,1.1
					c-0.7-0.7-1.7-1.1-2.8-1.1c-0.6,0-1.1,0.1-1.6,0.3v-7.2c0-2.2-1.8-4.1-4.1-4.1c-2.2,0-4.1,1.8-4.1,4.1V92v0.9V95
					c-1.8,0.1-4.5,0.7-4.5,4.5c0,2.9,3.4,9.1,6.9,9.9c2.3,3.1,6,5.2,10.1,5.2c7,0,12.5-5.3,12.5-12c0-0.7-0.6-1.3-1.3-1.3
					c-0.7,0-1.3,0.6-1.3,1.3c0,5.3-4.4,9.5-10,9.5c-3.5,0-6.5-1.8-8.3-4.5c0,0,0-0.1-0.1-0.1c-1-1.6-1.6-3.4-1.6-5.4v-9.2V92v-8.6
					c0-0.9,0.7-1.6,1.6-1.6c0.9,0,1.6,0.7,1.6,1.6v10.9v4.2v0.2c0,0.7,0.6,1.3,1.3,1.3c0.7,0,1.3-0.6,1.3-1.3v-0.2v-4.2
					c0-0.9,0.7-1.6,1.6-1.6c0.9,0,1.6,0.7,1.6,1.5c0,0,0,0,0,0v4.4c0,0.1,0,0.1,0,0.1c0.1,0.6,0.6,1.1,1.2,1.1
					c0.6,0,1.2-0.5,1.2-1.1c0,0,0-0.1,0-0.1c0,0,0,0,0,0v-4.4c0,0,0,0,0,0c0-0.9,0.7-1.5,1.6-1.5c0.9,0,1.6,0.7,1.6,1.6v2.3
					c0,0,0,0,0,0v2.1c0,0.1,0,0.1,0,0.2c0.1,0.6,0.6,1.1,1.2,1.1c0.6,0,1.2-0.5,1.2-1.1c0,0,0-0.1,0-0.1c0,0,0,0,0,0v-2.1
					c0-0.9,0.7-1.5,1.6-1.5c0.9,0,1.6,0.7,1.6,1.6v1c0,0.7,0.6,1.3,1.3,1.3c0.7,0,1.3-0.6,1.3-1.3v-1
					C108.8,94.4,106.9,92.5,104.7,92.5z M81.7,99.6c0-1.3,0.2-1.9,2-2v4.6c0,0.9,0.1,1.8,0.3,2.6C82.8,103.1,81.7,100.9,81.7,99.6z"
					/>
				<path class="st0" d="M92.5,86.4c-0.5,0.5-0.5,1.3,0,1.8c0.2,0.2,0.6,0.3,0.9,0.3c0.3,0,0.7-0.1,0.9-0.4c1.4-1.5,2.3-3.4,2.4-5.5
					c0.1-2.3-0.6-4.6-2.2-6.3c-1.6-1.8-3.7-2.8-6-2.9c-4.8-0.3-9,3.4-9.3,8.2c-0.1,2.3,0.6,4.6,2.2,6.3c0.5,0.5,1.3,0.6,1.8,0.1
					c0.5-0.5,0.6-1.3,0.1-1.8c-1.1-1.3-1.7-2.9-1.6-4.5c0.2-3.4,3.2-6.1,6.6-5.9c1.7,0.1,3.2,0.8,4.3,2.1c1.1,1.3,1.7,2.9,1.6,4.5
					C94.1,84,93.5,85.4,92.5,86.4z"/>
				<path class="st0" d="M97.3,88.5c0.6,0.3,1.4,0.1,1.7-0.5c0.8-1.6,1.3-3.3,1.4-5.1c0.4-6.9-4.8-12.8-11.7-13.2
					c-3.3-0.2-6.5,0.9-9,3.1c-2.5,2.2-4,5.3-4.2,8.6c-0.3,4.5,1.9,8.8,5.6,11.2c0.2,0.1,0.4,0.2,0.7,0.2c0.4,0,0.8-0.2,1.1-0.6
					c0.4-0.6,0.2-1.4-0.4-1.7c-3-2-4.7-5.4-4.5-9c0.2-2.7,1.3-5.1,3.3-6.9c2-1.8,4.6-2.6,7.2-2.5c5.5,0.3,9.7,5.1,9.3,10.6
					c-0.1,1.4-0.5,2.8-1.1,4C96.4,87.4,96.7,88.2,97.3,88.5z"/>
			</g>
		</g>
	</g>
</g>
<g>
	<g>
		<g>
			<path class="st1" d="M241.9,127.1c6.7-8.4,9.7-19.4,7.7-30.2c-2.1-11.3-9-20.8-18.8-26.2c3.2-11.2,1.1-23.4-6-33
				c-7.1-9.4-18.3-15-30.1-15c-1.7,0-3.4,0.1-5,0.3C183.8,9.3,170.3,0,155,0c-12.1,0-22.9,5.8-29.8,14.7C118.3,5.8,107.5,0,95.3,0
				C80,0,66.5,9.3,60.7,22.9c-1.7-0.2-3.3-0.3-5-0.3c-12,0-22.9,5.5-30.1,15.1c-7.1,9.5-9.2,21.8-6,33C9.8,76,2.8,85.5,0.8,96.9
				c-2,10.9,0.9,21.9,7.7,30.3c-6.7,8.4-9.7,19.4-7.7,30.2c2,11.3,9,20.8,18.8,26.2c-3.2,11.2-1.1,23.4,6,33
				c7.1,9.4,18.3,15,30.1,15c1.7,0,3.3-0.1,5-0.3c5.8,13.6,19.3,22.9,34.6,22.9c12.1,0,22.9-5.8,29.8-14.7
				c6.9,8.9,17.7,14.7,29.8,14.7c15.3,0,28.8-9.3,34.6-22.9c1.7,0.2,3.3,0.3,5,0.3c12,0,22.9-5.5,30.1-15c7.1-9.5,9.2-21.8,6-33
				c9.8-5.4,16.8-14.9,18.8-26.2C251.5,146.5,248.6,135.5,241.9,127.1"/>
			<path class="st2" d="M241.9,127.1c6.7-8.4,9.7-19.4,7.7-30.3c-2.1-11.3-9-20.8-18.8-26.2c3.2-11.2,1.1-23.4-6-33
				c-7.1-9.4-18.3-15-30.1-15c-1.7,0-3.3,0.1-5,0.3C183.8,9.3,170.3,0,155,0c-12.1,0-22.9,5.8-29.8,14.7C118.3,5.8,107.5,0,95.3,0
				C80,0,66.5,9.3,60.7,22.9c-1.7-0.2-3.3-0.3-5-0.3c-12,0-22.9,5.5-30.1,15.1c-7.2,9.5-9.2,21.8-6.1,32.9C9.8,76,2.8,85.5,0.8,96.9
				c-2,10.8,0.9,21.9,7.7,30.3c-6.8,8.4-9.7,19.4-7.7,30.2c2,11.3,9,20.8,18.8,26.2c-3.2,11.2-1.1,23.4,6,33c7,9.4,18.3,15,30.1,15
				c1.7,0,3.3-0.1,5-0.4c5.8,13.7,19.3,23,34.6,23c12.1,0,22.9-5.8,29.8-14.7c6.9,8.9,17.7,14.7,29.8,14.7c15.3,0,28.9-9.3,34.6-23
				c1.7,0.2,3.3,0.4,5,0.4c12,0,22.9-5.5,30.1-15.1c7.1-9.5,9.2-21.8,6-33c9.8-5.4,16.8-14.9,18.8-26.2
				C251.5,146.5,248.6,135.5,241.9,127.1 M117.4,216.6c0,12.1-9.9,22.1-22,22.1c-10.5,0-19.6-7.5-21.6-17.8l-0.1-0.5
				c-0.2-1.3-0.3-2.5-0.3-3.7c0-3.6,0.9-7,2.5-10.1c5.8,3.6,12.6,5.5,19.6,5.5v-15.6c-5.9,0-11.4-2.3-15.6-6.5
				c-4.2-4.2-6.5-9.7-6.5-15.6H57.8c0,7.6,2.3,14.9,6.5,21.1c-4.1,6-6.4,13.1-6.5,20.5c-0.7,0-1.3,0.1-2,0.1c-7,0-13.5-3.2-17.7-8.8
				c-5.2-6.9-5.8-16.2-1.7-23.8l1.8-3.4l-3.2-7.2l-3.5-1c-8.1-2.4-14-9-15.5-17.2c-1.3-7.2,1.1-14.6,6.3-19.7h36.2
				c1.5,7.1,5,13.6,10.2,18.8c6.8,6.8,16.2,11,26.6,11h22V216.6z M117.4,149.1h-22c-11.8,0-21.4-9.2-22-20.8v-0.1c0-0.3,0-0.8,0-1.1
				c0-5.9,2.3-11.4,6.5-15.6l-11-11c-5.2,5.2-8.7,11.7-10.2,18.8H22.4c-5.2-5.1-7.6-12.4-6.3-19.7c1.5-8.3,7.4-14.9,15.5-17.3l3.5-1
				l3.2-7.2l-1.8-3.4c-4.2-7.6-3.5-16.9,1.7-23.8c4.2-5.6,10.6-8.8,17.7-8.8c0.7,0,1.4,0,2,0.1c0.1,7.4,2.4,14.5,6.5,20.5
				c-4.2,6.2-6.5,13.4-6.5,21.1l15.6,0c0-5.9,2.3-11.5,6.5-15.6c4.2-4.2,9.7-6.4,15.6-6.4V42.3c-7.1,0-13.8,1.9-19.6,5.5
				c-1.6-3.1-2.5-6.6-2.5-10.2c0-1.2,0.1-2.5,0.3-3.7l0.1-0.6c2-10.3,11.1-17.8,21.6-17.8c12.2,0,22,9.9,22,22.1V149.1z M132.9,37.6
				c0-12.1,9.9-22.1,22-22.1c10.6,0,19.6,7.5,21.7,17.8l0.1,0.5c0.2,1.2,0.3,2.5,0.3,3.7c0,3.6-0.9,7-2.5,10.2
				c-5.8-3.6-12.6-5.5-19.6-5.5v15.6c5.9,0,11.4,2.3,15.6,6.4c4.2,4.1,6.4,9.7,6.5,15.6l15.5,0c0-7.6-2.2-14.9-6.5-21.1
				c4.1-6,6.4-13.1,6.5-20.5c0.6-0.1,1.3-0.1,2-0.1c7,0,13.5,3.2,17.7,8.8c5.2,6.9,5.8,16.3,1.7,23.8l-1.9,3.4l1.6,3.5l1.6,3.6
				l3.5,1c8.1,2.4,14,9,15.5,17.3c1.3,7.2-1.1,14.6-6.3,19.7h-36.1c-1.5-7.1-5-13.6-10.2-18.8c-6.8-6.8-16.2-11-26.6-11h-22V37.6z
				 M234.3,154.5c-1.5,8.3-7.4,14.9-15.5,17.3l-3.5,1l-3.1,7.2l1.8,3.4c4.2,7.6,3.5,16.9-1.7,23.8c-4.2,5.6-10.6,8.8-17.7,8.8
				c-0.7,0-1.4,0-2-0.1c-0.1-7.4-2.4-14.5-6.5-20.5c4.2-6.2,6.5-13.5,6.5-21.1H177c0,5.9-2.3,11.4-6.5,15.6
				c-4.2,4.2-9.7,6.5-15.6,6.5v15.6c7,0,13.8-1.9,19.6-5.5c1.6,3.1,2.5,6.5,2.5,10.1c0,1.3-0.1,2.5-0.3,3.7l-0.1,0.5
				c-2,10.3-11.1,17.8-21.7,17.8c-12.1,0-22-9.9-22-22.1V105h22c11.8,0,21.4,9.2,22,20.8l0,0.1c0,0.4,0,0.8,0,1.1
				c0,5.9-2.3,11.4-6.5,15.6l11,11c5.2-5.2,8.7-11.7,10.2-18.8H228C233.1,140,235.6,147.3,234.3,154.5"/>
		</g>
		<ellipse class="st0" cx="126.6" cy="122.8" rx="71.2" ry="68.6"/>
	</g>
	<text transform="matrix(1 0 0 1 114.6327 142.8714)" class="st3 st4 st5">2</text>
</g>
</svg>
