<?xml version="1.0" encoding="utf-8"?>
<!-- Generator: Adobe Illustrator 25.0.0, SVG Export Plug-In . SVG Version: 6.00 Build 0)  -->
<svg version="1.1" id="Layer_1" xmlns="http://www.w3.org/2000/svg" xmlns:xlink="http://www.w3.org/1999/xlink" x="0px" y="0px"
	 viewBox="0 0 50 50" style="enable-background:new 0 0 50 50;" xml:space="preserve">
<style type="text/css">
	.st0{fill:#00AEEF;}
</style>
<g id="Outline">
	<path class="st0" d="M6,31c2.7,7.6,10.4,13.1,19.4,13.1S42,38.6,44.8,31c2.6-0.1,4.6-2.5,4.6-5.5c0-2.8-1.8-5.1-4.2-5.4
		C42.9,11.9,34.9,5.8,25.4,5.8S7.9,11.9,5.6,20.1c-2.4,0.3-4.2,2.6-4.2,5.4C1.4,28.5,3.4,30.9,6,31z M47.6,25.5
		c0.1,1.6-0.8,3-2.3,3.6c0.6-2.3,0.6-4.7,0.3-7C46.9,22.7,47.7,24.1,47.6,25.5z M22.4,8.5c-1.6,1.6-2.8,4-1.5,6.8
		c0.1,0.3,0.4,0.5,0.8,0.5c0.5,0,0.8-0.4,0.8-0.9c0-0.1,0-0.2-0.1-0.3c-1.6-3.6,2.2-5.9,3.1-6.4c0.3,0,0.7,0,1,0.1
		c-1,1.7-1.6,3.9,0,5.3c0.4,0.3,0.9,0.1,1.2-0.3c0.2-0.3,0.2-0.7,0-1c-1-0.9,0.2-2.9,0.8-3.8c8.4,1.3,14.8,8.2,14.8,16.4
		c0,9.2-8,16.6-17.9,16.6S7.5,34.1,7.5,24.9C7.5,16.7,13.9,9.9,22.4,8.5z M5.2,22c-0.4,2.3-0.3,4.7,0.3,7c-1.4-0.6-2.4-2-2.3-3.6
		C3.1,24.1,3.9,22.7,5.2,22L5.2,22z"/>
	<path class="st0" d="M15.3,24.9c0.5,0,0.9-0.4,0.9-0.9c-0.1-0.9,0.5-1.7,1.4-1.8c0.9,0.1,1.5,0.9,1.4,1.8c0,0.5,0.4,0.9,0.9,0.9
		s0.9-0.4,0.9-0.9c0.1-1.9-1.3-3.5-3.2-3.6c-1.9,0.1-3.3,1.7-3.2,3.6C14.4,24.5,14.8,24.9,15.3,24.9z"/>
	<path class="st0" d="M30,24.9c0.5,0,0.9-0.4,0.9-0.9c-0.1-0.9,0.5-1.7,1.4-1.8c0.9,0.1,1.5,0.9,1.4,1.8c0,0.5,0.4,0.9,0.9,0.9
		c0.5,0,0.9-0.4,0.9-0.9c0.1-1.9-1.3-3.5-3.2-3.6c-1.9,0.1-3.3,1.7-3.2,3.6C29.1,24.5,29.5,24.9,30,24.9z"/>
	<path class="st0" d="M25.4,36.1c2.6,0,4.8-2.1,4.8-4.8c0,0,0,0,0,0c0-0.5-0.4-0.9-0.9-0.9s-0.9,0.4-0.9,0.9c0,1.6-1.3,3-3,3
		c-1.6,0-3-1.3-3-3c0-0.5-0.4-0.9-0.9-0.9c-0.5,0-0.9,0.4-0.9,0.9C20.6,34,22.7,36.1,25.4,36.1C25.4,36.1,25.4,36.1,25.4,36.1z"/>
</g>
</svg>
