<?xml version="1.0" encoding="utf-8"?>
<!-- Generator: Adobe Illustrator 25.0.0, SVG Export Plug-In . SVG Version: 6.00 Build 0)  -->
<svg version="1.1" id="Layer_1" xmlns="http://www.w3.org/2000/svg" xmlns:xlink="http://www.w3.org/1999/xlink" x="0px" y="0px"
	 viewBox="0 0 50 50" style="enable-background:new 0 0 50 50;" xml:space="preserve">
<style type="text/css">
	.st0{fill:#00AEEF;}
</style>
<path class="st0" d="M31.1,29.8v-3c3.6-2.1,5.8-5.9,5.8-10v-3.5c0-2.5-0.8-5-2.4-7l0,0c-0.1-0.1-0.1-0.1-0.2-0.2l0,0
	c-0.5-0.7-1.1-1.3-1.8-1.8l0,0c-0.1,0-0.1-0.1-0.2-0.1l0,0l-0.2-0.1l-0.1,0L31.9,4l-0.1,0l-0.1-0.1l-0.1-0.1l-0.1-0.1l-0.1-0.1
	l-0.1-0.1l-0.1-0.1L31,3.4l-0.1-0.1l-0.1-0.1l-0.1,0l-0.1-0.1l-0.1,0L30.3,3l-0.1,0l-0.1-0.1l-0.1,0c-0.2-0.1-0.3-0.1-0.5-0.2
	l-0.1,0l-0.1,0l-0.1,0l-0.1,0l-0.1,0l-0.1,0l-0.1,0l-0.1,0l-0.1,0l-0.1,0l-0.1,0l-0.1,0l-0.1,0l-0.1,0l-0.1,0l-0.1,0l-0.1,0l-0.1,0
	l-0.2,0l-0.1,0l-0.2,0l-0.1,0l-0.2,0l-0.1,0l-0.2,0l-0.1,0l-0.2,0h-0.1c-0.1,0-0.2,0-0.3,0c-0.1,0-0.2,0-0.3,0H25l-0.2,0l-0.1,0
	l-0.2,0l-0.1,0l-0.2,0l-0.1,0l-0.2,0l-0.1,0l-0.2,0l-0.1,0l-0.1,0l-0.1,0l-0.1,0l-0.1,0l-0.1,0l-0.1,0l-0.1,0l-0.1,0l-0.1,0l-0.1,0
	l-0.1,0l-0.1,0l-0.1,0l-0.1,0l-0.1,0l-0.1,0l-0.1,0c-0.2,0.1-0.4,0.1-0.5,0.2l-0.1,0L20.5,3l-0.1,0l-0.1,0.1l-0.1,0L20,3.2l-0.1,0
	l-0.1,0.1l-0.1,0.1l-0.1,0.1l-0.1,0.1l-0.1,0.1l-0.1,0.1l-0.1,0.1L19,3.8l-0.1,0.1l-0.1,0l-0.2,0.1l-0.1,0l-0.2,0.1l0,0
	c-0.1,0-0.1,0.1-0.2,0.1l0,0c-0.7,0.5-1.3,1.1-1.8,1.8l0,0c-0.1,0.1-0.1,0.1-0.2,0.2l0,0c-1.5,2-2.4,4.5-2.4,7v3.5
	c0,4.1,2.2,7.9,5.8,10v3C12.3,31.2,7,37.6,7,45c0,1.6,1.3,2.9,2.9,2.9h31.1c1.6,0,2.9-1.3,2.9-2.9C43.8,37.6,38.5,31.2,31.1,29.8z
	 M34.6,45.6H30V41c0-1.3,1-2.3,2.3-2.3c1.3,0,2.3,1,2.3,2.3l0,0L34.6,45.6z M24.2,4.3L24.2,4.3l0.2,0l0.2,0l0.1,0c0.1,0,0.2,0,0.3,0
	h0.1c0.1,0,0.2,0,0.3,0s0.2,0,0.3,0h0.1c0.1,0,0.2,0,0.3,0l0.1,0l0.2,0l0.2,0l0.1,0c3.3,0.4,6.1,2.6,7.3,5.7H16.8
	C18.1,6.9,20.9,4.7,24.2,4.3z M16.2,16.9v-3.5c0-0.4,0-0.8,0.1-1.2h18.3c0,0.4,0.1,0.8,0.1,1.2v3.5c0,5.1-4.1,9.2-9.2,9.2
	C20.3,26.1,16.2,21.9,16.2,16.9C16.2,16.9,16.2,16.9,16.2,16.9L16.2,16.9z M25.4,28.4c1.2,0,2.3-0.2,3.5-0.5v2.7l-3.5,2.1l-3.5-2.1
	v-2.7C23,28.2,24.2,28.4,25.4,28.4z M19.6,39.9c0,0.6-0.5,1.2-1.2,1.2s-1.2-0.5-1.2-1.2c0-0.6,0.5-1.2,1.2-1.2l0,0
	C19.1,38.7,19.6,39.2,19.6,39.9z M9.3,45c0-5.3,3.2-10.1,8.1-12.2v3.7c-1.8,0.6-2.7,2.6-2.1,4.4c0.6,1.8,2.6,2.7,4.4,2.1
	c1.8-0.6,2.7-2.6,2.1-4.4c-0.3-1-1.1-1.8-2.1-2.1v-4.5c0.1,0,0.3-0.1,0.4-0.1l5.4,3.2l5.4-3.2c0.1,0,0.3,0.1,0.4,0.1v4.4
	c-2,0.5-3.4,2.4-3.5,4.5v4.6H9.8C9.5,45.6,9.3,45.4,9.3,45z M40.9,45.6h-4V41c0-2.1-1.4-3.9-3.5-4.5v-3.7c4.9,2.1,8,6.9,8.1,12.2
	C41.5,45.4,41.2,45.6,40.9,45.6z"/>
</svg>
